<svg xmlns="http://www.w3.org/2000/svg" xmlns:xlink="http://www.w3.org/1999/xlink" version="1.1" x="0px" y="0px" viewBox="0 0 100 125" style="enable-background:new 0 0 100 100;" xml:space="preserve"><g><polygon points="100,17.2 90.5,15.5 91.1,4.4 88,4.2 87.5,14.9 78.2,13.3 77.7,16.3 87.3,18 86.9,26.2 90,26.4 90.4,18.6    99.4,20.2  "/><path d="M85.3,82.3"/><g><g><path d="M92.6,52.8l-3.5-3.3c-1.3,1.8-2.9,3.3-4.8,4.5l2.4,4.2C89,56.9,91,55,92.6,52.8z"/><path d="M98,39.4l-4.6-0.8c-0.3,2.2-0.9,4.3-1.8,6.4l4.1,2.3C96.9,44.7,97.6,42.1,98,39.4z"/><path d="M96.6,25.2l-4.3,1.7c0.2,0.5,0.4,1,0.6,1.5c0.2,0.5,0.3,1.1,0.4,1.6l0.3,1.7l0.2,1.7l4.6-0.3     C98.2,30.4,97.6,27.6,96.6,25.2z"/></g><g><path d="M66.5,58.9l1.3-4.4c-0.5-0.2-1-0.4-1.5-0.7l-1.5-0.7c-1-0.4-2-1.2-3-1.8l-2.5,3.9c1.1,0.7,2.2,1.4,3.4,2l1.8,0.9     C65.2,58.4,65.8,58.7,66.5,58.9z"/><path d="M80.6,60.7L79.4,56c-2.2,0.5-4.4,0.4-6.6,0l-0.2,4.8C75.2,61.1,78,61.3,80.6,60.7z"/></g><g><path d="M18.4,43.5l-2-4.1c-2.5,1.3-4.9,2.8-7,4.8l3.1,3.4C14.3,45.9,16.3,44.6,18.4,43.5z"/><path d="M30.9,40.8l0.1-4.6l-1.1,0l-1.1,0c-0.7,0-1.4,0-2.1,0.1c-1.4,0.2-2.8,0.4-4.1,0.7l1.1,4.5c1.1-0.3,2.4-0.4,3.5-0.6     c0.6,0,1.2-0.1,1.8-0.1l0.9,0L30.9,40.8z"/><path d="M43.3,44l2-4.2c-2.5-1.1-5.1-2.2-7.8-2.8l-1,4.5C38.8,42.1,41.1,43,43.3,44z"/></g><g><path d="M7.7,76.2l-4.1,2c0.3,0.6,0.6,1.2,1,1.8l1,1.8c0.8,1.1,1.5,2.3,2.4,3.3l3.6-2.9c-0.8-0.9-1.4-2-2.1-2.9l-0.9-1.6     C8.2,77.2,7.8,76.7,7.7,76.2z"/><path d="M4.9,63.8l-4.6-0.2c0,0.7,0,1.4,0,2.1l0,1.1l0.1,1.1c0.1,0.7,0.2,1.4,0.3,2.1l0.5,2l4.5-1.1l-0.4-1.7     c-0.1-0.6-0.2-1.2-0.2-1.8l-0.1-0.9v-0.9C4.9,65,4.8,64.4,4.9,63.8z"/><path d="M8.8,51.9L5,49.3c-0.8,1.1-1.5,2.4-2.1,3.7c-0.6,1.3-1.1,2.6-1.5,4l4.4,1.3C6.1,57.1,6.6,56,7,54.9     C7.6,53.9,8.1,52.8,8.8,51.9z"/></g></g><ellipse transform="matrix(0.3034 -0.9529 0.9529 0.3034 -9.2491 83.8499)" cx="52.7" cy="48.3" rx="6.1" ry="6.8"/><ellipse transform="matrix(0.3911 -0.9204 0.9204 0.3911 -71.9955 70.2113)" cx="17.1" cy="89.5" rx="5.2" ry="5.7"/></g>
</svg>