<svg xmlns="http://www.w3.org/2000/svg" data-name="Layer 1" viewBox="25 20 55 55" x="0px" y="0px"><path d="m26.15,52.24c-1.479,0-2.819.6-3.788,1.569s-1.569,2.309-1.569,3.788.6,2.818,1.569,3.788c.969.969,2.308,1.569,3.788,1.569s2.818-.6,3.788-1.569c.969-.969,1.569-2.309,1.569-3.788s-.6-2.818-1.569-3.788c-.969-.969-2.308-1.569-3.788-1.569Zm2.615,7.972c-.669.669-1.594,1.083-2.615,1.083s-1.946-.414-2.615-1.083-1.083-1.594-1.083-2.615.414-1.946,1.083-2.615c.669-.669,1.594-1.083,2.615-1.083s1.946.414,2.615,1.083,1.083,1.594,1.083,2.615-.414,1.946-1.083,2.615Zm-.572-4.657c.523.523.846,1.245.846,2.042s-.323,1.52-.846,2.043-1.245.846-2.042.846-1.52-.323-2.042-.846c-.523-.523-.846-1.245-.846-2.043s.323-1.52.846-2.042c.523-.523,1.245-.846,2.042-.846s1.52.323,2.042.846Zm50.27.14c.523.523.846,1.245.846,2.043s-.323,1.52-.846,2.042c-.523.523-1.245.846-2.042.846s-1.52-.323-2.043-.846c-.523-.523-.846-1.245-.846-2.042s.323-1.52.846-2.043c.523-.523,1.245-.846,2.043-.846s1.52.323,2.042.846Zm-2.042-3.314c-1.479,0-2.818.6-3.788,1.569-.969.969-1.569,2.309-1.569,3.788s.6,2.818,1.569,3.788c.969.969,2.309,1.569,3.788,1.569s2.818-.6,3.788-1.569c.969-.969,1.569-2.309,1.569-3.788s-.6-2.819-1.569-3.788c-.969-.969-2.308-1.569-3.788-1.569Zm2.615,7.971c-.669.669-1.594,1.083-2.615,1.083s-1.946-.414-2.615-1.083-1.083-1.594-1.083-2.615.414-1.946,1.083-2.615,1.594-1.083,2.615-1.083,1.946.414,2.615,1.083,1.083,1.594,1.083,2.615-.414,1.946-1.083,2.615Zm9.886-10.742c-.006-.013-.022-.016-.03-.028-.083-.183-.179-.358-.296-.517-.341-.464-.825-.812-1.418-.962-3.009-.759-5.977-1.374-8.936-1.822-2.962-.449-5.907-.731-8.865-.825-.293-.009-.581-.026-.865-.089-.309-.069-.601-.189-.866-.406-1.931-1.575-4.102-2.975-6.319-4.144-2.36-1.245-4.767-2.226-6.99-2.876l-.161-.047c-.127-.037-.178-.053-.207-.058l-.053-.005c-.059-.005-.153-.012-.391-.044-5.35-.712-10.52-1-15.472-.832-4.825.164-9.444.763-13.82,1.827-.431.105-.701.268-1.065.489l-.191.116-7.764,4.637c-.341.204-.696.408-1.024.596-1.306.75-2.176,1.25-2.475,2.003-.142.358-.268.714-.379,1.069h.001c-.56,1.397-.773,2.962-.593,4.467h-.02c.002.057.004.115.007.173.087,1.791.538,3.551,1.282,5.286l7.992.474c-.013-.163-.02-.328-.02-.494,0-1.703.69-3.244,1.806-4.36,1.116-1.116,2.657-1.806,4.36-1.806s3.244.69,4.36,1.806c1.116,1.116,1.806,2.657,1.806,4.36,0,.474-.054.936-.155,1.379l38.228.052c-.089-.416-.135-.848-.135-1.291,0-1.703.69-3.244,1.806-4.36,1.116-1.116,2.658-1.806,4.36-1.806s3.244.69,4.36,1.806c1.116,1.116,1.806,2.657,1.806,4.36,0,.44-.046.868-.134,1.282l5.09-.556c.725-.079,1.149-.349,1.383-.771.259-.465.325-1.136.314-1.951l-.026-1.899c-.003-.381.024-.764.052-1.134.074-.983.15-2-.346-3.099Zm-73.34,2.788c-.057.023-.115.032-.172.028l-4.183-.239c-.196-1.503.023-3.079.608-4.462l2.112.135c.166.01.303.12.355.268l1.504,3.745c.083.207-.018.442-.224.525Zm17.632-3.61h-3.175c-.224,0-.405-.181-.405-.405s.181-.405.405-.405h3.175c.224,0,.405.181.405.405s-.181.405-.405.405Zm11.843-3.202l-21.331-.659c-.092.003-.186-.025-.264-.086-.175-.138-.206-.392-.068-.568,4.077-5.186,12.066-5.262,17.452-5.313.657-.006,1.274-.012,1.846-.027.171-.013.338.085.406.252l2.345,5.847c.02.05.03.104.028.161-.006.223-.192.398-.414.392Zm8.693,3.896h-3.175c-.224,0-.405-.181-.405-.405s.181-.405.405-.405h3.175c.224,0,.405.181.405.405s-.181.405-.405.405Zm10.004-3.587c-.08.112-.207.17-.335.168l-14.716-.333c-.161-.003-.299-.101-.36-.239l-2.567-5.736c-.091-.204,0-.442.204-.533.061-.027.124-.038.187-.035,3.226.185,6.299.786,9.216,1.809,2.917,1.023,5.678,2.467,8.281,4.335.181.13.222.382.092.563Zm21.6,6.821c-.133-.025-.25-.116-.302-.251l-1.009-2.615c-.025-.064-.033-.135-.022-.207.034-.22.24-.371.46-.337l4.047.63c.383.938.33,1.814.261,2.736-.017.221-.02.455-.031.684l-3.404-.64Z"/></svg>