<svg xmlns="http://www.w3.org/2000/svg" xmlns:xlink="http://www.w3.org/1999/xlink" viewBox="0 0 120 120">
  <!-- Rounded square background -->
  <rect x="10" y="10" width="100" height="100" rx="10" ry="10" fill="#FEBE10" stroke="blue" stroke-width="2"/>

  <!-- Original SVG content -->
  <g transform="translate(10, 10) scale(1,1)">
    <path d="M29.17,49.38a1.39,1.39,0,0,1-1.38-1.24c-1-9.54,3-13.85,6.84-18,2.48-2.66,5-5.42,6.37-9.71a13.9,13.9,0,0,0,.16-7,1.39,1.39,0,0,1,1.11-1.62,1.38,1.38,0,0,1,1.62,1.1,16.77,16.77,0,0,1-.24,8.3c-1.51,4.89-4.3,7.89-7,10.78-3.76,4.05-7,7.55-6.11,15.83a1.38,1.38,0,0,1-1.22,1.53Z"/>
    <path d="M21.31,47a1.39,1.39,0,0,1-1.38-1.24c-.93-8.46,2.62-12.28,6.05-16,2.27-2.44,4.41-4.74,5.56-8.47A10,10,0,0,0,32,18.2a1.38,1.38,0,0,1,1.39-1.38h0a1.39,1.39,0,0,1,1.39,1.39,13.48,13.48,0,0,1-.58,3.87c-1.34,4.34-3.92,7.1-6.18,9.54-3.29,3.54-6.12,6.59-5.33,13.78a1.4,1.4,0,0,1-1.23,1.54Z"/>
    <path d="M85.31,71.86,19.22,51.4a1.4,1.4,0,0,0-1.06.1,1.42,1.42,0,0,0-.68.82L14.2,62.92a1.39,1.39,0,0,0,.92,1.73L81.21,85.1a1.18,1.18,0,0,0,.41.07,1.45,1.45,0,0,0,.65-.16,1.41,1.41,0,0,0,.68-.82l3.28-10.6A1.39,1.39,0,0,0,85.31,71.86Zm-63.53-8,2.46-8,2,.62-2.46,7.94Zm7.1-6.51L65,68.46,62.49,76.4,26.42,65.24Zm-9.16-2.83,1.86.57-2.45,8-1.86-.58Z"/>
  </g>
</svg>
