<svg xmlns="http://www.w3.org/2000/svg" xmlns:xlink="http://www.w3.org/1999/xlink" version="1.1" x="0px" y="0px" viewBox="10 10 85 85" enable-background="new 0 0 100 100" xml:space="preserve"><g><path d="M44.309,46.262c0.301-0.373,0.6-0.752,0.895-1.17c0.637-0.901,0.423-2.149-0.479-2.787   c-0.902-0.639-2.151-0.422-2.788,0.48c-0.586,0.829-1.17,1.533-1.784,2.148c-3.046,3.045-7.096,4.723-11.403,4.723   c-4.309,0-8.358-1.678-11.403-4.723c-0.613-0.613-1.197-1.316-1.785-2.148c-0.637-0.902-1.885-1.119-2.788-0.48   c-0.902,0.638-1.116,1.886-0.479,2.787c0.296,0.419,0.595,0.798,0.896,1.17l-1.788,1.787c-0.781,0.781-0.781,2.048,0,2.829   c0.391,0.391,0.902,0.586,1.414,0.586s1.023-0.195,1.414-0.585L16,49.107c1.012,0.831,2.095,1.555,3.232,2.166l-0.957,2.309   c-0.423,1.021,0.062,2.19,1.082,2.613c0.251,0.104,0.51,0.152,0.765,0.152c0.785,0,1.529-0.465,1.849-1.234l0.957-2.309   c1.237,0.371,2.515,0.626,3.819,0.754v2.504c0,1.104,0.896,2,2,2s2-0.896,2-2v-2.504c1.305-0.127,2.581-0.383,3.818-0.754   l0.956,2.309c0.319,0.77,1.063,1.234,1.849,1.234c0.255,0,0.515-0.049,0.765-0.152c1.021-0.423,1.505-1.593,1.082-2.613   l-0.956-2.307c1.139-0.613,2.223-1.336,3.235-2.168l1.771,1.771c0.391,0.391,0.902,0.586,1.414,0.586s1.023-0.195,1.414-0.586   c0.781-0.78,0.781-2.048,0-2.828L44.309,46.262z"/><path d="M88.601,48.049l-1.788-1.787c0.302-0.372,0.601-0.752,0.896-1.17c0.637-0.901,0.423-2.149-0.479-2.787   c-0.902-0.639-2.151-0.422-2.788,0.48c-0.586,0.83-1.171,1.533-1.785,2.148c-3.045,3.045-7.095,4.723-11.403,4.723   c-4.308,0-8.357-1.678-11.402-4.722c-0.613-0.614-1.197-1.317-1.785-2.149c-0.637-0.902-1.885-1.119-2.788-0.48   c-0.902,0.638-1.116,1.886-0.479,2.787c0.296,0.419,0.595,0.798,0.895,1.17l-1.787,1.788c-0.781,0.78-0.781,2.048,0,2.828   c0.391,0.391,0.902,0.586,1.414,0.586s1.023-0.195,1.414-0.586l1.771-1.771c1.013,0.832,2.096,1.555,3.233,2.166l-0.956,2.309   c-0.423,1.021,0.062,2.19,1.082,2.613c0.251,0.104,0.51,0.152,0.765,0.152c0.785,0,1.529-0.465,1.849-1.234l0.957-2.309   c1.236,0.371,2.514,0.626,3.818,0.754v2.504c0,1.104,0.896,2,2,2s2-0.896,2-2v-2.504c1.305-0.127,2.581-0.383,3.818-0.754   l0.956,2.309c0.319,0.77,1.063,1.234,1.849,1.234c0.255,0,0.515-0.049,0.765-0.152c1.021-0.423,1.505-1.593,1.082-2.613   l-0.956-2.308c1.138-0.612,2.222-1.335,3.234-2.167l1.772,1.771c0.391,0.39,0.902,0.585,1.414,0.585s1.023-0.195,1.414-0.586   C89.382,50.097,89.382,48.83,88.601,48.049z"/></g></svg>