<svg width="42" height="42" viewBox="0 0 42 42" fill="none" xmlns="http://www.w3.org/2000/svg">
<circle cx="21" cy="21" r="20" fill="#195583" stroke="#FD0101" stroke-width="2"/>
<path d="M20.1769 25.3672C19.7216 25.3672 19.3512 25.7376 19.3512 26.1929V26.7716C19.3512 27.2269 19.7216 27.5973 20.1769 27.5973C20.6322 27.5973 21.0026 27.2269 21.0026 26.7716V26.1929C21.0026 25.7376 20.6322 25.3672 20.1769 25.3672Z" fill="white"/>
<path d="M20.1996 10.6006C17.2081 10.6006 14.3956 11.7656 12.2803 13.8809C10.165 15.9962 9 18.8087 9 21.8002C9 24.7917 10.165 27.6042 12.2803 29.7195C14.3956 31.8349 17.2081 32.9999 20.1996 32.9999C23.1911 32.9999 26.0036 31.8349 28.119 29.7196C30.2343 27.6043 31.3992 24.7918 31.3992 21.8002C31.3992 18.8087 30.2342 15.9963 28.1189 13.8809C26.0036 11.7656 23.1912 10.6006 20.1996 10.6006ZM14.1255 20.4554H15.5317C15.5317 21.0776 16.038 21.5838 16.6601 21.5838C17.2823 21.5838 17.7885 21.0776 17.7885 20.4554H19.1947C19.1947 21.853 18.0577 22.99 16.6601 22.99C15.2625 22.99 14.1255 21.853 14.1255 20.4554ZM22.4089 26.7713C22.4089 28.002 21.4077 29.0033 20.1769 29.0033C18.9462 29.0033 17.945 28.002 17.945 26.7713V26.1927C17.945 24.962 18.9462 23.9607 20.1769 23.9607C21.4076 23.9607 22.4089 24.962 22.4089 26.1927V26.7713ZM23.7391 22.99C22.3416 22.99 21.2045 21.853 21.2045 20.4554H22.6108C22.6108 21.0776 23.117 21.5838 23.7391 21.5838C24.3613 21.5838 24.8675 21.0776 24.8675 20.4554H26.2738C26.2737 21.853 25.1367 22.99 23.7391 22.99ZM26.3061 15.6343L24.7169 17.2902H26.3061V18.6964H22.8143V17.2417L24.4035 15.5858H22.9013V14.1796H26.3061V15.6343Z" fill="white"/>
<path d="M33 9H29.5953V10.4062H31.0974L29.5082 12.0621V13.5168H33V12.1106H31.4108L33 10.4547V9Z" fill="white"/>
</svg>
