<svg width="60" height="59" viewBox="0 0 60 59" fill="none" xmlns="http://www.w3.org/2000/svg">
<g filter="url(#filter0_d_16_1443)">
<rect x="6" y="6" width="47.7976" height="47.06" rx="4" fill="#55C9BE"/>
<rect x="6" y="6" width="47.7976" height="47.06" rx="4" stroke="#55C9BE"/>
</g>
<path fill-rule="evenodd" clip-rule="evenodd" d="M27.1686 26.3034C27.8064 26.1333 28.4854 26.2215 29.0585 26.5489C29.6316 26.8763 30.0524 27.4166 30.2296 28.0524C30.3819 28.564 30.5112 29.1066 30.6497 29.6249V15.2484C30.6476 14.9177 30.5151 14.6011 30.2811 14.3673C30.047 14.1336 29.7302 14.0016 29.3995 14H19.2484C18.9177 14.0013 18.6009 14.1332 18.3671 14.3671C18.1332 14.6009 18.0013 14.9177 18 15.2484V35.3374C18.0013 35.6681 18.1332 35.9849 18.3671 36.2188C18.6009 36.4526 18.9177 36.5846 19.2484 36.5859H27.382C27.2725 36.2873 27.1875 35.9936 27.1111 35.7085L25.4099 29.3593C25.2416 28.7209 25.332 28.042 25.6613 27.4699C25.9905 26.8978 26.5322 26.4786 27.1686 26.3034ZM23.3965 35.1332C23.2754 35.1332 23.1594 35.0851 23.0738 34.9996C22.9882 34.914 22.9401 34.7979 22.9401 34.6769C22.9401 34.5558 22.9882 34.4397 23.0738 34.3542C23.1594 34.2686 23.2754 34.2205 23.3965 34.2205H25.2514C25.3724 34.2205 25.4885 34.2686 25.5741 34.3542C25.6597 34.4397 25.7077 34.5558 25.7077 34.6769C25.7077 34.7979 25.6597 34.914 25.5741 34.9996C25.4885 35.0851 25.3724 35.1332 25.2514 35.1332H23.3965ZM27.4103 27.1824C27.8149 27.075 28.2456 27.1315 28.6088 27.3395C28.9721 27.5476 29.2386 27.8906 29.3506 28.2939L30.6639 33.2113C30.6926 33.3179 30.759 33.4104 30.8508 33.4716C30.9426 33.5329 31.0535 33.5588 31.1629 33.5444C31.2723 33.53 31.3728 33.4763 31.4456 33.3934C31.5184 33.3105 31.5587 33.204 31.5588 33.0936V25.332L35.9712 29.7443C36.3446 30.1256 36.5023 30.4651 36.4992 31.0034V35.6792C36.4972 35.9204 36.5436 36.1596 36.6356 36.3826C36.7277 36.6056 36.8636 36.8078 37.0352 36.9773L37.7436 37.6857L33.3909 42.0383L29.1957 37.8433C28.5312 37.1532 28.235 36.3811 27.9917 35.4731L26.2901 29.1238C26.1828 28.7179 26.2403 28.286 26.4501 27.9224C26.6599 27.5587 27.0049 27.2927 27.41 27.1824H27.4103ZM40.8852 39.1234L39.5176 37.7558C39.4438 37.6832 39.3444 37.6425 39.2408 37.6425C39.1372 37.6425 39.0378 37.6832 38.964 37.7558L33.4608 43.2589C33.4244 43.2952 33.3955 43.3384 33.3758 43.3859C33.3561 43.4334 33.346 43.4843 33.346 43.5357C33.346 43.5872 33.3561 43.6381 33.3758 43.6856C33.3955 43.7331 33.4244 43.7762 33.4608 43.8126L34.8283 45.1802C34.8647 45.2166 34.9078 45.2455 34.9553 45.2652C35.0028 45.2849 35.0538 45.295 35.1052 45.295C35.1566 45.295 35.2075 45.2849 35.2551 45.2652C35.3026 45.2455 35.3457 45.2166 35.382 45.1802L40.8852 39.6771C40.9216 39.6407 40.9505 39.5976 40.9702 39.5501C40.9899 39.5026 41 39.4516 41 39.4002C41 39.3488 40.9899 39.2979 40.9702 39.2503C40.9505 39.2028 40.9216 39.1597 40.8852 39.1234Z" fill="white"/>
<defs>
<filter id="filter0_d_16_1443" x="0.5" y="0.5" width="58.7976" height="58.0596" filterUnits="userSpaceOnUse" color-interpolation-filters="sRGB">
<feFlood flood-opacity="0" result="BackgroundImageFix"/>
<feColorMatrix in="SourceAlpha" type="matrix" values="0 0 0 0 0 0 0 0 0 0 0 0 0 0 0 0 0 0 127 0" result="hardAlpha"/>
<feMorphology radius="1" operator="dilate" in="SourceAlpha" result="effect1_dropShadow_16_1443"/>
<feOffset/>
<feGaussianBlur stdDeviation="2"/>
<feComposite in2="hardAlpha" operator="out"/>
<feColorMatrix type="matrix" values="0 0 0 0 0.720833 0 0 0 0 0.720833 0 0 0 0 0.720833 0 0 0 0.25 0"/>
<feBlend mode="normal" in2="BackgroundImageFix" result="effect1_dropShadow_16_1443"/>
<feBlend mode="normal" in="SourceGraphic" in2="effect1_dropShadow_16_1443" result="shape"/>
</filter>
</defs>
</svg>
