<svg width="71" height="71" viewBox="0 0 71 71" fill="none" xmlns="http://www.w3.org/2000/svg">
<rect x="1" y="1" width="68.3066" height="68.3066" rx="6.83067" fill="#0CAFFF" stroke="#0CAFFF" stroke-width="1.70767"/>
<path d="M51.6044 20.5449L43.2434 28.9059C44.2824 30.2959 44.9488 31.9285 45.179 33.6486C45.3443 33.6013 45.5147 33.5739 45.6864 33.5669H56.7044C56.8038 33.576 56.9024 33.5919 56.9997 33.6145C56.6948 28.7815 54.7976 24.1856 51.6044 20.5449Z" fill="white"/>
<path d="M13 35.0358C13.0047 40.6301 15.1378 46.013 18.9662 50.0922C22.7946 54.1713 28.0317 56.6409 33.6144 57C33.5918 56.9027 33.5759 56.8039 33.5668 56.7044V45.6865C33.5739 45.5147 33.6014 45.3444 33.6485 45.1791C32.0912 44.9753 30.6016 44.4166 29.2944 43.546C27.9872 42.6755 26.8974 41.5164 26.109 40.1582C25.3206 38.7999 24.8546 37.2787 24.747 35.7119C24.6394 34.145 24.8931 32.5744 25.4884 31.1211C26.0838 29.6678 27.0049 28.3706 28.1808 27.3296C29.3567 26.2886 30.756 25.5315 32.2708 25.1167C33.7855 24.7019 35.3753 24.6405 36.9175 24.9373C38.4598 25.234 39.9133 25.881 41.1659 26.8282L49.5269 18.4672C46.3452 15.6748 42.4256 13.8592 38.238 13.2382C34.0505 12.6171 29.7727 13.2169 25.9174 14.9656C22.0621 16.7144 18.793 19.5379 16.5019 23.0977C14.2107 26.6575 12.9949 30.8025 13 35.0358Z" fill="white"/>
<path d="M56.7045 36.5045H45.6866C45.5148 36.4976 45.3445 36.4701 45.1792 36.4229C44.8758 38.638 43.8558 40.6931 42.2748 42.2741C40.6938 43.8551 38.6388 44.8751 36.4236 45.1784C36.4706 45.3439 36.4979 45.5143 36.505 45.6861V56.7041C36.4959 56.8036 36.48 56.9023 36.4574 56.9996C41.792 56.6538 46.8186 54.3784 50.5986 50.5983C54.3787 46.8182 56.654 41.7916 56.9998 36.4569C56.9026 36.4796 56.8039 36.4955 56.7045 36.5045Z" fill="white"/>
</svg>
