<svg width="67" height="67" viewBox="0 0 67 67" fill="none" xmlns="http://www.w3.org/2000/svg">
<circle cx="33.5" cy="33.5" r="32.5" fill="#55C9BE" stroke="#55C9BE" stroke-width="2"/>
<path d="M48.337 23.4261H44.2674L42.0207 20.0348C41.1728 18.763 39.6891 18 38.163 18H28.837C27.3109 18 25.8272 18.763 24.9793 20.0348L22.7326 23.4261H18.663C16.0772 23.4261 14 25.5033 14 28.0891V44.537C14 47.1228 16.0772 49.2 18.663 49.2H48.337C50.9228 49.2 53 47.1228 53 44.537V28.0891C53 25.5033 50.9228 23.4261 48.337 23.4261ZM33.5 45.3848C27.6924 45.3848 22.987 40.6793 22.987 34.8717C22.987 29.0641 27.6924 24.4011 33.5 24.4011C39.3076 24.4011 44.013 29.1065 44.013 34.9141C44.013 40.6793 39.3076 45.3848 33.5 45.3848ZM47.7435 29.9967C47.7011 29.9967 47.6587 29.9967 47.5739 29.9967H45.8783C45.1152 29.9543 44.5217 29.3185 44.5641 28.5554C44.6065 27.8348 45.1576 27.2837 45.8783 27.2413H47.5739C48.337 27.1989 48.9728 27.7924 49.0152 28.5554C49.0576 29.3185 48.5065 29.9543 47.7435 29.9967Z" fill="white"/>
<path d="M33.4999 29.0645C30.2782 29.0645 27.6499 31.6927 27.6499 34.9145C27.6499 38.1362 30.2782 40.7221 33.4999 40.7221C36.7216 40.7221 39.3499 38.0938 39.3499 34.8721C39.3499 31.6503 36.7216 29.0645 33.4999 29.0645Z" fill="white"/>
</svg>
