<svg width="60" height="59" viewBox="0 0 60 59" fill="none" xmlns="http://www.w3.org/2000/svg">
<g filter="url(#filter0_d_16_1446)">
<rect x="6" y="6" width="47.7976" height="47.06" rx="4" fill="#55C9BE"/>
<rect x="6" y="6" width="47.7976" height="47.06" rx="4" stroke="#55C9BE"/>
</g>
<path d="M35.8472 35.3139C35.599 34.9886 35.2908 34.7139 34.9396 34.5049C34.9421 34.5428 34.9507 34.5791 34.9507 34.6173C34.9521 35.1289 34.7495 35.62 34.3876 35.9809L33.7598 36.6115C34.5301 36.3135 35.2382 35.8736 35.8472 35.3139Z" fill="#55C9BE"/>
<path d="M20.1076 41.4487C22.1727 43.5167 25.5162 43.5167 27.5813 41.4487L33.7084 35.2988C34.0834 34.9222 34.0834 34.3118 33.7084 33.9352C33.3281 33.5708 32.7298 33.5708 32.3497 33.9352L27.5813 38.721C27.3928 38.9037 27.093 38.9012 26.9077 38.7152C26.7224 38.5292 26.7199 38.2282 26.9018 38.0391L32.8729 32.0465L33.325 31.5927C33.5897 31.3472 33.6904 30.9706 33.5835 30.625C33.4746 30.2872 33.1988 30.0301 32.8551 29.9464C32.5463 29.8768 32.2235 29.9707 31.9998 30.1953L25.8825 36.3345C25.7617 36.4599 25.5833 36.5102 25.4153 36.466C25.2473 36.422 25.1161 36.2903 25.072 36.1217C25.0281 35.9531 25.0783 35.7738 25.203 35.6528L31.3172 29.5163L31.6329 29.1991H31.6356L31.997 28.8365C32.2294 28.6025 32.3261 28.2653 32.2536 27.943C32.2262 27.8245 32.1776 27.7119 32.1095 27.6113C32.1001 27.5985 32.0913 27.5855 32.0835 27.5716C31.958 27.4091 31.7879 27.2873 31.5938 27.2212C31.2495 27.1132 30.8738 27.2145 30.6296 27.481L30.177 27.9348C30.1344 27.9759 30.0843 28.0086 30.0295 28.0313C29.9621 28.1311 29.8854 28.2244 29.8003 28.31L23.5048 34.6295C23.3162 34.8123 23.0166 34.8096 22.8312 34.6236C22.6459 34.4376 22.6434 34.1369 22.8254 33.9478L29.1219 27.6272C29.4972 27.2506 29.4972 26.6402 29.1219 26.2636C28.7419 25.8991 28.1435 25.8991 27.7633 26.2636L20.7634 33.2891C20.5758 33.4776 20.2714 33.4779 20.0836 33.2896C19.8957 33.1012 19.8955 32.7957 20.083 32.6072L22.3622 30.3207C22.5222 30.0517 22.633 29.756 22.6894 29.448C22.8716 28.1726 21.9429 27.8814 21.7544 27.8361C21.525 27.7876 21.2935 27.9088 21.2016 28.1252C20.3025 30.0313 17.3652 32.9901 17.2402 33.1174C15.9747 34.3875 14.9251 36.2517 18.0686 39.4046L20.1076 41.4487Z" fill="#E9F7F7"/>
<path d="M33.6748 32.6054L33.5532 32.7268L33.5221 32.7587C33.8489 32.8432 34.1472 33.0132 34.3869 33.2519C34.4128 33.2781 34.431 33.3083 34.455 33.3353C35.2669 33.4775 35.9952 33.9227 36.4935 34.5813C36.9653 33.9497 37.2248 33.1839 37.2344 32.3946C37.2344 30.4774 35.6235 28.7512 33.2271 27.9902C33.2591 28.3383 33.1956 28.6885 33.0435 29.0028L33.0612 29.0066C33.7277 29.1582 34.2674 29.6468 34.4857 30.2967C34.7205 30.9943 34.5336 31.7653 34.0054 32.2764L33.6748 32.6054Z" fill="#55C9BE"/>
<path d="M43.0003 28.5369C43.0003 21.6129 37.4077 16 30.509 16C23.61 16 18.0176 21.6129 18.0176 28.5369C18.0176 28.8527 18.0332 29.1685 18.0569 29.4829C18.0635 29.573 18.0732 29.6628 18.0819 29.7525C18.1049 29.9909 18.1348 30.2281 18.1711 30.4638C18.1814 30.5284 18.1904 30.5934 18.2014 30.6565C19.0257 29.7636 19.7411 28.7751 20.3323 27.7124C20.6161 27.0815 21.3047 26.7401 21.9764 26.8973C22.9573 27.1272 23.6556 27.9986 23.669 29.0094L27.0844 25.5815C27.8445 24.8524 29.0416 24.8524 29.8017 25.5815C30.0558 25.8369 30.2327 26.1594 30.3119 26.5117C30.7895 26.1984 31.3848 26.1242 31.9243 26.3106C32.2408 26.4232 32.5247 26.6128 32.7506 26.8623C35.9648 27.5912 38.196 29.8423 38.196 32.3944C38.1795 33.6258 37.6937 34.804 36.8387 35.6873C35.6342 36.9196 34.0685 37.7324 32.3705 38.0071L29.3703 41.0185C29.7489 41.0531 30.1293 41.0739 30.5098 41.0739C37.4052 41.0657 42.9926 35.4572 43.0003 28.5369ZM28.4911 21.5967C28.3806 21.7441 28.195 21.8142 28.0149 21.7766C26.8107 21.4984 25.5462 21.807 24.6039 22.6093C24.4153 22.792 24.1157 22.7894 23.9303 22.6035C23.745 22.4175 23.7425 22.1168 23.9245 21.9274C24.7617 21.1777 25.8373 20.7516 26.959 20.7254C26.3412 20.2943 25.5686 20.1502 24.8377 20.33C24.5803 20.3769 24.3329 20.2083 24.2811 19.951C24.2293 19.6937 24.3923 19.4419 24.6476 19.3849C26.1789 19.0093 27.7715 19.7065 28.5392 21.0884C28.6211 21.2532 28.6025 21.4503 28.4911 21.5967ZM37.0968 22.6093C36.9091 22.7968 36.6058 22.7968 36.4184 22.6093C35.4776 21.8037 34.2116 21.4942 33.0071 21.7756C32.8273 21.8129 32.6417 21.7431 32.531 21.5957C32.4196 21.4495 32.401 21.2522 32.4829 21.0876C33.2495 19.707 34.8405 19.0101 36.3703 19.3849C36.5435 19.4134 36.6875 19.5346 36.7456 19.7009C36.8038 19.8672 36.7669 20.0521 36.6494 20.1832C36.532 20.3142 36.3528 20.3704 36.1819 20.33C35.451 20.1507 34.6788 20.2947 34.0608 20.7254C35.1827 20.7512 36.259 21.1773 37.0961 21.9274C37.2833 22.1163 37.2823 22.4214 37.0943 22.6093H37.0968Z" fill="white"/>
<defs>
<filter id="filter0_d_16_1446" x="0.5" y="0.5" width="58.7974" height="58.0596" filterUnits="userSpaceOnUse" color-interpolation-filters="sRGB">
<feFlood flood-opacity="0" result="BackgroundImageFix"/>
<feColorMatrix in="SourceAlpha" type="matrix" values="0 0 0 0 0 0 0 0 0 0 0 0 0 0 0 0 0 0 127 0" result="hardAlpha"/>
<feMorphology radius="1" operator="dilate" in="SourceAlpha" result="effect1_dropShadow_16_1446"/>
<feOffset/>
<feGaussianBlur stdDeviation="2"/>
<feComposite in2="hardAlpha" operator="out"/>
<feColorMatrix type="matrix" values="0 0 0 0 0.720833 0 0 0 0 0.720833 0 0 0 0 0.720833 0 0 0 0.25 0"/>
<feBlend mode="normal" in2="BackgroundImageFix" result="effect1_dropShadow_16_1446"/>
<feBlend mode="normal" in="SourceGraphic" in2="effect1_dropShadow_16_1446" result="shape"/>
</filter>
</defs>
</svg>
