<svg width="71" height="71" viewBox="0 0 71 71" fill="none" xmlns="http://www.w3.org/2000/svg">
<rect x="1" y="1" width="68.3066" height="68.3066" rx="6.83067" fill="#F79044" stroke="#F79044" stroke-width="1.70767"/>
<path fill-rule="evenodd" clip-rule="evenodd" d="M24.9688 31.5114L20.5109 31.2815C20.4065 31.2759 20.3064 31.2379 20.2246 31.1727C20.1429 31.1076 20.0836 31.0185 20.0549 30.9179C20.0263 30.8174 20.0298 30.7104 20.0649 30.6119C20.1 30.5134 20.165 30.4284 20.2508 30.3686L28.3449 24.7567C28.423 24.7027 28.5148 24.6719 28.6097 24.668C28.7046 24.6641 28.7987 24.6873 28.881 24.7348C28.9632 24.7824 29.0302 24.8523 29.0743 24.9365C29.1183 25.0206 29.1375 25.1156 29.1297 25.2102L28.3171 35.0259C28.3083 35.1301 28.2672 35.229 28.1995 35.3088C28.1318 35.3885 28.0409 35.4451 27.9395 35.4707C27.8996 35.4806 27.8586 35.4857 27.8174 35.4858C27.7339 35.4857 27.6516 35.4647 27.5782 35.4248C27.5048 35.3849 27.4425 35.3272 27.397 35.2571L24.9688 31.5114ZM12.9169 38.7856C13.1681 38.6176 13.4634 38.528 13.7655 38.5279C14.1706 38.5282 14.559 38.6892 14.8455 38.9755C15.132 39.2619 15.2932 39.6502 15.2938 40.0553C15.2938 40.3575 15.2043 40.6528 15.0364 40.9041C14.8686 41.1554 14.6301 41.3512 14.351 41.4669C14.0718 41.5826 13.7647 41.6129 13.4683 41.554C13.172 41.4951 12.8997 41.3497 12.686 41.1361C12.4723 40.9225 12.3268 40.6503 12.2677 40.354C12.2087 40.0577 12.2389 39.7505 12.3544 39.4714C12.47 39.1922 12.6657 38.9535 12.9169 38.7856ZM16.6497 37.885C16.6236 37.8239 16.5856 37.7686 16.538 37.7223H16.5378C15.8025 36.9871 14.8053 36.5741 13.7656 36.5741C12.7259 36.5741 11.7287 36.9871 10.9934 37.7223C10.8995 37.8163 10.8467 37.9438 10.8468 38.0767C10.8468 38.2097 10.8997 38.3371 10.9937 38.4311C11.0878 38.5251 11.2153 38.5778 11.3482 38.5778C11.4811 38.5777 11.6086 38.5249 11.7026 38.4308C12.2498 37.8837 12.992 37.5763 13.7658 37.5763C14.5397 37.5763 15.2819 37.8837 15.8291 38.4308C15.8754 38.4785 15.9307 38.5165 15.9918 38.5426C16.0529 38.5687 16.1185 38.5824 16.185 38.5829C16.2514 38.5834 16.3173 38.5707 16.3787 38.5455C16.4402 38.5203 16.4961 38.4832 16.5431 38.4362C16.59 38.3892 16.6272 38.3334 16.6524 38.2719C16.6776 38.2105 16.6904 38.1446 16.6899 38.0782C16.6894 38.0117 16.6758 37.9461 16.6497 37.885ZM13.7655 34.6231C15.3229 34.6231 16.8166 35.2409 17.9191 36.3408C17.9673 36.387 18.0058 36.4423 18.0323 36.5035C18.0589 36.5648 18.0729 36.6307 18.0736 36.6974C18.0744 36.7642 18.0617 36.8304 18.0365 36.8922C18.0113 36.954 17.974 37.0101 17.9268 37.0573C17.8796 37.1045 17.8235 37.1418 17.7617 37.167C17.6999 37.1921 17.6337 37.2047 17.567 37.204C17.5002 37.2033 17.4343 37.1892 17.3731 37.1627C17.3119 37.1361 17.2565 37.0976 17.2104 37.0494C16.296 36.1371 15.0571 35.6248 13.7655 35.6248C12.4738 35.6248 11.2349 36.1371 10.3205 37.0494C10.2745 37.0979 10.2192 37.1367 10.1579 37.1634C10.0966 37.1902 10.0305 37.2045 9.96362 37.2053C9.89673 37.2062 9.83034 37.1936 9.76838 37.1684C9.70641 37.1432 9.65012 37.1059 9.60282 37.0586C9.55551 37.0113 9.51816 36.955 9.49296 36.893C9.46775 36.831 9.45521 36.7647 9.45606 36.6978C9.45692 36.6309 9.47116 36.5648 9.49794 36.5035C9.52472 36.4422 9.56351 36.3869 9.61201 36.3408C10.7144 35.2409 12.2082 34.6231 13.7655 34.6231ZM18.9462 35.8147C19.079 35.8147 19.2065 35.7619 19.3004 35.668H19.3004C19.347 35.6215 19.3839 35.5662 19.4091 35.5053C19.4344 35.4445 19.4473 35.3793 19.4473 35.3134C19.4473 35.2476 19.4344 35.1824 19.4091 35.1215C19.3839 35.0607 19.347 35.0054 19.3004 34.9589C17.8323 33.4912 15.8414 32.6667 13.7655 32.6667C11.6896 32.6667 9.69864 33.4912 8.23056 34.9589C8.184 35.0054 8.14706 35.0607 8.12185 35.1215C8.09664 35.1823 8.08365 35.2474 8.08362 35.3132C8.0836 35.3791 8.09653 35.4442 8.1217 35.5051C8.14686 35.5659 8.18376 35.6212 8.23028 35.6677C8.27681 35.7143 8.33205 35.7512 8.39285 35.7764C8.45365 35.8016 8.51882 35.8146 8.58464 35.8147C8.65046 35.8147 8.71564 35.8017 8.77646 35.7766C8.83728 35.7514 8.89255 35.7145 8.93911 35.668C10.2192 34.388 11.9553 33.6689 13.7655 33.6689C15.5757 33.6689 17.3118 34.388 18.5919 35.668C18.6859 35.7619 18.8133 35.8147 18.9462 35.8147ZM30.7004 44.6435C32.3973 44.8348 33.8813 45.1202 35.058 45.4856C36.895 46.055 37.8266 46.7874 37.8266 47.6606C37.8266 48.6899 36.5442 49.5174 34.015 50.1201C31.7685 50.6552 28.7902 50.9502 25.6272 50.9502C22.4641 50.9502 19.4853 50.6553 17.2387 50.1202C14.7103 49.5175 13.4279 48.6899 13.4279 47.6606C13.4279 46.7874 14.3587 46.055 16.1962 45.4856C17.5575 45.0627 19.3309 44.747 21.3691 44.5602C20.7261 43.8535 20.0535 43.0623 19.3894 42.1991C18.4816 43.1556 17.345 43.865 16.087 44.2604C14.8289 44.6557 13.4909 44.724 12.1991 44.4586C10.9074 44.1933 9.70454 43.6032 8.70415 42.744C7.70377 41.8848 6.93883 40.7848 6.48154 39.548C6.02425 38.3111 5.88969 36.9781 6.09057 35.6747C6.29144 34.3714 6.82113 33.1408 7.62962 32.099C8.43812 31.0572 9.49875 30.2386 10.7114 29.7205C11.9241 29.2024 13.2488 29.0018 14.5605 29.1377C14.8035 26.3703 16.0747 23.7943 18.1232 21.9177C20.1717 20.0411 22.849 19.0001 25.6272 19C31.7523 19 36.7357 23.9837 36.7357 30.1088C36.7357 32.3421 36.1619 34.6946 35.0306 37.1008C34.4858 38.2596 33.8116 39.4327 33.0156 40.6082C38.8146 39.3355 44.3867 41.6835 44.6966 41.8177C44.7646 41.8479 44.8195 41.9016 44.851 41.969L45.1507 42.59C45.1857 42.663 45.201 42.7439 45.1951 42.8246C45.1891 42.9054 45.1621 42.9832 45.1167 43.0503C45.0806 43.1047 45.0333 43.1508 44.9778 43.1854C44.9224 43.22 44.8602 43.2423 44.7954 43.2507C44.6253 43.2633 44.4609 43.3179 44.3169 43.4095C44.173 43.5012 44.054 43.627 43.9706 43.7759C43.9138 43.9256 43.8999 44.0883 43.9304 44.2455C43.9385 44.2981 43.9327 44.352 43.9138 44.4018C43.8948 44.4516 43.8633 44.4956 43.8223 44.5297C43.7822 44.5675 43.7322 44.5931 43.6781 44.6035C43.624 44.6139 43.5681 44.6088 43.5168 44.5887C38.544 42.8842 33.9976 42.8616 30.7004 44.6435ZM28.492 46.0162C28.5314 46.0078 28.5705 45.9978 28.6092 45.9863C28.7996 45.9294 28.9768 45.8354 29.1306 45.7098C29.2069 45.6455 29.2841 45.5826 29.3624 45.521C31.4919 45.6945 33.3921 46.0177 34.761 46.4428C36.3933 46.9489 36.8241 47.4608 36.8241 47.6606C36.8241 47.9238 36.1882 48.5716 33.7827 49.1448C31.6099 49.6629 28.7136 49.9479 25.6272 49.9479C22.5407 49.9479 19.6438 49.6629 17.4709 49.1448C15.0652 48.5716 14.4302 47.9238 14.4302 47.6606C14.4302 47.4608 14.8613 46.9489 16.4931 46.4428C17.9377 45.9942 19.9733 45.6592 22.2454 45.4936C23.9238 47.2256 25.2271 48.2614 25.3159 48.3319L25.3163 48.3323C25.4048 48.4021 25.5142 48.4401 25.6268 48.4401C25.7395 48.4401 25.8489 48.4021 25.9374 48.3323C26.0065 48.2779 27.0605 47.4412 28.492 46.0162ZM10.0111 42.4759C11.1224 43.2185 12.429 43.6148 13.7655 43.6148C15.5572 43.6128 17.2749 42.9002 18.5418 41.6333C19.8087 40.3664 20.5214 38.6487 20.5234 36.857C20.5234 35.5205 20.1271 34.2139 19.3845 33.1026C18.6419 31.9913 17.5865 31.1252 16.3517 30.6137C15.1169 30.1022 13.7581 29.9684 12.4472 30.2291C11.1364 30.4899 9.93224 31.1335 8.98714 32.0785C8.04205 33.0236 7.39842 34.2278 7.13767 35.5386C6.87691 36.8495 7.01073 38.2083 7.5222 39.4431C8.03367 40.6779 8.89982 41.7334 10.0111 42.4759ZM18.04 30.1119C18.04 30.2033 18.0417 30.2953 18.045 30.3869C19.0626 31.0597 19.9073 31.963 20.5106 33.0234C21.1138 34.0838 21.4586 35.2714 21.5169 36.49C22.9338 37.4029 24.6145 37.8179 26.2935 37.6695C27.9725 37.521 29.5542 36.8175 30.7889 35.6701C32.0237 34.5227 32.8411 32.9967 33.112 31.3331C33.383 29.6694 33.0922 27.9629 32.2854 26.483C31.4786 25.003 30.2019 23.834 28.6568 23.1603C27.1117 22.4867 25.3862 22.3469 23.7528 22.763C22.1194 23.1791 20.6712 24.1274 19.6367 25.4581C18.6022 26.7889 18.0404 28.4263 18.04 30.1119ZM49.2408 41.2146C49.1857 41.1701 49.1475 41.1081 49.1327 41.0389L48.1071 36.3032C48.0911 36.2316 48.1014 36.1567 48.1359 36.0921C48.1705 36.0275 48.2271 35.9774 48.2955 35.951L49.145 35.6174L48.7095 33.1244C48.6887 33.0062 48.7028 32.8846 48.7499 32.7744C48.7971 32.6641 48.8754 32.57 48.9751 32.5034L50.3807 31.5674C50.4737 31.5054 50.5817 31.4697 50.6933 31.4642C50.805 31.4588 50.916 31.4837 51.0146 31.5363C51.1131 31.5889 51.1956 31.6673 51.2532 31.7631C51.3107 31.8589 51.3413 31.9685 51.3415 32.0802V36.0684C51.3417 36.1255 51.3259 36.1816 51.2959 36.2302C51.2659 36.2788 51.2228 36.318 51.1716 36.3433L50.2911 36.7851L49.7412 41.0142C49.7315 41.0885 49.6951 41.1567 49.6389 41.2061C49.5826 41.2555 49.5103 41.2829 49.4354 41.283C49.3646 41.2831 49.2959 41.259 49.2408 41.2146ZM51.7338 41.4934C51.8027 41.5162 51.8775 41.5138 51.9448 41.4867C52.0121 41.4595 52.0676 41.4093 52.1014 41.3451L54.4276 37.0264L55.5984 36.7978C55.6447 36.7882 55.6883 36.7682 55.7258 36.7393C55.7632 36.7104 55.7936 36.6733 55.8146 36.6309L57.9308 32.3709C57.9775 32.2767 57.9995 32.1722 57.9946 32.0671C57.9897 31.9621 57.9581 31.86 57.9027 31.7706C57.8473 31.6812 57.7701 31.6075 57.6782 31.5563C57.5863 31.5051 57.4829 31.4782 57.3778 31.4781H55.2716C55.1317 31.4776 54.9958 31.5247 54.8863 31.6118C54.7768 31.6988 54.7002 31.8206 54.6692 31.957L53.9803 34.9597H52.6303C52.5557 34.9593 52.4836 34.986 52.4273 35.0349C52.3711 35.0838 52.3345 35.1515 52.3244 35.2254L51.5243 41.1597C51.515 41.231 51.5307 41.3034 51.569 41.3643C51.6072 41.4252 51.6655 41.4708 51.7338 41.4934ZM64.9279 45.0707C64.8036 44.6924 64.5347 44.3787 64.1799 44.1981C63.825 44.0175 63.4131 43.9847 63.0342 44.1068C59.6377 45.0098 56.0529 44.9132 52.71 43.8288C52.6459 43.8072 52.5764 43.8072 52.5123 43.8288L52.0705 43.9802C51.9687 44.0136 51.8778 44.0741 51.8075 44.1551C51.7372 44.2361 51.6902 44.3346 51.6714 44.4402C51.6441 44.5716 51.664 44.7084 51.7276 44.8266L52.0551 45.4537L51.5886 46.226C51.5656 46.2665 51.5515 46.3114 51.5472 46.3578C51.543 46.4041 51.5487 46.4508 51.5639 46.4948C51.5804 46.5378 51.6061 46.5767 51.6392 46.6087C51.6723 46.6407 51.7119 46.6651 51.7554 46.6802C55.7078 48.1485 61.3728 47.8661 63.9671 46.9613C64.3442 46.8365 64.6566 46.5678 64.8366 46.2137C65.0165 45.8596 65.0493 45.4488 64.9279 45.0707ZM45.8025 42.8928C47.5235 43.4792 49.2809 43.9529 51.0635 44.3108C51.0121 44.584 51.0534 44.8666 51.1808 45.1137L51.3477 45.4318L51.0542 45.9168C51.0256 45.967 51.0018 46.0197 50.9831 46.0744C48.7894 45.6917 46.6355 45.1086 44.5483 44.3324C44.5539 44.2726 44.5518 44.2124 44.5421 44.1532C44.5291 44.1034 44.5302 44.051 44.5452 44.0018C44.6375 43.919 44.7551 43.87 44.8788 43.8628C45.029 43.8423 45.1731 43.7904 45.3019 43.7106C45.4307 43.6308 45.5413 43.5248 45.6264 43.3994C45.7293 43.2493 45.7901 43.0744 45.8025 42.8928ZM45.0086 37.8261L44.6564 38.4872C44.6249 38.5465 44.6136 38.6145 44.6242 38.6809C44.6348 38.7472 44.6667 38.8083 44.7151 38.8548L47.3966 41.422C47.4487 41.4722 47.5169 41.5026 47.5892 41.5077C47.6615 41.5127 47.7333 41.4922 47.792 41.4498C47.8502 41.4072 47.8919 41.3458 47.91 41.2759C47.928 41.2061 47.9212 41.1321 47.8908 41.0667L46.547 38.2185L46.9702 37.684C47.0094 37.6332 47.032 37.5714 47.0347 37.5073C47.0375 37.4431 47.0204 37.3797 46.9857 37.3257L45.3175 34.7091C45.2583 34.6162 45.1753 34.5408 45.0772 34.4908C44.9791 34.4407 44.8693 34.4178 44.7594 34.4244C44.6494 34.431 44.5432 34.4669 44.4518 34.5284C44.3603 34.5899 44.287 34.6746 44.2394 34.774L43.7173 35.8552C43.6631 35.967 43.6438 36.0925 43.662 36.2154C43.6802 36.3383 43.735 36.4528 43.8192 36.5441L45.0086 37.8261Z" fill="white"/>
</svg>
