<svg width="71" height="71" viewBox="0 0 71 71" fill="none" xmlns="http://www.w3.org/2000/svg">
<rect x="1" y="1" width="68.3066" height="68.3066" rx="6.83067" fill="#F79044" stroke="#F79044" stroke-width="1.70767"/>
<path d="M27.3468 21.6276V20.862C32.4278 20.0567 37.5727 20.0567 42.6537 20.862V21.6276C37.572 21.0633 32.4285 21.0633 27.3468 21.6276ZM25.5119 22.4744C25.2116 22.8335 25.2772 23.874 25.7583 24.487C26.017 24.8166 26.317 24.9279 26.6705 24.8258C26.4855 24.0549 26.3796 23.2677 26.3576 22.4875C26.0485 22.3452 25.6937 22.257 25.5119 22.4744ZM42.9811 19.9071L45.2186 17.7163C45.374 17.5641 45.44 17.3773 45.4145 17.1613C45.3891 16.9452 45.2816 16.7789 45.095 16.6669L36.2422 11.3552C35.8476 11.1184 35.4239 11 35.0001 11C34.5763 11 34.1527 11.1184 33.7581 11.3552L24.9053 16.6669C24.7188 16.7788 24.6112 16.9452 24.5859 17.1612C24.5604 17.3773 24.6263 17.5641 24.7818 17.7162L27.0193 19.9071C32.3167 19.0485 37.6839 19.0485 42.9811 19.9071ZM43.3299 24.8258C43.6796 24.9268 43.9771 24.8185 44.234 24.4971C44.72 23.8891 44.7911 22.8442 44.4915 22.4781C44.3093 22.2555 43.9489 22.3471 43.6428 22.4876C43.6208 23.2678 43.5148 24.0549 43.3299 24.8258ZM35.7468 38.103C36.9839 38.1878 38.1647 38.4812 39.2538 38.9487L41.9602 33.1195L40.0986 32.5056L35.7469 38.103H35.7468ZM45.7753 47.9428H52V40.6984C52 38.0657 50.3093 35.8728 47.5876 34.9753L42.9105 33.4329L40.1485 39.3823C43.2586 41.0724 45.4514 44.2438 45.7753 47.9428ZM29.8517 39.3823L27.0896 33.4329L22.4124 34.9753C19.6908 35.8727 18 38.0657 18 40.6984V47.9428H24.2248C24.5487 44.2438 26.7415 41.0725 29.8516 39.3823H29.8517ZM27.9481 22.5612C29.8813 24.2737 32.3989 25.2397 35.0001 25.2397C37.6013 25.2397 40.1188 24.2737 42.052 22.5612C37.3673 22.0753 32.6327 22.0753 27.9481 22.5612ZM34.2534 38.103L29.9017 32.5056L28.0401 33.1195L30.7465 38.9487C31.8356 38.4812 33.0163 38.1878 34.2535 38.103H34.2534ZM35 31.2936C39.2836 31.2936 42.0882 27.4108 42.577 23.422C40.4813 25.2213 37.7845 26.2339 35 26.2339C32.2155 26.2339 29.5187 25.2214 27.423 23.422C27.9118 27.4108 30.7164 31.2936 35 31.2936ZM39.3198 30.9583C38.0977 31.7894 36.6456 32.2877 35 32.2877C33.3759 32.2877 31.9403 31.8021 30.7283 30.9906L30.6031 31.7885L35 37.4438L39.4059 31.7768L39.3198 30.9584V30.9583ZM35 47.0848C34.0022 47.0848 33.1905 47.8965 33.1905 48.8942C33.1905 49.8919 34.0023 50.7037 35 50.7037C35.9977 50.7037 36.8095 49.892 36.8095 48.8942C36.8095 47.8964 35.9977 47.0848 35 47.0848ZM44.8234 48.8942C44.8234 54.3108 40.4166 58.7176 35 58.7176C29.5834 58.7176 25.1766 54.3108 25.1766 48.8942C25.1766 43.4776 29.5834 39.0708 35 39.0708C40.4166 39.0708 44.8234 43.4776 44.8234 48.8942ZM43.185 47.5524C42.8723 45.6316 41.8826 43.8721 40.3983 42.5981C38.8975 41.31 36.9804 40.6006 35.0001 40.6006C33.0198 40.6006 31.1026 41.31 29.6018 42.5981C28.1175 43.8722 27.1277 45.6317 26.8151 47.5524C26.7917 47.6962 26.8326 47.8432 26.927 47.9542C27.0215 48.0652 27.1599 48.1293 27.3057 48.1293H32.3034C32.2343 48.3726 32.1964 48.629 32.1964 48.8941C32.1964 49.1593 32.2342 49.4156 32.3034 49.659H27.3053C27.1595 49.659 27.0211 49.723 26.9266 49.8341C26.8322 49.9451 26.7913 50.092 26.8147 50.2359C27.3876 53.756 30.1379 56.506 33.6582 57.079C33.6849 57.0833 33.7115 57.0855 33.7381 57.0855C33.8552 57.0855 33.9696 57.0441 34.0601 56.9671C34.1711 56.8727 34.2351 56.7342 34.2351 56.5885V51.5908C34.4785 51.6599 34.7349 51.6977 35 51.6977C35.2651 51.6977 35.5216 51.66 35.7649 51.5908V56.5885C35.7649 56.7342 35.8289 56.8727 35.9399 56.9671C36.0305 57.0441 36.1448 57.0855 36.2619 57.0855C36.2885 57.0855 36.3152 57.0834 36.3418 57.079C39.8622 56.506 42.6124 53.7559 43.1853 50.2359C43.2087 50.092 43.1678 49.9451 43.0734 49.8341C42.9789 49.723 42.8405 49.659 42.6947 49.659H37.6966C37.7657 49.4156 37.8036 49.1594 37.8036 48.8941C37.8036 48.6289 37.7658 48.3725 37.6966 48.1293H42.6943C42.8401 48.1293 42.9785 48.0652 43.073 47.9542C43.1674 47.8432 43.2083 47.6962 43.1849 47.5524H43.185ZM35.0001 41.5947C31.6012 41.5947 28.709 43.8917 27.9137 47.1352H32.8191C33.3335 46.4986 34.1198 46.0905 35 46.0905C35.8802 46.0905 36.6665 46.4986 37.1809 47.1352H42.0863C41.291 43.8917 38.3989 41.5947 35 41.5947H35.0001Z" fill="white"/>
</svg>
