<svg width="47" height="48" viewBox="0 0 47 48" fill="none" xmlns="http://www.w3.org/2000/svg">
<rect x="0.582353" y="0.582353" width="45.7144" height="45.8953" rx="4.07647" fill="#55C9BE" stroke="#55C9BE" stroke-width="1.16471"/>
<path fill-rule="evenodd" clip-rule="evenodd" d="M31.7548 19.3003L36.3327 14.8544C36.3449 14.8426 36.3995 14.7011 36.2902 14.3767C36.1121 13.9203 35.8298 13.5091 35.4645 13.1739C34.6266 12.3542 33.8434 12.2245 33.7341 12.3307L29.1562 16.7766C30.3226 17.2646 31.2524 18.1676 31.7548 19.3003Z" fill="white"/>
<path fill-rule="evenodd" clip-rule="evenodd" d="M21.13 24.5658L19.2114 26.4349C19.7939 26.6691 20.3223 27.014 20.7657 27.4491C21.2172 27.8771 21.5727 28.3909 21.81 28.9586L30.7108 20.3144C30.8201 20.2082 30.6865 19.4417 29.8486 18.628C29.0108 17.8142 28.2215 17.6845 28.1122 17.7907L21.1483 24.554C21.1422 24.5599 21.1361 24.5658 21.13 24.5658Z" fill="white"/>
<path d="M8.16113 29.0121C10.529 30.6572 14.5604 31.866 19.12 32.2847C19.8178 32.3462 20.4174 32.7909 20.6621 33.4286C21.111 34.2683 22.0273 34.7722 22.9996 34.714C23.9719 34.7722 24.8882 34.2683 25.337 33.4286C25.5817 32.7909 26.1814 32.3462 26.8792 32.2847C31.4388 31.866 35.4641 30.6572 37.832 29.0121C36.1198 27.0958 32.307 25.5863 27.6199 24.9849L21.6274 30.8047C21.3619 31.0513 21.0049 31.1832 20.6378 31.1702C19.6891 31.0863 18.8084 30.6565 18.1728 29.9674C16.9463 28.7704 16.576 27.3316 17.3106 26.6123L19.0713 24.9023C14.0686 25.4448 9.97043 26.9778 8.16113 29.0121ZM30.2854 29.4072C30.6207 29.4072 30.8925 29.6712 30.8925 29.9968C30.8925 30.3224 30.6206 30.5864 30.2854 30.5864C29.9501 30.5864 29.6783 30.3224 29.6783 29.9968C29.6783 29.6712 29.9501 29.4072 30.2854 29.4072ZM27.2497 28.2279C27.585 28.2279 27.8568 28.4919 27.8568 28.8175C27.8568 29.1431 27.5849 29.4071 27.2497 29.4071C26.9144 29.4071 26.6426 29.1431 26.6426 28.8175C26.6426 28.4919 26.9144 28.2279 27.2497 28.2279ZM25.4282 29.9968C25.7635 29.9968 26.0353 30.2609 26.0353 30.5865C26.0353 30.9121 25.7635 31.1761 25.4282 31.1761C25.093 31.1761 24.8211 30.9121 24.8211 30.5865C24.8211 30.2608 25.0929 29.9968 25.4282 29.9968ZM14.4997 28.8176C14.835 28.8176 15.1068 29.0816 15.1068 29.4072C15.1068 29.7328 14.835 29.9968 14.4997 29.9968C14.1644 29.9968 13.8926 29.7328 13.8926 29.4072C13.8926 29.0816 14.1644 28.8176 14.4997 28.8176Z" fill="white"/>
<path fill-rule="evenodd" clip-rule="evenodd" d="M28.6953 23.9408C33.3096 24.6602 36.9585 26.2227 38.7678 28.257C39.4955 27.6566 39.9404 26.7945 40.0003 25.8689C40.0003 23.7344 37.0496 21.6765 32.2713 20.4678L28.6953 23.9408Z" fill="white"/>
<path fill-rule="evenodd" clip-rule="evenodd" d="M18.3069 27.4193C18.2589 27.4145 18.2106 27.4226 18.1672 27.4429C18.064 27.549 18.1976 28.3156 19.0354 29.1293C19.8733 29.943 20.6626 30.0787 20.7719 29.9725C20.8812 29.8664 20.7415 29.0998 19.9037 28.2861C19.5575 27.9325 19.1343 27.6586 18.6651 27.4842C18.5495 27.4458 18.4289 27.424 18.3069 27.4193Z" fill="white"/>
<path fill-rule="evenodd" clip-rule="evenodd" d="M39.0771 29.5719C36.5817 31.5649 32.1739 32.9859 26.9889 33.4635C26.7522 33.4847 26.5491 33.6361 26.4668 33.8527C25.8472 35.1552 24.4757 35.9624 23 35.8928C21.5243 35.9623 20.1528 35.1552 19.5332 33.8527C19.4509 33.636 19.2477 33.4847 19.011 33.4635C13.8261 32.9859 9.41819 31.5648 6.92283 29.5719C6.5919 29.3052 6.28335 29.0134 6 28.6992V34.124C6 37.6382 13.7835 40.6101 23 40.6101C32.2164 40.6101 39.9999 37.6382 39.9999 34.124V28.6992C39.7166 29.0134 39.408 29.3052 39.0771 29.5719Z" fill="white"/>
<path fill-rule="evenodd" clip-rule="evenodd" d="M20.4135 23.5985L22.3745 21.694C21.2176 21.5741 20.1934 20.914 19.6302 19.9251C19.5395 19.7064 19.3205 19.5639 19.0777 19.5654C11.5007 20.2611 6 22.9145 6 25.8686C6.05887 26.7928 6.5041 27.6534 7.23247 28.2508C9.43637 25.7625 14.3725 24.0054 20.4135 23.5985Z" fill="white"/>
<path fill-rule="evenodd" clip-rule="evenodd" d="M18.6017 10.1519C17.9937 9.54679 17.9937 8.58123 18.6017 7.97612C18.7438 7.81686 18.7876 7.5961 18.7166 7.39693C18.6456 7.19783 18.4706 7.05059 18.2576 7.01068C18.0445 6.97077 17.8257 7.04436 17.6836 7.20361C16.6758 8.25071 16.6758 9.87718 17.6836 10.9243C18.2916 11.5294 18.2916 12.4949 17.6836 13.1001C16.6758 14.1472 16.6758 15.7736 17.6836 16.8207C17.9032 17.0669 18.2868 17.0936 18.5403 16.8803C18.7938 16.667 18.8213 16.2944 18.6016 16.0483C17.9937 15.4432 17.9937 14.4776 18.6016 13.8725C19.6096 12.8255 19.6096 11.199 18.6017 10.1519Z" fill="white"/>
<path fill-rule="evenodd" clip-rule="evenodd" d="M21.0304 10.1519C20.8883 9.9926 20.6695 9.91901 20.4565 9.95892C20.2434 9.99877 20.0684 10.146 19.9974 10.3452C19.9265 10.5443 19.9703 10.7651 20.1123 10.9244C20.7203 11.5295 20.7203 12.495 20.1123 13.1001C19.1045 14.1472 19.1045 15.7737 20.1123 16.8208C20.332 17.067 20.7155 17.0937 20.969 16.8803C21.2225 16.6671 21.25 16.2945 21.0303 16.0484C20.4224 15.4433 20.4224 14.4777 21.0303 13.8726C22.0383 12.8254 22.0383 11.1989 21.0304 10.1519Z" fill="white"/>
</svg>
