<svg width="61" height="61" viewBox="0 0 61 61" fill="none" xmlns="http://www.w3.org/2000/svg">
<g filter="url(#filter0_d_26_4915)">
<rect x="7" y="7" width="47.0588" height="47.0588" rx="4.70588" fill="#55C9BE"/>
<rect x="7" y="7" width="47.0588" height="47.0588" rx="4.70588" stroke="#55C9BE" stroke-width="1.17647"/>
</g>
<path d="M28.033 16.173C26.6614 16.4224 25.3022 17.3077 24.5167 18.4799L24.261 18.8539L22.8021 19.4712C20.9566 20.2443 20.5701 20.45 20.2521 20.7929C19.7284 21.3603 19.4728 22.2519 19.6224 22.9689C19.6598 23.1434 20.489 25.1573 21.4679 27.4516C22.4467 29.7398 23.2323 31.6352 23.2198 31.6663C23.2011 31.6913 23.0078 31.8097 22.7896 31.9344C22.5714 32.0591 22.2472 32.2711 22.0726 32.4083C21.8981 32.5454 21.7422 32.6577 21.7235 32.6577C21.6986 32.6577 20.595 31.7599 19.2608 30.6688C17.9328 29.5715 16.7856 28.6487 16.717 28.6113C16.5237 28.5053 16.3678 28.5303 16.1746 28.6799L16 28.8171L16.0436 31.4543C16.0623 32.9008 16.0998 34.1291 16.1185 34.1789C16.1372 34.2288 16.717 34.7276 17.4091 35.2825C18.1011 35.8374 18.7059 36.3299 18.7558 36.3736C18.8368 36.4421 18.8119 36.4983 18.5937 36.7539C18.0263 37.4335 17.646 38.0943 17.3654 38.8924C17.222 39.3101 16.0811 44.7967 16.0811 45.0835C16.0811 45.2518 16.3616 45.5012 16.5487 45.5012C16.6422 45.5012 17.4278 45.1084 18.363 44.5909C19.2732 44.0922 20.0214 43.6869 20.0276 43.6994C20.0401 43.7119 20.09 43.8303 20.1461 43.955C20.3207 44.3291 21.4554 45.6384 21.7609 45.813C22.1287 46.0249 22.7834 46.0312 23.17 45.8254C23.4817 45.6633 23.781 45.3079 23.8932 44.9775C23.968 44.7468 24.0054 44.7219 24.2299 44.6782C24.791 44.5847 25.2274 44.2231 25.402 43.7119C25.4768 43.4999 25.5142 43.4749 25.8634 43.3752C26.0816 43.3191 26.3559 43.1881 26.4993 43.0759C26.6552 42.9512 26.7736 42.8951 26.8235 42.9263C26.8672 42.9512 27.3909 43.3689 27.9769 43.8428L29.0493 44.7156V45.202C29.0493 45.6384 29.068 45.7132 29.2052 45.8441L29.3548 46H33.0395H36.7243L36.8739 45.8441C37.0734 45.6509 37.0797 45.3578 36.8926 45.1708C36.8116 45.096 35.9138 44.3478 34.8975 43.5123L33.0395 41.9911V41.6232C33.0395 41.4237 33.0582 41.2616 33.077 41.2616C33.3014 41.2616 33.7877 41.4798 33.8999 41.6294C34.062 41.8477 34.6169 42.1345 34.885 42.1345C35.0596 42.1345 35.0845 42.1594 35.1219 42.3464C35.2155 42.8265 35.7766 43.3315 36.319 43.4188C36.5559 43.4562 36.5871 43.4812 36.718 43.7929C36.93 44.3166 37.2916 44.5785 37.965 44.7156C38.0835 44.7406 38.1458 44.8216 38.2331 45.0586C38.5074 45.8317 39.4302 46.2057 40.222 45.8628C40.4838 45.7506 40.6522 45.5947 41.1821 44.9775C41.5375 44.5598 41.8804 44.1046 41.9365 43.9612C41.9989 43.8116 42.0674 43.6931 42.0986 43.6931C42.1236 43.6931 42.8717 44.0984 43.7571 44.5972C44.6923 45.1209 45.4467 45.5012 45.5402 45.5012C45.7272 45.5012 46.0078 45.2518 46.0078 45.0835C46.0078 44.7718 44.8668 39.2914 44.7047 38.83C44.5239 38.3188 44.5177 38.2502 44.4928 36.9596C44.4678 35.8498 44.4429 35.5381 44.3369 35.1516C43.7508 33.0442 42.0799 31.498 39.9913 31.1301C39.6297 31.0678 39.0374 31.0366 38.2393 31.0366H37.0298V30.2947V29.5465L38.2393 29.5278C39.5923 29.5091 39.6858 29.4779 39.9165 29.0353C40.0162 28.8358 40.0225 28.549 40.0038 24.7395C39.985 20.768 39.985 20.6433 39.8541 20.1882C39.2369 18.0621 37.5847 16.5346 35.5023 16.1668C34.7416 16.0358 28.7687 16.0358 28.033 16.173ZM35.8764 17.2703C36.5996 17.5197 37.1171 17.8439 37.6844 18.4113C38.2518 18.9786 38.576 19.4961 38.8254 20.2193L38.9937 20.7181L39.0124 24.6273L39.0311 28.5427H36.8926H34.7541L34.6232 28.019L34.4985 27.4891L34.8913 27.3207C35.3589 27.1274 35.7704 26.7471 35.9823 26.3169C36.1008 26.0675 36.1257 25.9179 36.1257 25.4565C36.1257 24.9702 36.1008 24.8518 35.9574 24.5837C35.8015 24.2844 35.4711 23.929 35.1718 23.7233C35.0658 23.6547 34.8227 23.1621 34.3426 22.0337C33.9685 21.1608 33.5757 20.2942 33.4697 20.1134C32.5969 18.6295 30.9509 17.5883 29.28 17.4574C28.4757 17.395 27.6964 17.4761 27.0791 17.6818C26.7923 17.7816 26.5554 17.8501 26.5554 17.8439C26.5554 17.8003 27.154 17.4823 27.447 17.3701C28.1702 17.0895 28.3947 17.077 31.9796 17.0895L35.3776 17.102L35.8764 17.2703ZM29.9097 22.9065C30.1965 23.025 30.5207 23.3305 30.6703 23.6235C30.7576 23.7919 30.9758 23.9664 31.5307 24.3218L32.2727 24.8019L32.9024 26.2795C33.7004 28.1624 33.7565 28.3557 33.7503 29.3844C33.7503 30.2947 33.6256 30.862 33.2827 31.5541C32.6592 32.7948 31.7677 33.5742 30.3274 34.1478C28.9433 34.6902 27.6714 34.6403 26.4058 33.9794C25.8509 33.6926 25.0404 32.9257 24.7286 32.402C24.6039 32.1838 24.2299 31.3733 23.8994 30.6002L23.3009 29.1974L23.3445 28.2622C23.4193 26.5227 23.4692 26.1985 23.7186 25.6997C24.0989 24.9203 24.2548 24.8206 26.7736 23.742C28.7438 22.9003 28.9932 22.8068 29.3174 22.8068C29.5169 22.8068 29.7788 22.8504 29.9097 22.9065ZM34.7666 24.671C35.1781 24.9765 35.2778 25.6249 34.9723 26.0488C34.8164 26.267 34.1867 26.5975 34.1057 26.5102C34.0683 26.4666 33.5134 25.2009 33.3762 24.8393C33.3513 24.7645 33.4136 24.7021 33.6069 24.6148C33.9748 24.4403 34.4922 24.4714 34.7666 24.671ZM36.0322 30.2885V31.0366H35.2903H34.5546L34.6356 30.6875C34.6793 30.4942 34.7354 30.1575 34.7541 29.9393L34.7977 29.5403H35.415H36.0322V30.2885ZM21.9292 34.1478C24.579 36.3237 26.73 38.1131 26.7175 38.1255C26.705 38.138 26.624 38.1193 26.5305 38.0819C25.8509 37.8263 24.8907 38.3188 24.6725 39.0296C24.6102 39.2353 24.5728 39.2665 24.3296 39.3164L24.049 39.3787L20.5825 36.5668C18.6747 35.0269 17.1035 33.7612 17.0973 33.755C17.0911 33.7487 17.0661 32.9382 17.0412 31.9469C17.0163 30.781 17.0225 30.1575 17.0599 30.17C17.0911 30.1825 19.2857 31.9718 21.9292 34.1478ZM40.3654 32.2399C41.0886 32.4768 41.6061 32.8073 42.1734 33.3746C42.9902 34.1914 43.4142 35.1017 43.4952 36.2115L43.5326 36.7601L43.1149 36.3611C42.2981 35.5817 41.3068 35.0331 40.0848 34.6964C39.6484 34.578 39.4239 34.5655 36.8303 34.5405L34.0371 34.5218V33.3996C34.0371 32.72 34.062 32.2275 34.1057 32.1526C34.168 32.0279 34.2241 32.0279 37.0173 32.0467L39.8666 32.0716L40.3654 32.2399ZM23.9244 32.9943C24.2423 33.4806 24.6788 33.9732 25.0778 34.2912L25.3833 34.5281H24.6725H23.9618L23.2759 33.967C22.9019 33.6614 22.5964 33.3684 22.5964 33.331C22.5964 33.2562 23.5316 32.5953 23.6313 32.5953C23.65 32.5953 23.7872 32.7761 23.9244 32.9943ZM33.0271 34.7463C33.0021 35.5256 32.9959 35.5693 32.7902 35.9496C32.5595 36.386 32.3662 36.5731 31.8924 36.8225C31.6243 36.9596 31.4933 36.9846 31.0444 36.9846C30.5581 36.9908 30.4833 36.9721 30.1217 36.7788C29.9035 36.6604 29.6603 36.4796 29.573 36.3798C29.4109 36.1928 29.1117 35.6379 29.1117 35.5381C29.1117 35.5069 29.2488 35.4633 29.4172 35.4446C30.2526 35.3448 31.7552 34.6777 32.5221 34.0605C33.0957 33.5991 33.0645 33.5555 33.0271 34.7463ZM32.8837 38.6742C33.4012 38.7677 34.3488 39.0046 34.405 39.0545C34.4174 39.0607 34.2678 39.254 34.0807 39.4785C33.8875 39.7029 33.7004 39.9835 33.6568 40.1082C33.6131 40.2266 33.5633 40.3264 33.5383 40.3264C33.5196 40.3264 33.2141 40.264 32.8525 40.1892C32.3163 40.077 31.9859 40.0521 31.0444 40.0521C30.103 40.0521 29.7725 40.077 29.2364 40.1892C28.8747 40.264 28.5692 40.3264 28.5505 40.3264C28.5256 40.3264 28.4757 40.2266 28.4321 40.1082C28.3884 39.9897 28.2014 39.7029 28.0143 39.4785C27.8273 39.2478 27.6839 39.0545 27.6901 39.042C27.7026 39.0358 27.9894 38.9547 28.3323 38.8675C28.8747 38.7303 29.1428 38.6866 30.078 38.5557C30.4771 38.4996 32.3475 38.5807 32.8837 38.6742ZM26.5055 39.2478C27.0791 39.8401 27.553 40.4823 27.553 40.6568C27.553 40.9873 27.1664 41.2242 26.8422 41.0995C26.7861 41.0808 26.4868 40.7566 26.1813 40.3887C25.5641 39.6468 25.4893 39.4411 25.7574 39.1605C25.9693 38.936 26.2312 38.9672 26.5055 39.2478ZM36.3065 39.148C36.4312 39.2415 36.4687 39.3288 36.4687 39.5034C36.4687 39.7029 36.3876 39.8276 35.8764 40.4324C35.3028 41.1057 35.2653 41.1369 35.0347 41.1369C34.6481 41.1369 34.4237 40.7691 34.6107 40.4324C34.7105 40.2453 35.6457 39.1543 35.7704 39.0794C35.9387 38.9859 36.1257 39.0046 36.3065 39.148ZM24.7099 40.3202C24.791 40.3576 25.1152 40.6818 25.4269 41.0434C25.9319 41.6294 25.9943 41.7354 25.9943 41.9474C25.9943 42.1345 25.9569 42.2155 25.8322 42.3153C25.5641 42.5272 25.3833 42.4836 25.0715 42.1469C24.5416 41.5858 24.0615 40.9436 24.0615 40.8065C24.0615 40.5758 24.2423 40.37 24.5416 40.2703C24.5478 40.264 24.6226 40.289 24.7099 40.3202ZM37.8964 40.4885C38.1396 40.8002 38.1022 40.8937 37.3478 41.7791C36.7367 42.5023 36.5871 42.5771 36.2567 42.3153C36.132 42.2155 36.0946 42.1345 36.0946 41.9537C36.0946 41.7479 36.1694 41.6357 36.6869 41.0247C37.2542 40.3576 37.2916 40.3264 37.5286 40.3264C37.7156 40.3264 37.7967 40.3638 37.8964 40.4885ZM31.8113 41.0496L32.042 41.0933V43.0447V45.0024H31.0444H30.0469V43.0447V41.0808L30.2214 41.0559C30.502 41.0122 31.5557 41.0122 31.8113 41.0496ZM29.0493 42.3215C29.0493 42.9013 29.0306 43.3814 29.0119 43.3814C28.9932 43.3814 28.6316 43.0946 28.2014 42.7517L27.4283 42.1158L27.659 42.0098C27.7899 41.9537 27.9956 41.8103 28.1079 41.6918C28.2949 41.5048 28.75 41.2803 28.9745 41.2678C29.0306 41.2616 29.0493 41.511 29.0493 42.3215ZM23.251 41.6357C23.3757 41.7043 24.3171 42.7829 24.4231 42.9886C24.5291 43.1881 24.5167 43.344 24.367 43.531C24.2673 43.6557 24.1862 43.6931 23.9992 43.6931C23.7685 43.6931 23.7311 43.662 23.1575 42.9886C22.6462 42.3839 22.5652 42.2592 22.5652 42.0596C22.5652 41.698 22.933 41.4673 23.251 41.6357ZM39.4177 41.7666C39.6421 42.0472 39.5673 42.2529 38.9563 42.9699C38.6446 43.3378 38.3204 43.6682 38.2331 43.6994C37.9213 43.8178 37.5286 43.4562 37.6096 43.1258C37.647 42.9699 38.389 42.0534 38.7256 41.7417C38.8815 41.592 38.9501 41.5671 39.1122 41.5983C39.2182 41.617 39.3553 41.698 39.4177 41.7666ZM22.3407 43.5747C22.6587 43.9488 22.9393 44.3291 22.9517 44.4101C23.0141 44.7343 22.6774 45.0586 22.3657 44.9837C22.2659 44.9588 22.0103 44.7156 21.711 44.3665C21.0938 43.6433 21.0065 43.5123 21.0065 43.3315C21.0065 43.1133 21.2746 42.8826 21.5302 42.8826C21.736 42.8826 21.7983 42.9387 22.3407 43.5747ZM40.8953 43.0073C41.0637 43.1757 41.1073 43.4001 41.0075 43.5872C40.9639 43.6744 40.6833 44.0298 40.3778 44.3727C39.9102 44.9152 39.8042 45.0024 39.6421 45.0024C39.5361 45.0024 39.399 44.9775 39.3366 44.9401C39.187 44.859 39.0748 44.5348 39.1496 44.3603C39.2057 44.2106 39.9975 43.2505 40.2469 43.0198C40.4402 42.8515 40.727 42.839 40.8953 43.0073ZM34.0683 44.1171C34.5484 44.5099 34.9848 44.8715 35.0347 44.9152C35.1095 44.99 34.9661 45.0024 34.0807 45.0024H33.0395V44.1545C33.0395 43.4999 33.0582 43.3191 33.1206 43.3565C33.158 43.3876 33.5882 43.7243 34.0683 44.1171Z" fill="white"/>
<path d="M29.018 26.5858C28.4382 26.8352 27.9331 27.0534 27.8957 27.0659C27.8271 27.0909 28.1701 27.9824 28.2449 27.9824C28.3072 27.9824 30.3772 27.1033 30.4395 27.0472C30.4894 27.0036 30.2151 26.2554 30.1215 26.1681C30.0966 26.1432 29.6041 26.3302 29.018 26.5858Z" fill="white"/>
<path d="M25.3091 28.1569C24.7105 28.4188 24.2055 28.637 24.193 28.6494C24.1494 28.6806 24.5172 29.541 24.5734 29.541C24.6544 29.541 26.6994 28.6682 26.768 28.6058C26.8179 28.5559 26.5186 27.7516 26.4375 27.708C26.4188 27.6955 25.9076 27.9013 25.3091 28.1569Z" fill="white"/>
<path d="M28.8744 31.5228C27.9018 31.9405 27.5838 32.1027 27.5215 32.2211C27.3906 32.458 27.4093 32.589 27.615 32.7947C27.7709 32.9506 27.8395 32.9755 27.9953 32.9443C28.3632 32.8758 30.5516 31.8969 30.6389 31.766C30.7636 31.5852 30.7573 31.3295 30.6264 31.1674C30.4019 30.9056 30.2211 30.9368 28.8744 31.5228Z" fill="white"/>
<defs>
<filter id="filter0_d_26_4915" x="0.529756" y="0.529756" width="60.0001" height="60.0001" filterUnits="userSpaceOnUse" color-interpolation-filters="sRGB">
<feFlood flood-opacity="0" result="BackgroundImageFix"/>
<feColorMatrix in="SourceAlpha" type="matrix" values="0 0 0 0 0 0 0 0 0 0 0 0 0 0 0 0 0 0 127 0" result="hardAlpha"/>
<feMorphology radius="1.17647" operator="dilate" in="SourceAlpha" result="effect1_dropShadow_26_4915"/>
<feOffset/>
<feGaussianBlur stdDeviation="2.35294"/>
<feComposite in2="hardAlpha" operator="out"/>
<feColorMatrix type="matrix" values="0 0 0 0 0.720833 0 0 0 0 0.720833 0 0 0 0 0.720833 0 0 0 0.25 0"/>
<feBlend mode="normal" in2="BackgroundImageFix" result="effect1_dropShadow_26_4915"/>
<feBlend mode="normal" in="SourceGraphic" in2="effect1_dropShadow_26_4915" result="shape"/>
</filter>
</defs>
</svg>
