<svg width="67" height="67" viewBox="0 0 67 67" fill="none" xmlns="http://www.w3.org/2000/svg">
<circle cx="33.5" cy="33.5" r="32.5" fill="#7180D3" stroke="#7180D3" stroke-width="2"/>
<path d="M20.9464 44.1076C21.3113 44.1076 21.6071 43.8117 21.6071 43.4468C21.6071 43.0819 21.3113 42.7861 20.9464 42.7861C20.5815 42.7861 20.2856 43.0819 20.2856 43.4468C20.2856 43.8117 20.5815 44.1076 20.9464 44.1076Z" fill="white"/>
<path d="M16.3214 42.7854H16.3743C16.5184 41.7809 16.9899 40.852 17.7155 40.1426H16.3214C15.5916 40.1426 15 40.7342 15 41.464C15 42.1938 15.5916 42.7854 16.3214 42.7854Z" fill="white"/>
<path d="M44.0714 34.1964H51.8942C51.8583 34.0354 51.8104 33.8772 51.7508 33.7234L47.7614 24.034C47.6594 23.7864 47.4181 23.6249 47.1503 23.625H43.4106V33.5357C43.4106 33.9006 43.7065 34.1964 44.0714 34.1964Z" fill="white"/>
<path d="M37.4643 19H15.6607C15.2958 19 15 19.2958 15 19.6607V38.1607C15 38.5256 15.2958 38.8214 15.6607 38.8214H38.125V19.6607C38.125 19.2958 37.8292 19 37.4643 19ZM18.9643 21.6429H16.9821C16.6172 21.6429 16.3214 21.347 16.3214 20.9821C16.3214 20.6172 16.6172 20.3214 16.9821 20.3214H18.9643C19.3292 20.3214 19.625 20.6172 19.625 20.9821C19.625 21.347 19.3292 21.6429 18.9643 21.6429ZM36.1429 21.6429H21.6071C21.2422 21.6429 20.9464 21.347 20.9464 20.9821C20.9464 20.6172 21.2422 20.3214 21.6071 20.3214H36.1429C36.5078 20.3214 36.8036 20.6172 36.8036 20.9821C36.8036 21.347 36.5078 21.6429 36.1429 21.6429Z" fill="white"/>
<path d="M20.9464 40.1426C19.1219 40.1426 17.6428 41.6216 17.6428 43.4461C17.6428 45.2707 19.1219 46.7497 20.9464 46.7497C22.7709 46.7497 24.25 45.2707 24.25 43.4461C24.25 41.6216 22.7709 40.1426 20.9464 40.1426ZM20.9464 45.4283C19.8517 45.4283 18.9643 44.5409 18.9643 43.4461C18.9643 42.3514 19.8517 41.464 20.9464 41.464C22.0411 41.464 22.9285 42.3514 22.9285 43.4461C22.9253 44.5395 22.0397 45.425 20.9464 45.4283Z" fill="white"/>
<path d="M42.7501 40.1426C40.9256 40.1426 39.4465 41.6216 39.4465 43.4461C39.4465 45.2707 40.9256 46.7497 42.7501 46.7497C44.5746 46.7497 46.0537 45.2707 46.0537 43.4461C46.0537 41.6216 44.5746 40.1426 42.7501 40.1426ZM42.7501 45.4283C41.6554 45.4283 40.768 44.5409 40.768 43.4461C40.768 42.3514 41.6554 41.464 42.7501 41.464C43.8448 41.464 44.7322 42.3514 44.7322 43.4461C44.729 44.5395 43.8435 45.425 42.7501 45.4283Z" fill="white"/>
<path d="M47.3222 42.7857H51.3394C51.7043 42.7857 52.0001 42.4899 52.0001 42.125V40.8036H51.3394C50.9745 40.8036 50.6787 40.5078 50.6787 40.1429C50.6787 39.778 50.9745 39.4821 51.3394 39.4821H52.0001V38.1607H51.3394C50.9745 38.1607 50.6787 37.8649 50.6787 37.5C50.6787 37.1351 50.9745 36.8393 51.3394 36.8393H52.0001V35.5179H44.0715C42.9768 35.5179 42.0894 34.6304 42.0894 33.5357V23.625H39.4465V38.8214H42.7501C45.0471 38.8241 46.9941 40.5122 47.3222 42.7857Z" fill="white"/>
<path d="M25.5185 42.7854H38.1778C38.3219 41.7809 38.7933 40.852 39.519 40.1426H24.1772C24.9029 40.852 25.3744 41.7809 25.5185 42.7854Z" fill="white"/>
<path d="M42.7501 44.1076C43.115 44.1076 43.4108 43.8117 43.4108 43.4468C43.4108 43.0819 43.115 42.7861 42.7501 42.7861C42.3852 42.7861 42.0894 43.0819 42.0894 43.4468C42.0894 43.8117 42.3852 44.1076 42.7501 44.1076Z" fill="white"/>
</svg>
