<svg width="67" height="67" viewBox="0 0 67 67" fill="none" xmlns="http://www.w3.org/2000/svg">
<circle cx="33.5" cy="33.5" r="32.5" fill="#F79044" stroke="#F79044" stroke-width="2"/>
<path d="M51.7664 21.3181L47.4495 17.0012C46.1146 15.6663 43.9518 15.6663 42.6169 17.0012L38.2985 21.3181C36.9636 22.653 36.9636 24.8158 38.2985 26.1507L42.6155 30.4676C43.9503 31.8025 46.1132 31.8025 47.448 30.4676L51.765 26.1507C53.0999 24.8158 53.0999 22.653 51.7664 21.3181ZM46.3398 27.1399C46.3398 27.8618 45.7544 28.4471 45.0325 28.4471C44.3106 28.4471 43.7252 27.8618 43.7252 27.1399V26.8784C43.7252 26.1565 44.3106 25.5711 45.0325 25.5711C45.7544 25.5711 46.3398 26.1565 46.3398 26.8784V27.1399ZM46.3398 23.4272C46.3398 24.1491 45.7544 24.7345 45.0325 24.7345C44.3106 24.7345 43.7252 24.1491 43.7252 23.4272V20.3289C43.7252 19.607 44.3106 19.0216 45.0325 19.0216C45.7544 19.0216 46.3398 19.607 46.3398 20.3289V23.4272Z" fill="white"/>
<path d="M45.0326 33.6491C43.538 33.6491 42.1319 33.0666 41.0745 32.0091L36.7575 27.6908C35.7001 26.6348 35.1191 25.2302 35.1191 23.734C35.1191 23.3883 35.1568 23.0499 35.2178 22.7158H19.5464C17.0481 22.7173 15 24.7508 15 27.2782V43.3433C15 45.8416 17.0481 47.8897 19.5464 47.8897H26.4315L30.0192 51.5211C30.6438 52.1602 31.7042 52.1602 32.3288 51.5211L35.9165 47.8897H42.787C45.3144 47.8897 47.348 45.8562 47.348 43.3433V33.132C46.629 33.4617 45.8475 33.6491 45.0326 33.6491ZM24.2076 37.2339C23.1502 37.2339 22.2932 36.3769 22.2932 35.3195C22.2932 34.262 23.1502 33.405 24.2076 33.405C25.2651 33.405 26.1221 34.262 26.1221 35.3195C26.1221 36.3769 25.2665 37.2339 24.2076 37.2339ZM31.1667 37.2339C30.1093 37.2339 29.2523 36.3769 29.2523 35.3195C29.2523 34.262 30.1093 33.405 31.1667 33.405C32.2242 33.405 33.0812 34.262 33.0812 35.3195C33.0812 36.3769 32.2242 37.2339 31.1667 37.2339ZM38.1244 37.2339C37.0669 37.2339 36.2099 36.3769 36.2099 35.3195C36.2099 34.262 37.0669 33.405 38.1244 33.405C39.1818 33.405 40.0388 34.262 40.0388 35.3195C40.0388 36.3769 39.1818 37.2339 38.1244 37.2339Z" fill="white"/>
</svg>
