<svg width="61" height="61" viewBox="0 0 61 61" fill="none" xmlns="http://www.w3.org/2000/svg">
<g filter="url(#filter0_d_25_4855)">
<rect x="7" y="7" width="47.0588" height="47.0588" rx="4.70588" fill="#55C9BE"/>
<rect x="7" y="7" width="47.0588" height="47.0588" rx="4.70588" stroke="#55C9BE" stroke-width="1.17647"/>
</g>
<circle cx="30.5" cy="30.5" r="16.5" fill="white"/>
<path d="M38.8477 30.8063C38.746 30.2978 38.5426 30.0435 38.2884 29.891C38.2884 29.5859 38.2375 29.23 38.1867 28.9249C38.2884 28.6706 38.3392 28.4164 38.3901 28.1113C38.4918 27.6028 38.3901 27.0435 38.3392 26.4841C38.2375 25.6706 38.1359 24.8061 37.8816 24.0434C37.7291 23.5349 37.424 22.9756 36.9663 22.7213C36.8138 22.6196 36.6104 22.5688 36.4578 22.4671C36.3561 22.3654 36.2545 22.2637 36.1528 22.162C33.051 18.5517 27.2542 19.6196 24.2542 22.7722C23.5423 23.5349 22.9829 24.3993 22.5253 25.3146C22.4236 25.5689 22.3219 25.874 22.2711 26.179C22.2202 26.535 22.2711 26.8909 22.3219 27.196C22.4745 28.1113 22.7287 28.9757 23.0338 29.8401H23.0846C22.8304 29.9927 22.627 30.2469 22.5253 30.7554C22.2711 31.8741 22.8304 32.6877 23.5423 33.0436C23.9491 34.6708 24.661 36.2979 25.5762 37.6708C26.4407 38.9421 28.2204 39.959 29.5424 40.5692C29.9492 40.7218 30.356 40.8235 30.7628 40.8235C31.1696 40.8235 31.5764 40.7218 31.9832 40.5692C33.3052 39.959 35.0341 38.9929 35.8985 37.7217C36.8646 36.3488 37.5765 34.7216 37.9833 33.0436C38.6443 32.7894 39.0511 31.9758 38.8477 30.8063ZM35.0341 37.2641C34.2714 38.3827 32.4916 39.298 31.5255 39.7556C31.017 39.959 30.4577 39.959 29.9492 39.7556C28.9322 39.298 27.1525 38.3319 26.3898 37.2132C25.2711 35.5861 24.5084 33.5013 24.2542 31.569H24.305C24.2542 30.552 24.2542 29.4842 24.3559 28.4672C24.4576 27.8571 24.661 27.2977 24.9152 26.7892C25.322 26.4333 25.983 26.4841 26.5424 26.535C27.1525 26.6367 27.7119 26.7892 28.2712 26.9926C29.8475 27.4503 31.373 28.0604 33.0001 27.8062C33.9154 27.6537 34.7798 27.2469 35.6951 27.3486C35.8985 27.3486 36.1019 27.3994 36.2036 27.552C36.5087 27.9079 36.1528 28.4672 36.2036 28.9249C36.2545 29.1283 36.3561 29.3317 36.4578 29.4842C36.8138 30.0944 37.0172 30.8063 37.0172 31.569H37.068C36.9663 33.5013 36.1528 35.5861 35.0341 37.2641Z" fill="#55C9BE"/>
<path d="M30.4975 14C34.3149 13.9994 38.0144 15.3225 40.9656 17.7438C43.9169 20.1651 45.9372 23.5348 46.6825 27.2787C47.4277 31.0227 46.8518 34.9092 45.0527 38.2761C43.2537 41.6429 40.3429 44.2819 36.8162 45.7432C33.2896 47.2045 29.3654 47.3978 25.7123 46.2901C22.0591 45.1824 18.9031 42.8423 16.7819 39.6685C14.6607 36.4947 13.7056 32.6836 14.0793 28.8846C14.453 25.0855 16.1325 21.5336 18.8315 18.834C20.3614 17.299 22.1797 16.0817 24.1818 15.2521C26.1839 14.4225 28.3303 13.997 30.4975 14ZM41.8332 21.4631L21.4607 41.8357C24.2487 44.0447 27.7514 45.152 31.3026 44.947C34.8538 44.7419 38.2058 43.2388 40.7211 40.7235C43.2363 38.2083 44.7394 34.8563 44.9445 31.3051C45.1495 27.7539 44.0422 24.2512 41.8332 21.4631ZM19.9836 40.4822L40.4797 19.9861C37.7306 17.4245 34.0945 16.0299 30.3376 16.0962C26.5806 16.1625 22.996 17.6844 20.339 20.3415C17.682 22.9985 16.16 26.583 16.0937 30.34C16.0274 34.097 17.422 37.7331 19.9836 40.4822Z" fill="#55C9BE"/>
<defs>
<filter id="filter0_d_25_4855" x="0.529756" y="0.529756" width="60.0001" height="60.0001" filterUnits="userSpaceOnUse" color-interpolation-filters="sRGB">
<feFlood flood-opacity="0" result="BackgroundImageFix"/>
<feColorMatrix in="SourceAlpha" type="matrix" values="0 0 0 0 0 0 0 0 0 0 0 0 0 0 0 0 0 0 127 0" result="hardAlpha"/>
<feMorphology radius="1.17647" operator="dilate" in="SourceAlpha" result="effect1_dropShadow_25_4855"/>
<feOffset/>
<feGaussianBlur stdDeviation="2.35294"/>
<feComposite in2="hardAlpha" operator="out"/>
<feColorMatrix type="matrix" values="0 0 0 0 0.720833 0 0 0 0 0.720833 0 0 0 0 0.720833 0 0 0 0.25 0"/>
<feBlend mode="normal" in2="BackgroundImageFix" result="effect1_dropShadow_25_4855"/>
<feBlend mode="normal" in="SourceGraphic" in2="effect1_dropShadow_25_4855" result="shape"/>
</filter>
</defs>
</svg>
