<svg width="60" height="59" viewBox="0 0 60 59" fill="none" xmlns="http://www.w3.org/2000/svg">
<g filter="url(#filter0_d_16_1448)">
<rect x="6" y="6" width="47.7976" height="47.06" rx="4" fill="#55C9BE"/>
<rect x="6" y="6" width="47.7976" height="47.06" rx="4" stroke="#55C9BE"/>
</g>
<path d="M30 13C25.4591 13 21.1901 14.7683 17.9791 17.9791C14.7683 21.1901 13 25.4591 13 30C13 34.5409 14.7683 38.81 17.9791 42.0209C21.1901 45.2317 25.4591 47.0001 30 47.0001C34.5409 47.0001 38.81 45.2317 42.0209 42.0209C45.2317 38.81 47 34.5409 47 30.0001C47 25.4592 45.2317 21.1902 42.0208 17.9793C38.81 14.7683 34.5409 13 30 13ZM20.78 27.9587H22.9146C22.9146 28.9031 23.683 29.6715 24.6274 29.6715C25.5718 29.6715 26.3402 28.9031 26.3402 27.9587H28.4747C28.4747 30.0801 26.7488 31.8061 24.6274 31.8061C22.5059 31.8061 20.78 30.0801 20.78 27.9587ZM33.3535 37.5457C33.3535 39.4138 31.8337 40.9336 29.9656 40.9336C28.0974 40.9336 26.5777 39.4138 26.5777 37.5457V36.6674C26.5777 34.7993 28.0975 33.2795 29.9656 33.2795C31.8337 33.2795 33.3535 34.7993 33.3535 36.6674V37.5457ZM35.3727 31.8061C33.2513 31.8061 31.5254 30.0801 31.5254 27.9587H33.6599C33.6599 28.9031 34.4283 29.6715 35.3727 29.6715C36.3171 29.6715 37.0855 28.9031 37.0855 27.9587H39.22C39.2199 30.0801 37.4941 31.8061 35.3727 31.8061ZM39.2691 20.6407L36.8568 23.1542H39.2691V25.2887H33.9688V23.0807L36.3811 20.5672H34.101V18.4326H39.2691V20.6407Z" fill="white"/>
<defs>
<filter id="filter0_d_16_1448" x="0.5" y="0.5" width="58.7974" height="58.0596" filterUnits="userSpaceOnUse" color-interpolation-filters="sRGB">
<feFlood flood-opacity="0" result="BackgroundImageFix"/>
<feColorMatrix in="SourceAlpha" type="matrix" values="0 0 0 0 0 0 0 0 0 0 0 0 0 0 0 0 0 0 127 0" result="hardAlpha"/>
<feMorphology radius="1" operator="dilate" in="SourceAlpha" result="effect1_dropShadow_16_1448"/>
<feOffset/>
<feGaussianBlur stdDeviation="2"/>
<feComposite in2="hardAlpha" operator="out"/>
<feColorMatrix type="matrix" values="0 0 0 0 0.720833 0 0 0 0 0.720833 0 0 0 0 0.720833 0 0 0 0.25 0"/>
<feBlend mode="normal" in2="BackgroundImageFix" result="effect1_dropShadow_16_1448"/>
<feBlend mode="normal" in="SourceGraphic" in2="effect1_dropShadow_16_1448" result="shape"/>
</filter>
</defs>
</svg>
