<svg width="62" height="59" viewBox="0 0 62 59" fill="none" xmlns="http://www.w3.org/2000/svg">
<g filter="url(#filter0_d_16_1449)">
<rect x="6" y="6" width="49.59" height="47.06" rx="4" fill="#55C9BE"/>
<rect x="6" y="6" width="49.59" height="47.06" rx="4" stroke="#55C9BE"/>
</g>
<path d="M26.519 38.5755C27.8339 39.4499 29.3798 39.9193 30.9994 39.9193C32.619 39.9193 34.1656 39.4493 35.4811 38.5742C34.6829 40.5718 32.9451 41.9194 30.9994 41.9194C29.0544 41.9194 27.3179 40.5724 26.519 38.5755Z" fill="white"/>
<path d="M41.1461 45.6251C41.1461 46.1686 40.6998 46.6097 40.15 46.6097H21.8494C21.2995 46.6097 20.8533 46.1686 20.8533 45.6251C20.8533 42.6914 22.2159 40.0657 24.3482 38.3359C25.2088 41.5939 27.9095 43.8888 30.9993 43.8888C34.0892 43.8888 36.7899 41.5939 37.6511 38.3366C39.7834 40.0663 41.1461 42.6914 41.1461 45.6251Z" fill="white"/>
<path d="M19.6222 27.3708C19.192 27.3708 18.7953 27.0932 18.6673 26.6646L18.0055 24.4476L16.7592 25.6796C16.5077 25.9282 16.1415 26.0256 15.7977 25.9347C15.4541 25.8439 15.1855 25.579 15.093 25.2396L14.0345 21.3565C13.8914 20.8314 14.2059 20.291 14.7371 20.1495C15.2688 20.0077 15.8149 20.319 15.9581 20.844L16.5684 23.083L17.7819 21.8834C18.0303 21.6378 18.3913 21.5398 18.7319 21.6254C19.0725 21.7111 19.3421 21.9678 19.4417 22.3009L20.578 26.1071C20.7337 26.6286 20.4322 27.1763 19.9046 27.3302C19.8105 27.3578 19.7156 27.3708 19.6222 27.3708Z" fill="white"/>
<path d="M22.8908 21.4606C22.8752 21.4606 22.8596 21.4603 22.8438 21.4595C22.2943 21.4343 21.8695 20.9735 21.8951 20.4302L22.0037 18.1211L20.4182 18.8821C20.0984 19.0356 19.7199 19.0089 19.4253 18.8121C19.1306 18.6151 18.9646 18.2779 18.9895 17.9272L19.2749 13.9155C19.3135 13.373 19.7896 12.9647 20.3385 13.0024C20.8873 13.0406 21.3008 13.5112 21.2622 14.0538L21.0976 16.367L22.6414 15.626C22.9574 15.4743 23.3311 15.4985 23.6245 15.6896C23.9179 15.8808 24.0878 16.2106 24.0714 16.5576L23.885 20.5218C23.8603 21.0493 23.4197 21.4606 22.8908 21.4606Z" fill="white"/>
<path d="M39.1075 21.4609C38.5786 21.4609 38.1381 21.0496 38.1133 20.5219L37.9269 16.5577C37.9105 16.2107 38.0804 15.8809 38.3737 15.6897C38.6672 15.4986 39.0407 15.4745 39.3568 15.6261L40.9008 16.367L40.7361 14.0539C40.6976 13.5113 41.1111 13.0406 41.6598 13.0025C42.2095 12.964 42.6848 13.3731 42.7234 13.9156L43.0088 17.9273C43.0338 18.2781 42.8677 18.6152 42.573 18.8122C42.2785 19.009 41.9 19.0357 41.5801 18.8822L39.9947 18.1214L40.1033 20.4305C40.1289 20.9738 39.7041 21.4346 39.1546 21.4598C39.1388 21.4606 39.1231 21.4609 39.1075 21.4609Z" fill="white"/>
<path d="M42.3779 27.3707C42.2845 27.3707 42.1896 27.3576 42.0955 27.3302C41.5679 27.1763 41.2664 26.6286 41.4221 26.1071L42.5584 22.3009C42.6579 21.9677 42.9276 21.7111 43.2681 21.6253C43.6087 21.5397 43.9696 21.6377 44.2181 21.8834L45.4316 23.083L46.042 20.844C46.1851 20.3189 46.7317 20.0078 47.263 20.1494C47.7941 20.2909 48.1086 20.8314 47.9655 21.3564L46.907 25.2395C46.8144 25.5789 46.5459 25.8438 46.2024 25.9345C45.8589 26.0255 45.4924 25.9281 45.2409 25.6795L43.9946 24.4475L43.3328 26.6645C43.2049 27.0931 42.808 27.3707 42.3779 27.3707Z" fill="white"/>
<path d="M28.9195 19.1682C28.5003 19.1682 28.1101 18.9043 27.9729 18.4889L27.2055 16.1655C27.0347 15.6485 27.3202 15.0926 27.8432 14.9239C28.366 14.7552 28.9285 15.0374 29.0992 15.5543L29.8666 17.8777C30.0374 18.3947 29.7519 18.9505 29.2289 19.1193C29.1262 19.1525 29.022 19.1682 28.9195 19.1682Z" fill="white"/>
<path d="M33.08 19.1674C32.9776 19.1674 32.8735 19.1517 32.7707 19.1185C32.2477 18.9497 31.9622 18.3939 32.133 17.8769L32.9003 15.5535C33.0709 15.0365 33.6331 14.7539 34.1564 14.9231C34.6794 15.0918 34.9648 15.6477 34.7941 16.1647L34.0267 18.4881C33.8895 18.9036 33.4993 19.1674 33.08 19.1674Z" fill="white"/>
<path d="M37.059 28.3624V29.3392C33.4844 30.0711 31.9624 27.5589 31.8721 27.4027C31.7007 27.0837 31.3694 26.8894 31.0035 26.8867H30.9962C30.6323 26.8867 30.3002 27.0896 30.1256 27.4053C30.1216 27.4126 29.7132 28.1084 28.8719 28.6828C27.7749 29.4318 26.4541 29.6517 24.9407 29.3399V28.3624C24.9407 25.0553 27.654 22.373 30.9995 22.373H31.0002C34.3457 22.373 37.059 25.0553 37.059 28.3624Z" fill="white"/>
<path d="M37.059 31.3419V31.9596C37.059 33.6138 36.3803 35.1118 35.284 36.195C34.1869 37.2787 32.6729 37.9503 31.0002 37.9503H30.9995C27.6527 37.9503 24.9407 35.2674 24.9407 31.9596V31.3425C26.7013 31.7165 29.0142 31.0915 30.0034 30.304C30.4032 30.031 30.7332 29.7421 30.9995 29.4717C31.2658 29.7421 31.5958 30.031 31.9956 30.304C33.0282 31.0084 34.7096 31.7154 37.059 31.3419Z" fill="white"/>
<defs>
<filter id="filter0_d_16_1449" x="0.5" y="0.5" width="60.5901" height="58.0596" filterUnits="userSpaceOnUse" color-interpolation-filters="sRGB">
<feFlood flood-opacity="0" result="BackgroundImageFix"/>
<feColorMatrix in="SourceAlpha" type="matrix" values="0 0 0 0 0 0 0 0 0 0 0 0 0 0 0 0 0 0 127 0" result="hardAlpha"/>
<feMorphology radius="1" operator="dilate" in="SourceAlpha" result="effect1_dropShadow_16_1449"/>
<feOffset/>
<feGaussianBlur stdDeviation="2"/>
<feComposite in2="hardAlpha" operator="out"/>
<feColorMatrix type="matrix" values="0 0 0 0 0.720833 0 0 0 0 0.720833 0 0 0 0 0.720833 0 0 0 0.25 0"/>
<feBlend mode="normal" in2="BackgroundImageFix" result="effect1_dropShadow_16_1449"/>
<feBlend mode="normal" in="SourceGraphic" in2="effect1_dropShadow_16_1449" result="shape"/>
</filter>
</defs>
</svg>
