<svg width="67" height="67" viewBox="0 0 67 67" fill="none" xmlns="http://www.w3.org/2000/svg">
<circle cx="33.5" cy="33.5" r="32.5" fill="#0CAFFF" stroke="#0CAFFF" stroke-width="2"/>
<path d="M50.6044 18.5449L42.2434 26.9059C43.2824 28.2959 43.9488 29.9285 44.179 31.6486C44.3443 31.6013 44.5147 31.5739 44.6864 31.5669H55.7044C55.8038 31.576 55.9024 31.5919 55.9997 31.6145C55.6948 26.7815 53.7976 22.1856 50.6044 18.5449Z" fill="white"/>
<path d="M12 33.0358C12.0047 38.6301 14.1378 44.013 17.9662 48.0922C21.7946 52.1713 27.0317 54.6409 32.6144 55C32.5918 54.9027 32.5759 54.8039 32.5668 54.7044V43.6865C32.5739 43.5147 32.6014 43.3444 32.6485 43.1791C31.0912 42.9753 29.6016 42.4166 28.2944 41.546C26.9872 40.6755 25.8974 39.5164 25.109 38.1582C24.3206 36.7999 23.8546 35.2787 23.747 33.7119C23.6394 32.145 23.8931 30.5744 24.4884 29.1211C25.0838 27.6678 26.0049 26.3706 27.1808 25.3296C28.3567 24.2886 29.756 23.5315 31.2708 23.1167C32.7855 22.7019 34.3753 22.6405 35.9175 22.9373C37.4598 23.234 38.9133 23.881 40.1659 24.8282L48.5269 16.4672C45.3452 13.6748 41.4256 11.8592 37.238 11.2382C33.0505 10.6171 28.7727 11.2169 24.9174 12.9656C21.0621 14.7144 17.793 17.5379 15.5019 21.0977C13.2107 24.6575 11.9949 28.8025 12 33.0358Z" fill="white"/>
<path d="M55.7045 34.5045H44.6866C44.5148 34.4976 44.3445 34.4701 44.1792 34.4229C43.8758 36.638 42.8558 38.6931 41.2748 40.2741C39.6938 41.8551 37.6388 42.8751 35.4236 43.1784C35.4706 43.3439 35.4979 43.5143 35.505 43.6861V54.7041C35.4959 54.8036 35.48 54.9023 35.4574 54.9996C40.792 54.6538 45.8186 52.3784 49.5986 48.5983C53.3787 44.8182 55.654 39.7916 55.9998 34.4569C55.9026 34.4796 55.8039 34.4955 55.7045 34.5045Z" fill="white"/>
</svg>
