<svg width="71" height="71" viewBox="0 0 71 71" fill="none" xmlns="http://www.w3.org/2000/svg">
<rect x="1" y="1" width="68.3066" height="68.3066" rx="6.83067" fill="#7180D3" stroke="#7180D3" stroke-width="1.70767"/>
<path d="M21.5893 47.8217C21.9937 47.8217 22.3215 47.4939 22.3215 47.0896C22.3215 46.6852 21.9937 46.3574 21.5893 46.3574C21.185 46.3574 20.8572 46.6852 20.8572 47.0896C20.8572 47.4939 21.185 47.8217 21.5893 47.8217Z" fill="white"/>
<path d="M16.4643 46.3573H16.5229C16.6826 45.2442 17.205 44.2148 18.0091 43.4287H16.4643C15.6556 43.4287 15 44.0843 15 44.893C15 45.7017 15.6556 46.3573 16.4643 46.3573Z" fill="white"/>
<path d="M47.2143 36.8393H55.8829C55.8431 36.6608 55.79 36.4856 55.724 36.3151L51.3033 25.5782C51.1903 25.3039 50.9228 25.1249 50.6261 25.125H46.4822V36.1071C46.4822 36.5115 46.81 36.8393 47.2143 36.8393Z" fill="white"/>
<path d="M39.8929 20H15.7321C15.3278 20 15 20.3278 15 20.7321V41.2321C15 41.6365 15.3278 41.9643 15.7321 41.9643H40.625V20.7321C40.625 20.3278 40.2972 20 39.8929 20ZM19.3929 22.9286H17.1964C16.7921 22.9286 16.4643 22.6008 16.4643 22.1964C16.4643 21.7921 16.7921 21.4643 17.1964 21.4643H19.3929C19.7972 21.4643 20.125 21.7921 20.125 22.1964C20.125 22.6008 19.7972 22.9286 19.3929 22.9286ZM38.4286 22.9286H22.3214C21.9171 22.9286 21.5893 22.6008 21.5893 22.1964C21.5893 21.7921 21.9171 21.4643 22.3214 21.4643H38.4286C38.8329 21.4643 39.1607 21.7921 39.1607 22.1964C39.1607 22.6008 38.8329 22.9286 38.4286 22.9286Z" fill="white"/>
<path d="M21.5892 43.4287C19.5674 43.4287 17.9285 45.0677 17.9285 47.0894C17.9285 49.1112 19.5674 50.7501 21.5892 50.7501C23.6109 50.7501 25.2499 49.1112 25.2499 47.0894C25.2499 45.0677 23.6109 43.4287 21.5892 43.4287ZM21.5892 49.2859C20.3761 49.2859 19.3928 48.3025 19.3928 47.0894C19.3928 45.8764 20.3761 44.893 21.5892 44.893C22.8022 44.893 23.7856 45.8764 23.7856 47.0894C23.782 48.301 22.8007 49.2822 21.5892 49.2859Z" fill="white"/>
<path d="M45.7501 43.4287C43.7283 43.4287 42.0894 45.0677 42.0894 47.0894C42.0894 49.1112 43.7283 50.7501 45.7501 50.7501C47.7718 50.7501 49.4108 49.1112 49.4108 47.0894C49.4108 45.0677 47.7718 43.4287 45.7501 43.4287ZM45.7501 49.2859C44.537 49.2859 43.5536 48.3025 43.5536 47.0894C43.5536 45.8764 44.537 44.893 45.7501 44.893C46.9631 44.893 47.9465 45.8764 47.9465 47.0894C47.9429 48.301 46.9616 49.2822 45.7501 49.2859Z" fill="white"/>
<path d="M50.8165 46.3571H55.2679C55.6723 46.3571 56.0001 46.0294 56.0001 45.625V44.1607H55.2679C54.8636 44.1607 54.5358 43.8329 54.5358 43.4286C54.5358 43.0242 54.8636 42.6964 55.2679 42.6964H56.0001V41.2321H55.2679C54.8636 41.2321 54.5358 40.9044 54.5358 40.5C54.5358 40.0956 54.8636 39.7679 55.2679 39.7679H56.0001V38.3036H47.2144C46.0013 38.3036 45.0179 37.3202 45.0179 36.1071V25.125H42.0894V41.9643H45.7501C48.2954 41.9673 50.4529 43.8379 50.8165 46.3571Z" fill="white"/>
<path d="M26.6557 46.3573H40.6835C40.8433 45.2442 41.3657 44.2148 42.1698 43.4287H25.1694C25.9736 44.2148 26.496 45.2442 26.6557 46.3573Z" fill="white"/>
<path d="M45.75 47.8217C46.1543 47.8217 46.4821 47.4939 46.4821 47.0896C46.4821 46.6852 46.1543 46.3574 45.75 46.3574C45.3456 46.3574 45.0178 46.6852 45.0178 47.0896C45.0178 47.4939 45.3456 47.8217 45.75 47.8217Z" fill="white"/>
</svg>
