<svg xmlns="http://www.w3.org/2000/svg" viewBox="0 0 64 70" x="0px" y="0px">
<path d="M58.05254,36.04333l-4.02026-6.74049a2.9071,2.9071,0,0,1-.29006-1.2601V21.9323a1.003,1.003,0,0,0-1.00007-1.00008H7.75882a.99607.99607,0,0,0-.96009.72009,29.02086,29.02086,0,0,0,5.24038,26.04191l1,1.24008c1.52807,1.61737.95094,5.06746,1.05019,7.08055a.99691.99691,0,0,0,.89.99006l27.372,2.99015a1.0201,1.0201,0,0,0,1.11013-1V54.21473a1.30637,1.30637,0,0,1,1.29007-1.29014H50.172a3.5788,3.5788,0,0,0,3.57027-3.57027V39.50361a.28628.28628,0,0,1,.28-.28011c1.27536-.05335,3.22344.35537,3.98034-1.02A2.1843,2.1843,0,0,0,58.05254,36.04333Z"/><path d="M29.71919,8.69163l1.28135-1.28135v8.54409a1.00027,1.00027,0,0,0,2.00015-.00006v-8.544L34.282,8.69163A1.00016,1.00016,0,0,0,35.69614,7.2774L32.708,4.28926a1.0096,1.0096,0,0,0-1.41478,0L28.305,7.27746A1.00015,1.00015,0,0,0,29.71919,8.69163Z"/><path d="M14.63165,15.76637a1.00013,1.00013,0,0,0,1.00007-1.00007V12.95415l6.04146,6.04146a1.00016,1.00016,0,0,0,1.41411-1.41422L17.04589,11.54h1.81263a1.00027,1.00027,0,0,0-.00006-2.00015H14.63165a1.01011,1.01011,0,0,0-1.00008,1.00008V14.7663A1.00013,1.00013,0,0,0,14.63165,15.76637Z"/>
<path d="M41.621,19.28861a.99683.99683,0,0,0,.70708-.293l6.04147-6.04146V14.7663a1.00026,1.00026,0,0,0,2.00014-.00006V10.53991a1.01006,1.01006,0,0,0-1.00007-1.00008H45.1427a1.00008,1.00008,0,0,0,0,2.00015h1.81264l-6.04147,6.04147A1.00681,1.00681,0,0,0,41.621,19.28861Z"/></svg>