<svg width="42" height="42" viewBox="0 0 42 42" fill="none" xmlns="http://www.w3.org/2000/svg">
<circle cx="21" cy="21" r="20" fill="#195583" stroke="#FD0101" stroke-width="2"/>
<path d="M18.4688 27.5019C19.3582 28.1002 20.404 28.4214 21.4996 28.4214C22.5952 28.4214 23.6414 28.0998 24.5313 27.501C23.9914 28.8679 22.8158 29.7902 21.4996 29.7902C20.1838 29.7902 19.0092 28.8684 18.4688 27.5019Z" fill="white"/>
<path d="M28.3636 32.3259C28.3636 32.6979 28.0617 32.9998 27.6898 32.9998H15.3099C14.938 32.9998 14.6361 32.6979 14.6361 32.3259C14.6361 30.3184 15.5579 28.5216 17.0003 27.3379C17.5825 29.5673 19.4094 31.1378 21.4996 31.1378C23.5898 31.1378 25.4168 29.5673 25.9994 27.3383C27.4418 28.522 28.3636 30.3184 28.3636 32.3259Z" fill="white"/>
<path d="M13.8033 19.8342C13.5123 19.8342 13.2439 19.6443 13.1573 19.351L12.7096 17.8338L11.8665 18.6769C11.6964 18.847 11.4487 18.9137 11.2161 18.8514C10.9837 18.7894 10.802 18.6081 10.7394 18.3758L10.0234 15.7185C9.92656 15.3592 10.1393 14.9894 10.4986 14.8926C10.8583 14.7956 11.2278 15.0086 11.3246 15.3678L11.7375 16.9L12.5584 16.0791C12.7264 15.9111 12.9706 15.844 13.201 15.9025C13.4314 15.9612 13.6138 16.1369 13.6811 16.3648L14.4498 18.9695C14.5552 19.3264 14.3512 19.7011 13.9943 19.8065C13.9307 19.8253 13.8664 19.8342 13.8033 19.8342Z" fill="white"/>
<path d="M16.0144 15.7897C16.0039 15.7897 15.9933 15.7895 15.9826 15.7889C15.6109 15.7717 15.3236 15.4563 15.3409 15.0846L15.4143 13.5044L14.3418 14.0252C14.1254 14.1302 13.8694 14.112 13.6701 13.9773C13.4708 13.8425 13.3584 13.6117 13.3753 13.3718L13.5684 10.6265C13.5945 10.2553 13.9165 9.97583 14.2879 10.0017C14.6591 10.0278 14.9388 10.3498 14.9127 10.7211L14.8014 12.304L15.8457 11.797C16.0595 11.6932 16.3123 11.7098 16.5107 11.8406C16.7092 11.9714 16.8242 12.197 16.8131 12.4345L16.687 15.1473C16.6703 15.5082 16.3722 15.7897 16.0144 15.7897Z" fill="white"/>
<path d="M26.9845 15.7899C26.6267 15.7899 26.3287 15.5085 26.3119 15.1473L26.1858 12.4346C26.1747 12.1971 26.2896 11.9714 26.4881 11.8406C26.6866 11.7098 26.9393 11.6933 27.1531 11.7971L28.1975 12.3041L28.0862 10.7212C28.0601 10.3499 28.3398 10.0278 28.711 10.0017C29.0829 9.97539 29.4044 10.2553 29.4305 10.6266L29.6236 13.3718C29.6405 13.6119 29.5281 13.8426 29.3288 13.9773C29.1296 14.1121 28.8735 14.1303 28.6571 14.0253L27.5846 13.5047L27.6581 15.0848C27.6754 15.4565 27.388 15.7719 27.0163 15.7892C27.0056 15.7897 26.995 15.7899 26.9845 15.7899Z" fill="white"/>
<path d="M29.1968 19.8342C29.1336 19.8342 29.0694 19.8252 29.0057 19.8064C28.6488 19.7011 28.4449 19.3263 28.5502 18.9694L29.3189 16.3648C29.3862 16.1368 29.5686 15.9612 29.799 15.9025C30.0293 15.8439 30.2735 15.911 30.4416 16.0791L31.2625 16.9L31.6754 15.3678C31.7722 15.0085 32.142 14.7956 32.5014 14.8926C32.8607 14.9894 33.0734 15.3592 32.9766 15.7185L32.2606 18.3757C32.198 18.608 32.0163 18.7893 31.7839 18.8514C31.5515 18.9136 31.3036 18.847 31.1335 18.6769L30.2904 17.8338L29.8427 19.3509C29.7562 19.6442 29.4877 19.8342 29.1968 19.8342Z" fill="white"/>
<path d="M20.0925 14.2211C19.8089 14.2211 19.545 14.0405 19.4521 13.7562L18.933 12.1663C18.8175 11.8125 19.0106 11.4321 19.3644 11.3166C19.7181 11.2012 20.0986 11.3943 20.2141 11.7481L20.7332 13.338C20.8487 13.6917 20.6556 14.0721 20.3018 14.1876C20.2323 14.2103 20.1618 14.2211 20.0925 14.2211Z" fill="white"/>
<path d="M22.907 14.2203C22.8377 14.2203 22.7673 14.2095 22.6978 14.1868C22.344 14.0713 22.1509 13.6909 22.2664 13.3371L22.7855 11.7472C22.9009 11.3934 23.2812 11.2 23.6351 11.3158C23.9889 11.4313 24.1821 11.8117 24.0666 12.1654L23.5474 13.7554C23.4546 14.0397 23.1907 14.2203 22.907 14.2203Z" fill="white"/>
<path d="M25.5987 20.5127V21.1811C23.1806 21.682 22.151 19.9628 22.0899 19.8559C21.974 19.6376 21.7498 19.5046 21.5023 19.5028H21.4974C21.2512 19.5028 21.0266 19.6417 20.9084 19.8577C20.9058 19.8627 20.6295 20.3388 20.0603 20.7319C19.3182 21.2444 18.4248 21.3949 17.401 21.1816V20.5127C17.401 18.2495 19.2365 16.4141 21.4996 16.4141H21.5001C23.7632 16.4141 25.5987 18.2495 25.5987 20.5127Z" fill="white"/>
<path d="M25.5987 22.5513V22.974C25.5987 24.106 25.1396 25.1311 24.3979 25.8723C23.6558 26.614 22.6316 27.0735 21.5001 27.0735H21.4996C19.2356 27.0735 17.401 25.2376 17.401 22.974V22.5517C18.592 22.8077 20.1566 22.3799 20.8258 21.8411C21.0962 21.6542 21.3195 21.4566 21.4996 21.2715C21.6797 21.4566 21.903 21.6542 22.1734 21.8411C22.872 22.3231 24.0094 22.8069 25.5987 22.5513Z" fill="white"/>
</svg>
