<svg width="42" height="42" viewBox="0 0 42 42" fill="none" xmlns="http://www.w3.org/2000/svg">
<circle cx="21" cy="21" r="20" fill="#195583" stroke="#FD0101" stroke-width="2"/>
<path d="M19.9094 26.2379C20.6555 25.3571 20.9745 24.199 20.7848 23.0605L20.2267 19.7119H13.6117L13.0536 23.0605C12.8638 24.199 13.183 25.3571 13.929 26.2379C14.5016 26.9137 15.2769 27.3672 16.128 27.5422V32.4235H14.0173V34.0058H19.8211V32.4235H17.7104V27.5422C18.5616 27.3672 19.3369 26.9137 19.9094 26.2379Z" fill="white"/>
<path d="M29.9999 21.2939H26.3077V27.0959H29.9999V21.2939Z" fill="white"/>
<path d="M27.0989 7H22.3519V10.1647H27.0989V7Z" fill="white"/>
<path d="M30 19.7116V18.182C30 16.4177 28.756 14.9383 27.099 14.5752V11.7471H22.352V14.5752C20.7117 14.9347 19.4767 16.3883 19.4521 18.1292H21.5672L21.7875 19.4514L22.3456 22.8C22.612 24.3983 22.1641 26.024 21.1168 27.2604C20.6527 27.8081 20.0839 28.2579 19.451 28.5864V30.8408H21.4035V34.0055H30V28.6783H24.7255V19.7116H30Z" fill="white"/>
</svg>
