<svg xmlns="http://www.w3.org/2000/svg" version="1.1" viewBox="-5.0 -10.0 110.0 135.0">
 <path d="m16.391 7.3789c0.39453-0.39062 1.0312-0.38281 1.4219 0.011719s0.38281 1.0312-0.011719 1.4219c-2.3711 2.3203-3.6367 5.4375-3.7617 8.6016-0.125 3.1641 0.88672 6.3711 3.0625 8.8711 0.36719 0.41797 0.32422 1.0508-0.09375 1.418-0.41797 0.36719-1.0508 0.32422-1.418-0.09375-2.5312-2.9023-3.707-6.6133-3.5586-10.273 0.14453-3.6602 1.6094-7.2695 4.3594-9.957zm4.6758 4.3398c0.39453-0.39062 1.0312-0.38281 1.4219 0.011719s0.38281 1.0312-0.011719 1.4219c-1.2461 1.2188-1.9102 2.8555-1.9766 4.5195s0.46484 3.3516 1.6055 4.6602c0.36719 0.41797 0.32422 1.0508-0.09375 1.418s-1.0508 0.32422-1.418-0.09375c-1.4961-1.7148-2.1875-3.9062-2.1016-6.0625 0.085937-2.1602 0.95312-4.2891 2.5742-5.875zm-10.125-7.9883c-3.6562 3.8008-5.5117 8.7383-5.5859 13.723-0.074219 5.0078 1.6484 10.074 5.1523 14.094 0.36719 0.41797 1 0.46094 1.418 0.09375s0.46094-1 0.09375-1.418c-3.168-3.6289-4.7266-8.2109-4.6562-12.742 0.066407-4.4922 1.7383-8.9336 5.0273-12.355 0.38672-0.39844 0.37109-1.0352-0.027344-1.4219-0.40234-0.38281-1.0391-0.37109-1.4219 0.027344zm71.258 5.0781c-0.39453-0.39062-0.40234-1.0273-0.011719-1.4219s1.0273-0.40234 1.4219-0.011719c2.75 2.6914 4.2148 6.2969 4.3594 9.957 0.14453 3.6562-1.0312 7.3711-3.5586 10.273-0.36719 0.41797-1 0.46094-1.418 0.09375-0.41797-0.36719-0.46094-1-0.09375-1.418 2.1797-2.4961 3.1914-5.7031 3.0625-8.8711-0.125-3.1641-1.3906-6.2812-3.7617-8.6016zm-4.6758 4.3438c-0.39453-0.39062-0.40234-1.0273-0.011719-1.4219s1.0273-0.40234 1.4219-0.011719c1.6211 1.5898 2.4883 3.7148 2.5742 5.875 0.085938 2.1562-0.60937 4.3477-2.1016 6.0625-0.36719 0.41797-1 0.46094-1.418 0.09375s-0.46094-1-0.09375-1.418c1.1445-1.3086 1.6719-2.9961 1.6055-4.6602s-0.73047-3.3008-1.9766-4.5195zm10.086-8.0273c3.2891 3.4219 4.9609 7.8633 5.0273 12.355 0.070312 4.5352-1.4883 9.1133-4.6562 12.75-0.36719 0.41797-0.32422 1.0508 0.09375 1.418 0.41797 0.36719 1.0508 0.32422 1.418-0.09375 3.5039-4.0195 5.2305-9.0859 5.1523-14.094-0.074219-4.9883-1.9297-9.9219-5.5859-13.723-0.38281-0.39844-1.0195-0.41406-1.4219-0.027343-0.39844 0.37891-0.41016 1.0156-0.027344 1.4141zm-37.609-1.8906c1.1992 0 2.1719 0.97266 2.1719 2.1719s-0.97266 2.1719-2.1719 2.1719-2.1719-0.97266-2.1719-2.1719 0.97266-2.1719 2.1719-2.1719zm-1.0078 9.1406h2.0156v-5.0469c-0.62891 0.32812-1.3906 0.32812-2.0156 0zm-8.2656 30.535h23.098l-0.82422-3.8047-26 0.003906-0.82422 3.8047zm-4.6406-15.668 3.2891 11.867h-2.375l-0.050781 0.22266h-0.03125l-5.7539-17.906h37.668l-5.7539 17.906h-0.03125l-0.050781-0.22266h-2.3711l3.2891-11.867h-5.9961l-2.1914 11.867h-3.1836l1.4648-11.867h-8.0156l1.4648 11.867h-3.1836l-2.1914-11.867zm30.719 23.816h-33.609v2.7969h33.609zm-10.012-38.684-0.87109 2.6133h-11.844l-0.87109-2.6133zm16.551 4.6289h-46.688v2.4062h46.688zm-15.078 27.926h-16.531v4.1172h16.531zm0 51.836v-40.895h-16.531v40.895z" fill-rule="evenodd"/>
</svg>