<svg xmlns="http://www.w3.org/2000/svg" viewBox="0 0 24 30" x="0px" y="0px"><title>close, delete, remove, file, user interface</title><g data-name="Layer 2">
<path fill="#FF4C4A" d="M19.07,4.93a10,10,0,1,0,0,14.14A10,10,0,0,0,19.07,4.93Zm-2.83,9.9a1,1,0,1,1-1.41,1.41L12,13.41,9.17,16.24a1,1,0,1,1-1.41-1.41L10.59,12,7.76,9.17A1,1,0,0,1,9.17,7.76L12,10.59l2.83-2.83a1,1,0,1,1,1.41,1.41L13.41,12Z"/>
<path fill="#FF4C4A" d="M12,23a11,11,0,1,1,7.78-3.21h0A11,11,0,0,1,12,23ZM12,3a9,9,0,1,0,6.36,15.36h0A9,9,0,0,0,12,3Z"/></g></svg>