<svg width="44" height="44" viewBox="0 0 44 44" fill="none" xmlns="http://www.w3.org/2000/svg">
<circle cx="22" cy="22" r="20" fill="#195583" stroke="#FD0101" stroke-width="2.5"/>
<path d="M20.6189 11.1145C19.7505 11.2724 18.8899 11.833 18.3925 12.5751L18.2306 12.812L17.3069 13.2028C16.1384 13.6923 15.8936 13.8226 15.6923 14.0397C15.3607 14.3989 15.1988 14.9634 15.2936 15.4174C15.3173 15.5279 15.8423 16.803 16.4621 18.2558C17.0819 19.7045 17.5793 20.9046 17.5714 20.9244C17.5595 20.9402 17.4371 21.0152 17.299 21.0941C17.1608 21.1731 16.9555 21.3073 16.845 21.3941C16.7345 21.481 16.6358 21.552 16.6239 21.552C16.6081 21.552 15.9094 20.9836 15.0646 20.2927C14.2238 19.598 13.4974 19.0137 13.454 18.99C13.3316 18.9229 13.2329 18.9387 13.1105 19.0335L13 19.1203L13.0276 20.7902C13.0395 21.706 13.0632 22.4837 13.075 22.5153C13.0868 22.5469 13.454 22.8627 13.8922 23.214C14.3304 23.5653 14.7133 23.8772 14.7449 23.9048C14.7962 23.9483 14.7804 23.9838 14.6422 24.1456C14.283 24.5759 14.0422 24.9944 13.8645 25.4997C13.7737 25.7642 13.0513 29.2381 13.0513 29.4197C13.0513 29.5263 13.229 29.6842 13.3474 29.6842C13.4066 29.6842 13.904 29.4355 14.4962 29.1078C15.0725 28.792 15.5462 28.5354 15.5502 28.5433C15.5581 28.5512 15.5897 28.6262 15.6252 28.7052C15.7357 28.942 16.4542 29.771 16.6476 29.8816C16.8805 30.0158 17.295 30.0197 17.5398 29.8895C17.7372 29.7868 17.9267 29.5618 17.9977 29.3526C18.0451 29.2065 18.0688 29.1907 18.2109 29.1631C18.5662 29.1039 18.8425 28.8749 18.953 28.5512C19.0004 28.417 19.0241 28.4012 19.2452 28.338C19.3833 28.3025 19.557 28.2196 19.6478 28.1486C19.7465 28.0696 19.8215 28.0341 19.8531 28.0538C19.8807 28.0696 20.2123 28.3341 20.5834 28.6341L21.2624 29.1868V29.4947C21.2624 29.771 21.2743 29.8184 21.3611 29.9013L21.4558 30H23.7889H26.122L26.2167 29.9013C26.343 29.7789 26.347 29.5934 26.2285 29.475C26.1772 29.4276 25.6088 28.9539 24.9653 28.4249L23.7889 27.4617V27.2288C23.7889 27.1024 23.8007 26.9998 23.8126 26.9998C23.9547 26.9998 24.2626 27.138 24.3337 27.2327C24.4363 27.3709 24.7877 27.5525 24.9574 27.5525C25.0679 27.5525 25.0837 27.5683 25.1074 27.6867C25.1666 27.9907 25.5219 28.3104 25.8654 28.3657C26.0154 28.3894 26.0351 28.4052 26.118 28.6025C26.2522 28.9341 26.4812 29.0999 26.9075 29.1868C26.9825 29.2026 27.022 29.2539 27.0773 29.4039C27.251 29.8934 27.8352 30.1303 28.3366 29.9132C28.5024 29.8421 28.609 29.7434 28.9445 29.3526C29.1695 29.0881 29.3867 28.7999 29.4222 28.7091C29.4617 28.6144 29.5051 28.5394 29.5248 28.5394C29.5406 28.5394 30.0143 28.796 30.5749 29.1118C31.167 29.4434 31.6447 29.6842 31.7039 29.6842C31.8224 29.6842 32 29.5263 32 29.4197C32 29.2223 31.2776 25.7523 31.1749 25.4602C31.0605 25.1365 31.0565 25.0931 31.0407 24.2759C31.0249 23.5732 31.0091 23.3759 30.942 23.1311C30.571 21.7968 29.513 20.8178 28.1905 20.5849C27.9616 20.5454 27.5865 20.5257 27.0812 20.5257H26.3154V20.0559V19.5822L27.0812 19.5703C27.9379 19.5585 27.9971 19.5387 28.1432 19.2585C28.2063 19.1321 28.2103 18.9505 28.1984 16.5385C28.1866 14.0239 28.1866 13.9449 28.1037 13.6568C27.7129 12.3106 26.6667 11.3434 25.3482 11.1105C24.8666 11.0276 21.0848 11.0276 20.6189 11.1145ZM25.5851 11.8093C26.043 11.9672 26.3707 12.1724 26.7299 12.5317C27.0891 12.8909 27.2944 13.2186 27.4523 13.6765L27.5589 13.9923L27.5707 16.4675L27.5826 18.9466H26.2285H24.8745L24.7916 18.615L24.7127 18.2795L24.9614 18.1729C25.2574 18.0505 25.518 17.8097 25.6522 17.5373C25.7272 17.3794 25.743 17.2846 25.743 16.9925C25.743 16.6846 25.7272 16.6096 25.6364 16.4398C25.5377 16.2504 25.3285 16.0253 25.139 15.8951C25.0719 15.8517 24.9179 15.5398 24.614 14.8253C24.3771 14.2726 24.1284 13.7239 24.0613 13.6094C23.5086 12.6699 22.4664 12.0106 21.4085 11.9277C20.8992 11.8882 20.4058 11.9395 20.015 12.0698C19.8334 12.133 19.6834 12.1764 19.6834 12.1724C19.6834 12.1448 20.0623 11.9435 20.2479 11.8724C20.7058 11.6948 20.8479 11.6869 23.1178 11.6948L25.2693 11.7027L25.5851 11.8093ZM21.8072 15.3779C21.9888 15.4529 22.1941 15.6464 22.2888 15.8319C22.3441 15.9385 22.4822 16.049 22.8336 16.274L23.3033 16.578L23.7021 17.5136C24.2074 18.7058 24.2429 18.8282 24.2389 19.4795C24.2389 20.0559 24.16 20.4151 23.9429 20.8533C23.5481 21.6389 22.9836 22.1323 22.0717 22.4955C21.1953 22.839 20.39 22.8074 19.5886 22.3889C19.2373 22.2074 18.7241 21.7218 18.5267 21.3902C18.4477 21.252 18.2109 20.7388 18.0017 20.2493L17.6227 19.3611L17.6503 18.769C17.6977 17.6676 17.7293 17.4623 17.8872 17.1465C18.128 16.653 18.2267 16.5899 19.8215 15.9069C21.069 15.374 21.2269 15.3148 21.4322 15.3148C21.5585 15.3148 21.7243 15.3424 21.8072 15.3779ZM24.8824 16.4951C25.1429 16.6886 25.2061 17.0991 25.0127 17.3675C24.914 17.5057 24.5153 17.7149 24.464 17.6597C24.4403 17.632 24.0889 16.8307 24.0021 16.6017C23.9863 16.5543 24.0258 16.5149 24.1481 16.4596C24.3811 16.3491 24.7087 16.3688 24.8824 16.4951ZM25.6838 20.0519V20.5257H25.214H24.7482L24.7995 20.3046C24.8271 20.1822 24.8627 19.969 24.8745 19.8309L24.9021 19.5782H25.293H25.6838V20.0519ZM16.7542 22.4955C18.432 23.8733 19.7939 25.0062 19.786 25.0141C19.7781 25.022 19.7268 25.0102 19.6676 24.9865C19.2373 24.8246 18.6293 25.1365 18.4912 25.5865C18.4517 25.7168 18.428 25.7365 18.274 25.7681L18.0964 25.8076L15.9015 24.0272C14.6935 23.0521 13.6987 22.2508 13.6948 22.2468C13.6908 22.2429 13.675 21.7297 13.6593 21.102C13.6435 20.3638 13.6474 19.969 13.6711 19.9769C13.6908 19.9848 15.0804 21.1178 16.7542 22.4955ZM28.4274 21.2876C28.8853 21.4376 29.213 21.6468 29.5722 22.006C30.0893 22.5232 30.3578 23.0995 30.4091 23.8022L30.4328 24.1496L30.1683 23.8969C29.6512 23.4035 29.0235 23.0561 28.2497 22.8429C27.9734 22.7679 27.8313 22.76 26.1891 22.7442L24.4205 22.7324V22.0218C24.4205 21.5915 24.4363 21.2797 24.464 21.2323C24.5034 21.1533 24.539 21.1533 26.3075 21.1652L28.1116 21.181L28.4274 21.2876ZM18.0175 21.7652C18.2188 22.0731 18.4951 22.385 18.7478 22.5863L18.9412 22.7363H18.4912H18.0411L17.6069 22.3811C17.37 22.1876 17.1766 22.0021 17.1766 21.9784C17.1766 21.931 17.7688 21.5126 17.8319 21.5126C17.8438 21.5126 17.9306 21.6271 18.0175 21.7652ZM23.781 22.8745C23.7652 23.368 23.7613 23.3956 23.631 23.6364C23.4849 23.9127 23.3626 24.0312 23.0625 24.1891C22.8928 24.2759 22.8099 24.2917 22.5257 24.2917C22.2177 24.2957 22.1704 24.2838 21.9414 24.1614C21.8032 24.0864 21.6493 23.972 21.594 23.9088C21.4914 23.7904 21.3019 23.439 21.3019 23.3759C21.3019 23.3561 21.3887 23.3285 21.4953 23.3166C22.0243 23.2535 22.9757 22.8311 23.4613 22.4403C23.8244 22.1481 23.8047 22.1205 23.781 22.8745ZM23.6902 25.3615C24.0179 25.4207 24.6179 25.5707 24.6534 25.6023C24.6613 25.6063 24.5666 25.7287 24.4482 25.8708C24.3258 26.0129 24.2074 26.1905 24.1797 26.2695C24.1521 26.3445 24.1205 26.4076 24.1047 26.4076C24.0929 26.4076 23.8994 26.3682 23.6705 26.3208C23.331 26.2497 23.1218 26.2339 22.5257 26.2339C21.9296 26.2339 21.7203 26.2497 21.3808 26.3208C21.1519 26.3682 20.9584 26.4076 20.9466 26.4076C20.9308 26.4076 20.8992 26.3445 20.8716 26.2695C20.844 26.1945 20.7255 26.0129 20.6071 25.8708C20.4887 25.7247 20.3979 25.6023 20.4018 25.5944C20.4097 25.5905 20.5913 25.5392 20.8084 25.4839C21.1519 25.397 21.3216 25.3694 21.9138 25.2865C22.1664 25.251 23.3507 25.3023 23.6902 25.3615ZM19.6518 25.7247C20.015 26.0997 20.315 26.5063 20.315 26.6169C20.315 26.8261 20.0702 26.9761 19.8649 26.8972C19.8294 26.8853 19.6399 26.68 19.4465 26.4471C19.0557 25.9774 19.0083 25.8471 19.1781 25.6694C19.3123 25.5273 19.4781 25.5471 19.6518 25.7247ZM25.8575 25.6615C25.9364 25.7208 25.9601 25.776 25.9601 25.8866C25.9601 26.0129 25.9088 26.0918 25.5851 26.4748C25.2219 26.9011 25.1982 26.9208 25.0522 26.9208C24.8074 26.9208 24.6653 26.6879 24.7837 26.4748C24.8469 26.3563 25.439 25.6655 25.518 25.6181C25.6246 25.5589 25.743 25.5707 25.8575 25.6615ZM18.5149 26.4037C18.5662 26.4274 18.7715 26.6327 18.9688 26.8616C19.2886 27.2327 19.3281 27.2998 19.3281 27.434C19.3281 27.5525 19.3044 27.6038 19.2254 27.6669C19.0557 27.8012 18.9412 27.7735 18.7438 27.5604C18.4083 27.2051 18.1043 26.7985 18.1043 26.7116C18.1043 26.5656 18.2188 26.4353 18.4083 26.3721C18.4122 26.3682 18.4596 26.384 18.5149 26.4037ZM26.8641 26.5103C27.0181 26.7077 26.9944 26.7669 26.5167 27.3274C26.1299 27.7854 26.0351 27.8327 25.8259 27.6669C25.7469 27.6038 25.7232 27.5525 25.7232 27.438C25.7232 27.3077 25.7706 27.2367 26.0983 26.8498C26.4575 26.4274 26.4812 26.4076 26.6312 26.4076C26.7496 26.4076 26.801 26.4313 26.8641 26.5103ZM23.0112 26.8656L23.1573 26.8932V28.1288V29.3684H22.5257H21.894V28.1288V26.8853L22.0046 26.8695C22.1822 26.8419 22.8494 26.8419 23.0112 26.8656ZM21.2624 27.6709C21.2624 28.038 21.2506 28.342 21.2387 28.342C21.2269 28.342 20.9979 28.1604 20.7255 27.9433L20.236 27.5406L20.3821 27.4735C20.465 27.438 20.5953 27.3472 20.6663 27.2722C20.7847 27.1537 21.0729 27.0116 21.215 27.0037C21.2506 26.9998 21.2624 27.1577 21.2624 27.6709ZM17.5911 27.2367C17.6701 27.2801 18.2662 27.963 18.3333 28.0933C18.4004 28.2196 18.3925 28.3183 18.2977 28.4367C18.2346 28.5157 18.1833 28.5394 18.0648 28.5394C17.9188 28.5394 17.8951 28.5196 17.5319 28.0933C17.2082 27.7104 17.1569 27.6314 17.1569 27.5051C17.1569 27.2761 17.3898 27.1301 17.5911 27.2367ZM27.8273 27.3196C27.9695 27.4972 27.9221 27.6275 27.5352 28.0814C27.3378 28.3144 27.1326 28.5236 27.0773 28.5433C26.8799 28.6183 26.6312 28.3894 26.6825 28.1801C26.7062 28.0814 27.176 27.5011 27.3892 27.3038C27.4878 27.209 27.5313 27.1932 27.6339 27.213C27.701 27.2248 27.7879 27.2761 27.8273 27.3196ZM17.0148 28.4644C17.2161 28.7012 17.3937 28.942 17.4016 28.9934C17.4411 29.1986 17.2279 29.4039 17.0305 29.3565C16.9674 29.3407 16.8055 29.1868 16.616 28.9657C16.2252 28.5078 16.17 28.4249 16.17 28.3104C16.17 28.1722 16.3397 28.0262 16.5016 28.0262C16.6318 28.0262 16.6713 28.0617 17.0148 28.4644ZM28.7629 28.1051C28.8695 28.2117 28.8972 28.3538 28.834 28.4723C28.8064 28.5275 28.6287 28.7525 28.4353 28.9697C28.1392 29.3131 28.0721 29.3684 27.9695 29.3684C27.9023 29.3684 27.8155 29.3526 27.776 29.3289C27.6813 29.2776 27.6102 29.0723 27.6576 28.9618C27.6931 28.867 28.1945 28.2591 28.3524 28.113C28.4748 28.0064 28.6563 27.9985 28.7629 28.1051ZM24.4403 28.8078C24.7442 29.0565 25.0206 29.2855 25.0522 29.3131C25.0995 29.3605 25.0087 29.3684 24.4482 29.3684H23.7889V28.8315C23.7889 28.417 23.8007 28.3025 23.8402 28.3262C23.8639 28.3459 24.1363 28.5591 24.4403 28.8078Z" fill="white"/>
<path d="M21.2426 17.7075C20.8755 17.8654 20.5558 18.0036 20.5321 18.0115C20.4887 18.0273 20.7058 18.5918 20.7531 18.5918C20.7926 18.5918 22.1032 18.0352 22.1427 17.9997C22.1743 17.972 22.0006 17.4983 21.9414 17.443C21.9256 17.4272 21.6137 17.5457 21.2426 17.7075Z" fill="white"/>
<path d="M18.8944 18.7027C18.5155 18.8685 18.1957 19.0067 18.1878 19.0146C18.1602 19.0343 18.3931 19.5791 18.4286 19.5791C18.4799 19.5791 19.7748 19.0264 19.8182 18.987C19.8498 18.9554 19.6603 18.4461 19.609 18.4185C19.5971 18.4106 19.2734 18.5409 18.8944 18.7027Z" fill="white"/>
<path d="M21.1514 20.8337C20.5356 21.0982 20.3342 21.2009 20.2948 21.2759C20.2119 21.4259 20.2237 21.5088 20.354 21.6391C20.4527 21.7377 20.4961 21.7535 20.5948 21.7338C20.8277 21.6904 22.2133 21.0706 22.2686 20.9877C22.3475 20.8732 22.3436 20.7114 22.2607 20.6087C22.1186 20.4429 22.0041 20.4627 21.1514 20.8337Z" fill="white"/>
</svg>
