<svg width="44" height="44" viewBox="0 0 44 44" fill="none" xmlns="http://www.w3.org/2000/svg">
<circle cx="22" cy="22" r="20" fill="#195583" stroke="#FD0101" stroke-width="2.5"/>
<circle cx="22" cy="22" r="12" fill="white"/>
<path d="M28.0711 22.2224C27.9971 21.8526 27.8492 21.6677 27.6643 21.5567C27.6643 21.3348 27.6273 21.076 27.5903 20.8541C27.6643 20.6692 27.7013 20.4843 27.7383 20.2624C27.8122 19.8926 27.7383 19.4858 27.7013 19.079C27.6273 18.4873 27.5533 17.8586 27.3684 17.3039C27.2575 16.9341 27.0356 16.5273 26.7028 16.3424C26.5918 16.2685 26.4439 16.2315 26.333 16.1575C26.259 16.0836 26.1851 16.0096 26.1111 15.9356C23.8553 13.31 19.6394 14.0866 17.4576 16.3794C16.9398 16.9341 16.5331 17.5628 16.2002 18.2285C16.1263 18.4134 16.0523 18.6352 16.0153 18.8571C15.9783 19.116 16.0153 19.3749 16.0523 19.5967C16.1632 20.2624 16.3481 20.8911 16.57 21.5198H16.607C16.4221 21.6307 16.2742 21.8156 16.2002 22.1854C16.0153 22.999 16.4221 23.5907 16.9398 23.8495C17.2357 25.0329 17.7534 26.2163 18.4191 27.2148C19.0477 28.1393 20.3421 28.8789 21.3036 29.3227C21.5994 29.4337 21.8953 29.5076 22.1911 29.5076C22.487 29.5076 22.7828 29.4337 23.0787 29.3227C24.0402 28.8789 25.2975 28.1763 25.9262 27.2518C26.6288 26.2533 27.1466 25.0699 27.4424 23.8495C27.9232 23.6646 28.219 23.0729 28.0711 22.2224ZM25.2975 26.919C24.7428 27.7325 23.4485 28.3982 22.7458 28.731C22.376 28.8789 21.9692 28.8789 21.5994 28.731C20.8598 28.3982 19.5655 27.6956 19.0108 26.882C18.1972 25.6986 17.6425 24.1824 17.4576 22.7771H17.4946C17.4576 22.0375 17.4576 21.2609 17.5315 20.5213C17.6055 20.0775 17.7534 19.6707 17.9383 19.3009C18.2342 19.042 18.7149 19.079 19.1217 19.116C19.5655 19.19 19.9723 19.3009 20.3791 19.4488C21.5255 19.7817 22.6349 20.2254 23.8183 20.0405C24.4839 19.9296 25.1126 19.6337 25.7783 19.7077C25.9262 19.7077 26.0741 19.7447 26.1481 19.8556C26.37 20.1145 26.1111 20.5213 26.1481 20.8541C26.1851 21.002 26.259 21.1499 26.333 21.2609C26.5918 21.7047 26.7398 22.2224 26.7398 22.7771H26.7767C26.7028 24.1824 26.1111 25.6986 25.2975 26.919Z" fill="black"/>
<path d="M21.9982 10C24.7745 9.99959 27.465 10.9618 29.6114 12.7228C31.7577 14.4837 33.2271 16.9344 33.7691 19.6573C34.3111 22.3801 33.8922 25.2067 32.5838 27.6553C31.2754 30.104 29.1584 32.0232 26.5936 33.0859C24.0288 34.1487 21.1748 34.2893 18.518 33.4837C15.8612 32.6781 13.5659 30.9762 12.0232 28.668C10.4805 26.3598 9.78586 23.5881 10.0577 20.8251C10.3295 18.0622 11.5509 15.479 13.5138 13.5156C14.6265 12.3993 15.9489 11.514 17.405 10.9106C18.861 10.3073 20.4221 9.9978 21.9982 10ZM30.2423 15.4277L15.4259 30.2441C17.4536 31.8507 20.001 32.656 22.5837 32.5069C25.1664 32.3577 27.6042 31.2646 29.4335 29.4353C31.2628 27.606 32.3559 25.1682 32.5051 22.5855C32.6542 20.0028 31.8489 17.4554 30.2423 15.4277ZM14.3517 29.2597L29.2579 14.3535C27.2586 12.4905 24.6142 11.4763 21.8819 11.5245C19.1495 11.5727 16.5425 12.6796 14.6102 14.612C12.6778 16.5443 11.5709 19.1513 11.5227 21.8837C11.4745 24.616 12.4887 27.2604 14.3517 29.2597Z" fill="black"/>
</svg>
