<svg width="42" height="42" viewBox="0 0 42 42" fill="none" xmlns="http://www.w3.org/2000/svg">
<circle cx="21" cy="21" r="20" fill="#195583" stroke="#FD0101" stroke-width="2"/>
<path d="M26.6421 26.1683C26.4215 25.8792 26.1476 25.6351 25.8354 25.4492C25.8376 25.483 25.8452 25.5152 25.8452 25.5491C25.8465 26.0039 25.6664 26.4405 25.3447 26.7612L24.7866 27.3217C25.4714 27.0569 26.1008 26.6658 26.6421 26.1683Z" fill="white"/>
<path d="M12.6512 31.6217C14.4868 33.46 17.4589 33.46 19.2945 31.6217L24.7408 26.1552C25.0742 25.8204 25.0742 25.2778 24.7408 24.943C24.4028 24.6191 23.8709 24.6191 23.5331 24.943L19.2945 29.1971C19.127 29.3595 18.8605 29.3572 18.6957 29.1919C18.531 29.0266 18.5288 28.7591 18.6905 28.591L23.9981 23.2642L24.4 22.8608C24.6353 22.6426 24.7248 22.3078 24.6297 22.0006C24.533 21.7004 24.2878 21.4718 23.9823 21.3975C23.7078 21.3356 23.4209 21.4191 23.222 21.6187L17.7844 27.0758C17.6771 27.1872 17.5185 27.232 17.3692 27.1926C17.2198 27.1535 17.1032 27.0364 17.064 26.8866C17.025 26.7367 17.0696 26.5774 17.1805 26.4698L22.6153 21.0152L22.8959 20.7332H22.8983L23.2196 20.4109C23.4261 20.2029 23.5121 19.9031 23.4477 19.6167C23.4233 19.5113 23.3801 19.4112 23.3195 19.3218C23.3112 19.3104 23.3034 19.2989 23.2965 19.2865C23.1849 19.1421 23.0337 19.0338 22.8612 18.9751C22.5551 18.8791 22.2212 18.9691 22.0041 19.206L21.6018 19.6094C21.5639 19.6459 21.5194 19.675 21.4707 19.6951C21.4107 19.7838 21.3426 19.8668 21.267 19.9428L15.671 25.5602C15.5033 25.7227 15.2369 25.7203 15.0722 25.555C14.9075 25.3896 14.9052 25.1224 15.067 24.9542L20.664 19.3359C20.9975 19.0012 20.9975 18.4586 20.664 18.1238C20.3261 17.7999 19.7942 17.7999 19.4562 18.1238L13.2342 24.3688C13.0674 24.5363 12.7968 24.5365 12.6298 24.3691C12.4629 24.2018 12.4627 23.9302 12.6293 23.7626L14.6553 21.7302C14.7975 21.491 14.896 21.2282 14.9461 20.9544C15.108 19.8208 14.2825 19.5619 14.115 19.5216C13.9111 19.4785 13.7053 19.5863 13.6236 19.7786C12.8245 21.473 10.2135 24.103 10.1024 24.2161C8.97754 25.3451 8.0445 27.0021 10.8388 29.8048L12.6512 31.6217Z" fill="white"/>
<path d="M24.7113 23.7605L24.6032 23.8685L24.5755 23.8968C24.866 23.9719 25.1312 24.1231 25.3442 24.3352C25.3672 24.3585 25.3834 24.3853 25.4047 24.4094C26.1264 24.5358 26.7738 24.9315 27.2168 25.5169C27.6361 24.9555 27.8668 24.2748 27.8753 23.5732C27.8753 21.869 26.4434 20.3346 24.3133 19.6582C24.3417 19.9676 24.2852 20.2789 24.15 20.5583L24.1658 20.5617C24.7582 20.6964 25.238 21.1307 25.432 21.7084C25.6408 22.3285 25.4746 23.0139 25.0051 23.4681L24.7113 23.7605Z" fill="white"/>
<path d="M33 20.1439C33 13.9892 28.0287 9 21.8965 9C15.7642 9 10.7931 13.9892 10.7931 20.1439C10.7931 20.4246 10.807 20.7054 10.828 20.9848C10.8339 21.0649 10.8425 21.1447 10.8503 21.2245C10.8707 21.4364 10.8973 21.6472 10.9296 21.8567C10.9387 21.9141 10.9467 21.9719 10.9565 22.028C11.6892 21.2343 12.3251 20.3557 12.8506 19.411C13.1028 18.8502 13.715 18.5467 14.3121 18.6865C15.184 18.8908 15.8047 19.6655 15.8165 20.5639L18.8525 17.5169C19.5281 16.8688 20.5922 16.8688 21.2679 17.5169C21.4937 17.7439 21.651 18.0306 21.7214 18.3437C22.146 18.0653 22.6751 17.9993 23.1546 18.165C23.4359 18.2651 23.6883 18.4336 23.8891 18.6554C26.7462 19.3033 28.7294 21.3042 28.7294 23.5728C28.7148 24.6673 28.283 25.7147 27.523 26.4998C26.4524 27.5952 25.0606 28.3177 23.5513 28.5619L20.8844 31.2387C21.2209 31.2694 21.5591 31.2879 21.8973 31.2879C28.0265 31.2806 32.9931 26.2953 33 20.1439ZM20.1029 13.9749C20.0046 14.1059 19.8397 14.1681 19.6796 14.1348C18.6092 13.8874 17.4852 14.1618 16.6476 14.875C16.4799 15.0373 16.2136 15.0351 16.0489 14.8697C15.8841 14.7044 15.8819 14.4371 16.0437 14.2688C16.7878 13.6024 17.7439 13.2237 18.741 13.2004C18.1919 12.8172 17.5051 12.6891 16.8554 12.8489C16.6266 12.8906 16.4068 12.7407 16.3607 12.512C16.3146 12.2833 16.4595 12.0595 16.6864 12.0088C18.0476 11.6749 19.4633 12.2947 20.1456 13.523C20.2184 13.6695 20.2019 13.8448 20.1029 13.9749ZM27.7524 14.875C27.5856 15.0416 27.3159 15.0416 27.1493 14.875C26.3131 14.1588 25.1878 13.8837 24.1172 14.1339C23.9572 14.167 23.7923 14.105 23.6939 13.9739C23.5949 13.844 23.5784 13.6686 23.6512 13.5223C24.3326 12.2951 25.7468 11.6757 27.1066 12.0088C27.2606 12.0341 27.3886 12.1419 27.4402 12.2897C27.492 12.4375 27.4591 12.6019 27.3548 12.7184C27.2504 12.8349 27.091 12.8848 26.9391 12.8489C26.2895 12.6895 25.6031 12.8175 25.0537 13.2004C26.051 13.2233 27.0076 13.6021 27.7518 14.2688C27.9182 14.4367 27.9173 14.7079 27.7501 14.875H27.7524Z" fill="white"/>
</svg>
