<svg xmlns="http://www.w3.org/2000/svg" xmlns:xlink="http://www.w3.org/1999/xlink" version="1.1" x="0px" y="0px" viewBox="-10 0 100 115" enable-background="new 0 0 100 100" xml:space="preserve" transform="scale(-1,1)" transform-origin="center">
    <path d="M42.665,28.066c-0.88-1.467-8.704-2.738-16.236,8.021c-2.151-1.174,0.677-6.342,4.108-9.488  C34.414,23.045,42.665,20.633,42.665,28.066z M57.336,28.066c0.879-1.467,8.705-2.738,16.235,8.021  c2.153-1.174-0.675-6.342-4.107-9.488C65.586,23.045,57.336,20.633,57.336,28.066z M81.893,16.423  C73.373,7.904,62.047,3.213,50,3.213c-12.046,0-23.372,4.691-31.89,13.21C9.592,24.94,4.9,36.266,4.9,48.313  c0,10.625,3.652,20.689,10.359,28.761c-0.21-2.182-0.445-4.631-0.671-6.965c-3.909-6.338-6.167-13.805-6.167-21.796  C8.422,25.35,27.037,6.734,50,6.734S91.58,25.35,91.58,48.313c0,22.964-18.617,41.579-41.58,41.579  c-1.918,0-3.806-0.132-5.657-0.384c-0.655,0.912-1.518,2.021-2.567,3.158c2.686,0.492,5.436,0.748,8.224,0.748  c12.047,0,23.373-4.691,31.893-13.209C90.408,71.686,95.1,60.36,95.1,48.313C95.1,36.266,90.408,24.94,81.893,16.423z   M39.347,46.354L39.347,46.354L39.347,46.354c2.077,0,4.161,1.099,5.389,2.792c1.02-1.434,2.592-2.248,4.375-2.248  c2.311,0,4.631,1.361,5.771,3.386c0.915,1.622,0.956,3.45,0.127,5.075c1.999,0.295,3.888,1.555,4.883,3.32  c0.986,1.749,0.954,3.736-0.083,5.455c-1.305,2.152-10.718,17.712-13.463,22.246c1.153,0.24,2.369,0.371,3.654,0.371  c19.605,0,23.275-29.545,21.225-38.367C69.172,39.562,60.145,34.229,50,34.229c-10.144,0-19.171,5.334-21.223,14.157  c-0.557,2.394-0.69,6.314-0.2,10.757l6.159-10.18C35.738,47.305,37.419,46.354,39.347,46.354z M54.12,57.643  c-1.005,0-1.972,0.432-2.603,1.475c-1.555,2.57-8.293,13.707-9.331,15.42l0.003,0.002c-0.146,0.242-0.352,0.34-0.552,0.34  c-0.447,0-0.87-0.488-0.555-1.01c1.037-1.712,10.15-16.775,11.707-19.346c1.572-2.598-1.176-5.276-3.68-5.277  c-1.004,0-1.971,0.432-2.603,1.475c-1.528,2.527-11.706,19.347-11.706,19.347c-0.146,0.24-0.353,0.341-0.553,0.341  c-0.446,0-0.868-0.489-0.554-1.011c1.036-1.713,7.775-12.849,9.33-15.42c1.573-2.598-1.175-5.276-3.677-5.277  c-1.007,0-1.973,0.433-2.605,1.476c-0.761,1.258-4.287,7.085-7.636,12.622c-1.66,2.742-3.277,5.414-4.491,7.422  c-0.357-3.572-0.839-8.406-1.04-10.41c-0.192-1.93-1.867-2.824-3.592-2.824c-2.061,0-4.192,1.273-3.962,3.579  c0.153,1.534,0.759,7.813,1.304,13.46c0.21,2.188,0.411,4.276,0.573,5.961c0.221,2.291,0.368,3.83,0.368,3.83l0,0  c-0.672,4.256,0.607,8.262,5.729,11.361c1.877,1.136,3.705,1.609,5.444,1.609c3.739,0,7.074-2.189,9.643-4.697  c1.018-0.994,1.914-2.039,2.668-3.018c0.769-0.999,1.39-1.928,1.837-2.667c0,0,0.15-0.249,0.42-0.694  c2.208-3.65,12.43-20.541,13.793-22.792C59.371,60.321,56.624,57.643,54.12,57.643z"/>
</svg>
