<svg width="42" height="42" viewBox="0 0 42 42" fill="none" xmlns="http://www.w3.org/2000/svg">
<circle cx="21" cy="21" r="20" fill="#195583" stroke="#FD0101" stroke-width="2"/>
<path fill-rule="evenodd" clip-rule="evenodd" d="M19.4963 19.4011C20.0872 19.2435 20.7165 19.3252 21.2475 19.6286C21.7786 19.9321 22.1685 20.4327 22.3327 21.0218C22.4739 21.496 22.5937 21.9988 22.722 22.479V9.15688C22.7201 8.85038 22.5973 8.55699 22.3804 8.34041C22.1635 8.12382 21.87 8.0015 21.5635 8H12.1569C11.8504 8.00119 11.5569 8.12346 11.3402 8.34016C11.1235 8.55686 11.0012 8.85043 11 9.15688V27.7726C11.0012 28.0791 11.1235 28.3727 11.3402 28.5894C11.5569 28.8061 11.8504 28.9283 12.1569 28.9295H19.694C19.5925 28.6529 19.5137 28.3807 19.4429 28.1165L17.8665 22.2329C17.7106 21.6414 17.7943 21.0123 18.0994 20.4821C18.4046 19.9519 18.9065 19.5635 19.4963 19.4011ZM16.0007 27.5834C15.8886 27.5834 15.781 27.5389 15.7017 27.4596C15.6224 27.3802 15.5778 27.2727 15.5778 27.1605C15.5778 27.0484 15.6224 26.9408 15.7017 26.8615C15.781 26.7822 15.8886 26.7376 16.0007 26.7376H17.7196C17.8317 26.7376 17.9393 26.7822 18.0186 26.8615C18.0979 26.9408 18.1425 27.0484 18.1425 27.1605C18.1425 27.2727 18.0979 27.3802 18.0186 27.4596C17.9393 27.5389 17.8317 27.5834 17.7196 27.5834H16.0007ZM19.7202 20.2156C20.0952 20.1161 20.4942 20.1685 20.8308 20.3613C21.1674 20.5541 21.4144 20.8719 21.5182 21.2457L22.7352 25.8025C22.7618 25.9012 22.8233 25.9869 22.9084 26.0437C22.9934 26.1005 23.0962 26.1244 23.1976 26.1111C23.299 26.0977 23.3921 26.048 23.4596 25.9712C23.5271 25.8944 23.5643 25.7957 23.5645 25.6934V18.501L27.6532 22.5897C27.9993 22.943 28.1454 23.2577 28.1426 23.7564V28.0893C28.1407 28.3129 28.1837 28.5345 28.269 28.7411C28.3543 28.9478 28.4802 29.1352 28.6393 29.2923L29.2957 29.9487L25.2622 33.9821L21.3746 30.0947C20.7589 29.4553 20.4844 28.7398 20.259 27.8984L18.6822 22.0147C18.5827 21.6386 18.636 21.2384 18.8304 20.9014C19.0248 20.5644 19.3446 20.3179 19.7199 20.2156H19.7202ZM32.2069 31.2809L30.9396 30.0137C30.8712 29.9464 30.7791 29.9086 30.6831 29.9086C30.5871 29.9086 30.495 29.9464 30.4266 30.0137L25.327 35.1132C25.2932 35.1468 25.2665 35.1868 25.2482 35.2309C25.23 35.2749 25.2206 35.3221 25.2206 35.3697C25.2206 35.4174 25.23 35.4646 25.2482 35.5086C25.2665 35.5526 25.2932 35.5926 25.327 35.6263L26.5942 36.8936C26.6279 36.9273 26.6679 36.9541 26.7119 36.9723C26.7559 36.9906 26.8031 37 26.8508 37C26.8984 37 26.9456 36.9906 26.9896 36.9723C27.0337 36.9541 27.0737 36.9273 27.1073 36.8936L32.2069 31.794C32.2406 31.7604 32.2674 31.7204 32.2856 31.6764C32.3039 31.6323 32.3133 31.5851 32.3133 31.5375C32.3133 31.4898 32.3039 31.4426 32.2856 31.3986C32.2674 31.3546 32.2406 31.3146 32.2069 31.2809Z" fill="white"/>
</svg>
