<svg xmlns="http://www.w3.org/2000/svg" data-name="Layer 1" viewBox="5 10 90 90" x="0px" y="0px">
  <rect x="10" y="10" width="80" height="80" rx="10" ry="10" fill="#FF80D7" stroke="blue" stroke-width="2"/>

  <!-- Original SVG content, transformed and positioned -->
  <g transform="translate(5, 5), scale(0.9)">
    <!-- Your existing path content -->
<path d="M36.23,42.51a3,3,0,0,0-1-2.07L30.33,36a3,3,0,0,0-2-.78,3,3,0,0,0-3,3.12,3,3,0,0,0,1,2.07l4.59,4.19h0l.34.3a3,3,0,0,0,5-2.35Z"/>
<path d="M35.74,46.93a5,5,0,0,1-1.57.59L35.74,49Z"/>
<path d="M25.93,25.79l5.17,4.72V22.44l-1.16-1.06a3,3,0,0,0-2.14-.78,3,3,0,0,0-2.07,1A3,3,0,0,0,25.93,25.79Z"/>
<path d="M35.74,18.66a1,1,0,0,1,1-1H58.61a1,1,0,0,1,1,1V51.5c.63-1.11,1.15-2,1.46-2.44,1.3-1.9,2-3.25,1.91-4.53-.08-.82-.24-1.74-.41-2.71a38.6,38.6,0,0,1-.73-7.37,11.35,11.35,0,0,1,.47-3,.71.71,0,0,1,0-.21V13.52a2,2,0,0,0-2-2H35.08a2,2,0,0,0-2,2V35.78l2.66,2.43Zm8.57-4.79H51a1,1,0,1,1,0,2H44.31a1,1,0,1,1,0-2Z"/>
<path d="M34.65,50.63l-4.72-4.31h0L29.58,46a2.55,2.55,0,0,0-1.68-.64h-.12a2.47,2.47,0,0,0-1.74.82A2.53,2.53,0,0,0,25.38,48a2.56,2.56,0,0,0,.82,1.74l5.06,4.62a2.52,2.52,0,0,0,1.81.65,2.47,2.47,0,0,0,1.74-.82A2.51,2.51,0,0,0,34.65,50.63Z"/>
<path d="M53.55,66a27.39,27.39,0,0,1,2-6.2H36.73a1.26,1.26,0,0,1-.33,0,4.47,4.47,0,0,1-2.58,5.8,2,2,0,0,0,1.26.45ZM46,61.62h3.35a1,1,0,0,1,0,2H46a1,1,0,0,1,0-2Z"/>
<path d="M35.74,58.58V56a4.4,4.4,0,0,1-1.78.86L35.24,58A4.27,4.27,0,0,1,35.74,58.58Z"/>
<path d="M34.07,63.05a2.53,2.53,0,0,0,.66-1.81,2.56,2.56,0,0,0-.82-1.74l-4.54-4.14a2.49,2.49,0,0,0-1.69-.66A2.52,2.52,0,0,0,26,59.08l4.54,4.13A2.51,2.51,0,0,0,34.07,63.05Z"/>
<path d="M70.26,68.57C72.39,63,75,62.1,75,54.35c0-2.89-2.89-13-3.06-13.53a26.1,26.1,0,0,1-.59-6.08c.3-4.74-.26-9.34-3.11-8s-4.37,3.41-4.92,7.54c-.5,3.8.44,7,1.58,10.45,0,1.94-1,3.71-2.26,5.5a75.39,75.39,0,0,0-4.29,8c-2.09,4.46-3.14,7.8-3,9.41a1,1,0,0,1-1.93.38H35.08a3.61,3.61,0,0,1-.73-.07c1,3.52,2.25,7.44,4.37,9.34A8,8,0,0,0,41.89,79a5.86,5.86,0,0,1,3.34,2.25,31.22,31.22,0,0,1,3.28,7.24H71.24a55.45,55.45,0,0,1-2.42-7C68,76.57,67.74,75.18,70.26,68.57Z"/>
</g>
</svg>