<svg width="65" height="55" viewBox="0 0 65 55" fill="none" xmlns="http://www.w3.org/2000/svg">
<path d="M16.9258 43.7504C12.5899 43.7504 8.73316 41.1878 7.33268 37.3728L7.23796 37.0853C6.90767 36.075 6.76931 35.2254 6.76931 34.3754V17.3301L0.198841 37.5751C-0.64621 40.5529 1.27945 43.64 4.51039 44.4626L46.3905 54.8154C46.9132 54.9404 47.4359 55.0004 47.9507 55.0004C50.648 55.0004 53.1127 53.3478 53.8035 50.9125L56.2435 43.7504H16.9258Z" fill="black"/>
<path d="M24.374 17.5003C27.3614 17.5003 29.7904 15.2577 29.7904 12.5002C29.7904 9.74258 27.3614 7.5 24.374 7.5C21.3866 7.5 18.957 9.74258 18.957 12.5002C18.957 15.2577 21.3866 17.5003 24.374 17.5003Z" fill="black"/>
<path d="M58.2285 0H17.6026C13.8708 0 10.8318 2.80517 10.8318 6.2503V33.75C10.8318 37.1951 13.8708 40.0003 17.6026 40.0003H58.2285C61.9608 40.0003 64.9999 37.1951 64.9999 33.75V6.2503C64.9999 2.80517 61.9608 0 58.2285 0ZM17.6026 5.00015H58.2285C58.9764 5.00015 59.5829 5.56 59.5829 6.2503V23.9978L51.0273 14.7826C50.1197 13.8002 48.806 13.2751 47.3951 13.2454C45.9922 13.2527 44.676 13.8277 43.7769 14.8228L33.7176 25.9675L30.4405 22.95C28.5883 21.2402 25.5736 21.2402 23.7238 22.95L16.2487 29.8476V6.2503C16.2487 5.56 16.8553 5.00015 17.6026 5.00015Z" fill="black"/>
</svg>
