<svg width="44" height="44" viewBox="0 0 44 44" fill="none" xmlns="http://www.w3.org/2000/svg">
<circle cx="22" cy="22" r="20" fill="#195583" stroke="#FD0101" stroke-width="2.5"/>
<path fill-rule="evenodd" clip-rule="evenodd" d="M28.4224 18.5678L31.5192 15.471C31.5275 15.4627 31.5644 15.3642 31.4905 15.1383C31.37 14.8204 31.179 14.5339 30.9319 14.3004C30.3651 13.7295 29.8353 13.6392 29.7614 13.7131L26.6646 16.8099C27.4536 17.1498 28.0825 17.7788 28.4224 18.5678Z" fill="white"/>
<path fill-rule="evenodd" clip-rule="evenodd" d="M21.235 22.2355L19.9371 23.5374C20.3311 23.7006 20.6886 23.9408 20.9886 24.2439C21.294 24.542 21.5345 24.8999 21.695 25.2953L27.7161 19.2742C27.79 19.2003 27.6997 18.6664 27.1329 18.0996C26.5661 17.5328 26.0322 17.4424 25.9582 17.5164L21.2474 22.2273C21.2432 22.2314 21.2391 22.2355 21.235 22.2355Z" fill="white"/>
<path d="M12.4622 25.3324C14.064 26.4783 16.7911 27.3202 19.8755 27.6118C20.3476 27.6547 20.7532 27.9645 20.9187 28.4086C21.2224 28.9935 21.8422 29.3445 22.4999 29.304C23.1577 29.3445 23.7775 28.9935 24.0812 28.4086C24.2467 27.9645 24.6523 27.6547 25.1243 27.6118C28.2088 27.3202 30.9318 26.4783 32.5336 25.3324C31.3754 23.9975 28.7962 22.9461 25.6254 22.5272L21.5717 26.5809C21.3921 26.7527 21.1506 26.8446 20.9022 26.8356C20.2605 26.7771 19.6647 26.4777 19.2347 25.9977C18.4051 25.164 18.1546 24.1618 18.6515 23.6608L19.8426 22.4697C16.4584 22.8475 13.6861 23.9154 12.4622 25.3324ZM27.4286 25.6075C27.6554 25.6075 27.8393 25.7914 27.8393 26.0182C27.8393 26.245 27.6553 26.4289 27.4286 26.4289C27.2018 26.4289 27.0179 26.245 27.0179 26.0182C27.0179 25.7914 27.2017 25.6075 27.4286 25.6075ZM25.375 24.7861C25.6018 24.7861 25.7857 24.97 25.7857 25.1968C25.7857 25.4236 25.6018 25.6075 25.375 25.6075C25.1482 25.6075 24.9643 25.4236 24.9643 25.1968C24.9643 24.97 25.1482 24.7861 25.375 24.7861ZM24.1428 26.0183C24.3697 26.0183 24.5535 26.2022 24.5535 26.429C24.5535 26.6558 24.3696 26.8397 24.1428 26.8397C23.916 26.8397 23.7321 26.6558 23.7321 26.429C23.7321 26.2021 23.916 26.0183 24.1428 26.0183ZM16.75 25.1968C16.9768 25.1968 17.1607 25.3807 17.1607 25.6075C17.1607 25.8343 16.9768 26.0182 16.75 26.0182C16.5232 26.0182 16.3393 25.8343 16.3393 25.6075C16.3393 25.3807 16.5232 25.1968 16.75 25.1968Z" fill="white"/>
<path fill-rule="evenodd" clip-rule="evenodd" d="M26.3525 21.7999C29.474 22.301 31.9424 23.3894 33.1663 24.8064C33.6586 24.3882 33.9595 23.7877 34 23.143C34 21.6562 32.004 20.2228 28.7716 19.3809L26.3525 21.7999Z" fill="white"/>
<path fill-rule="evenodd" clip-rule="evenodd" d="M19.3252 24.2231C19.2928 24.2197 19.2601 24.2254 19.2308 24.2395C19.1609 24.3135 19.2513 24.8474 19.8181 25.4142C20.3849 25.981 20.9188 26.0755 20.9927 26.0015C21.0667 25.9276 20.9722 25.3937 20.4054 24.8269C20.1712 24.5806 19.8849 24.3898 19.5676 24.2683C19.4894 24.2415 19.4077 24.2264 19.3252 24.2231Z" fill="white"/>
<path fill-rule="evenodd" clip-rule="evenodd" d="M33.3757 25.7221C31.6877 27.1103 28.7059 28.1001 25.1984 28.4328C25.0382 28.4476 24.9008 28.553 24.8452 28.7039C24.4261 29.6112 23.4983 30.1734 22.5 30.1249C21.5017 30.1733 20.5739 29.6112 20.1548 28.7039C20.0991 28.553 19.9617 28.4475 19.8016 28.4328C16.2941 28.1001 13.3123 27.1103 11.6243 25.7221C11.4004 25.5363 11.1917 25.3331 11 25.1143V28.8928C11 31.3407 16.2653 33.4107 22.5 33.4107C28.7346 33.4107 34 31.3407 34 28.8928V25.1143C33.8083 25.3331 33.5995 25.5363 33.3757 25.7221Z" fill="white"/>
<path fill-rule="evenodd" clip-rule="evenodd" d="M20.7503 21.5617L22.0769 20.2351C21.2942 20.1516 20.6014 19.6918 20.2205 19.003C20.1591 18.8507 20.0109 18.7514 19.8467 18.7525C14.7211 19.237 11 21.0852 11 23.1429C11.0398 23.7866 11.341 24.386 11.8337 24.8022C13.3246 23.069 16.6637 21.8451 20.7503 21.5617Z" fill="white"/>
<path fill-rule="evenodd" clip-rule="evenodd" d="M19.5248 12.1954C19.1136 11.7739 19.1136 11.1014 19.5248 10.6799C19.6209 10.569 19.6506 10.4152 19.6026 10.2765C19.5545 10.1378 19.4362 10.0352 19.292 10.0074C19.1479 9.97964 18.9999 10.0309 18.9038 10.1418C18.222 10.8712 18.222 12.0041 18.9038 12.7334C19.315 13.1549 19.315 13.8275 18.9038 14.249C18.222 14.9783 18.222 16.1112 18.9038 16.8406C19.0524 17.012 19.3118 17.0306 19.4833 16.882C19.6548 16.7335 19.6734 16.474 19.5248 16.3025C19.1135 15.881 19.1135 15.2085 19.5248 14.787C20.2067 14.0577 20.2067 12.9248 19.5248 12.1954Z" fill="white"/>
<path fill-rule="evenodd" clip-rule="evenodd" d="M21.1676 12.1955C21.0715 12.0846 20.9235 12.0334 20.7794 12.0612C20.6353 12.0889 20.5169 12.1915 20.4689 12.3302C20.4209 12.4689 20.4505 12.6227 20.5466 12.7336C20.9579 13.1551 20.9579 13.8277 20.5466 14.2491C19.8648 14.9785 19.8648 16.1114 20.5466 16.8407C20.6952 17.0122 20.9547 17.0308 21.1261 16.8822C21.2976 16.7337 21.3162 16.4742 21.1676 16.3027C20.7564 15.8812 20.7564 15.2087 21.1676 14.7872C21.8495 14.0578 21.8495 12.9249 21.1676 12.1955Z" fill="white"/>
</svg>