<svg xmlns="http://www.w3.org/2000/svg" xmlns:xlink="http://www.w3.org/1999/xlink" version="1.1" x="0px" y="0px" viewBox="0 0 100 125" style="enable-background:new 0 0 100 100;" xml:space="preserve"><path d="M50,10c-22.09,0-40,17.91-40,40c0,22.09,17.91,40,40,40s40-17.91,40-40C90,27.91,72.09,10,50,10z M45.5,81.91  c-13.36-1.84-24.08-11.9-26.95-24.9c1.48-0.33,3.02-0.49,4.61-0.49c12.44,0,22.52,10.08,22.52,22.52  C45.67,80.02,45.62,80.97,45.5,81.91z M43.88,50c0-0.59,0.08-1.18,0.26-1.71c0.74-2.53,3.07-4.4,5.86-4.4  c2.76,0,5.12,1.84,5.86,4.38c0.18,0.54,0.26,1.13,0.26,1.74c0,3.38-2.74,6.09-6.12,6.09S43.88,53.38,43.88,50z M54.5,81.91  c-0.13-0.95-0.18-1.89-0.18-2.87c0-12.44,10.08-22.52,22.52-22.52c1.59,0,3.12,0.15,4.61,0.49C78.59,70.01,67.86,80.07,54.5,81.91z   M17.81,48.31C18.68,31.29,32.75,17.75,50,17.75c17.22,0,31.27,13.49,32.19,30.48C60.98,34.31,39.51,34.67,17.81,48.31z"/></svg>