<svg xmlns="http://www.w3.org/2000/svg" version="1.1" viewBox="-5.0 -10.0 110.0 135.0">
 <path d="m60.668 5.5234c16.84 0 30.488 13.648 30.488 30.488 0 24.77-25.27 46.918-29.801 50.688-0.40234 0.33594-0.97656 0.33594-1.3789 0-2.1289-1.7695-8.8398-7.6055-15.355-15.859 3.2656-3.8164 5.3398-8.6797 5.6523-14.016 3.1289 1.5664 6.6562 2.4453 10.391 2.4453 12.84 0 23.25-10.41 23.25-23.25 0-12.84-10.406-23.246-23.246-23.246-12.266 0-22.312 9.4961-23.188 21.539-2.1719-1.125-4.5391-1.9219-7.0391-2.332 1.9766-14.934 14.754-26.457 30.227-26.457zm8.6328 16.289-23.266 16.129 13.547 0.69922 7.3789 11.383zm-42.727 12.73c-11.523 0-20.867 9.3438-20.867 20.867 0 11.523 9.3438 20.867 20.867 20.867 11.523 0 20.867-9.3438 20.867-20.867-0.003906-11.523-9.3438-20.867-20.867-20.867zm0 34.449c-2.4258 0-4.3906-1.9648-4.3906-4.3906 0-2.4258 1.9648-4.3906 4.3906-4.3906s4.3906 1.9648 4.3906 4.3906c0 2.4258-1.9688 4.3906-4.3906 4.3906zm7.9648-9.0586c-0.5625 0.5625-1.4727 0.5625-2.0352 0-1.6367-1.6367-3.7852-2.457-5.9297-2.457-2.1484 0-4.293 0.82031-5.9297 2.457-0.5625 0.5625-1.4727 0.5625-2.0352 0s-0.5625-1.4727 0-2.0352c2.1992-2.1992 5.082-3.3008 7.9688-3.3008 2.8828 0 5.7656 1.1016 7.9688 3.3008 0.55469 0.55859 0.55469 1.4727-0.007813 2.0352zm3.9727-3.9727c-0.5625 0.5625-1.4727 0.5625-2.0352 0-2.7344-2.7344-6.3203-4.1016-9.9023-4.1016s-7.168 1.3672-9.9023 4.1016c-0.5625 0.5625-1.4727 0.5625-2.0352 0s-0.5625-1.4727 0-2.0352c3.293-3.2969 7.6172-4.9453 11.938-4.9453 4.3203 0 8.6406 1.6484 11.938 4.9453 0.5625 0.5625 0.5625 1.4727 0 2.0352zm1.9336-3.9688c-3.832-3.832-8.8516-5.7461-13.871-5.7461s-10.043 1.9141-13.871 5.7461c-0.5625 0.5625-1.4727 0.5625-2.0352 0s-0.5625-1.4727 0-2.0352c4.3945-4.3945 10.152-6.5898 15.91-6.5898s11.516 2.1953 15.91 6.5898c0.5625 0.5625 0.5625 1.4727 0 2.0352-0.56641 0.5625-1.4805 0.5625-2.043 0zm-15.383 12.609c0-0.83203 0.67578-1.5117 1.5117-1.5117 0.83203 0 1.5117 0.67578 1.5117 1.5117 0 0.83203-0.67578 1.5117-1.5117 1.5117-0.83594 0-1.5117-0.67578-1.5117-1.5117zm26.453 18.277c-1.2539-1.2422-2.4844-2.5234-3.6797-3.8281-12.207 1.2031-20.793 4.0664-20.793 7.4102 0 4.4258 15.055 8.0156 33.625 8.0156 18.57 0 33.625-3.5859 33.625-8.0156 0-3.3438-8.5898-6.207-20.793-7.4102-1.1953 1.3047-2.4258 2.582-3.6797 3.8281 5.0625 0.73828 8.4453 2.0664 8.4453 3.582 0 2.3164-7.8789 4.1953-17.598 4.1953s-17.598-1.8789-17.598-4.1953c0-1.5156 3.3828-2.8438 8.4453-3.582z" fill-rule="evenodd"/>
</svg>