<svg width="65" height="55" viewBox="0 0 65 55" fill="none" xmlns="http://www.w3.org/2000/svg">
<path d="M63.0957 0H1.9043C0.85247 0 0 0.864009 0 1.93007V53.0699C0 54.136 0.85247 55 1.9043 55H63.0957C64.1475 55 65 54.136 65 53.0699V1.93007C65 0.864009 64.1475 0 63.0957 0ZM24.4439 33.9793V21.0207C24.4439 20.0939 24.9656 19.2489 25.8052 18.8157C26.6582 18.3759 27.6961 18.4347 28.4856 18.9584L39.3818 25.4051C39.4373 25.4377 39.4909 25.4734 39.5429 25.5116C40.1871 25.9871 40.5566 26.7119 40.5566 27.5C40.5566 28.2881 40.1871 29.0129 39.5429 29.4884C39.4909 29.5266 39.4373 29.5623 39.3818 29.5949L28.4856 36.0416C28.0492 36.3306 27.5379 36.4778 27.0232 36.4778C26.6061 36.4778 26.1871 36.3808 25.8052 36.1838C24.9651 35.7511 24.4439 34.9061 24.4439 33.9793ZM44.7168 7.22068V3.86014H51.1066V7.22068H44.7168ZM40.9082 7.22068H34.5179V3.86014H40.9082V7.22068ZM30.7093 7.22068H24.3195V3.86014H30.7093V7.22068ZM20.5109 7.22068H14.1211V3.86014H20.5109V7.22068ZM20.5109 47.7793V51.1399H14.1211V47.7793H20.5109ZM24.3195 47.7793H30.7093V51.1399H24.3195V47.7793ZM34.5179 47.7793H40.9082V51.1399H34.5179V47.7793ZM44.7168 47.7793H51.1066V51.1399H44.7168V47.7793ZM61.1914 7.22068H54.9152V3.86014H61.1914V7.22068ZM10.3125 3.86014V7.22068H3.80859V3.86014H10.3125ZM3.80859 47.7793H10.3125V51.1399H3.80859V47.7793ZM54.9152 51.1399V47.7793H61.1914V51.1399H54.9152Z" fill="black"/>
</svg>
