<svg width="168" height="52" viewBox="0 0 168 52" fill="none" xmlns="http://www.w3.org/2000/svg">
    <path fill-rule="evenodd" clip-rule="evenodd" d="M64.3693 27.3262H69.7562C70.0694 27.3262 70.3826 27.5155 70.5705 27.8941L71.6354 30.0397C71.7607 30.3552 72.1365 30.4183 72.3244 30.229L75.2058 27.5155C75.3311 27.3893 75.519 27.3262 75.6443 27.3262C75.6443 27.3262 78.0872 27.3262 78.4003 27.3262C78.6509 27.3262 78.6509 27.5786 78.5256 27.7048C78.463 27.7679 73.5145 32.1221 73.5145 32.1221C73.3266 32.3115 73.264 32.6901 73.3893 32.9425L76.2706 38.4326C76.3959 38.685 76.2706 38.9375 76.0201 38.9375H70.7584C70.4452 38.9375 70.1321 38.7481 70.0068 38.4326L69.0046 36.4764C68.8793 36.1608 68.5034 36.0977 68.3155 36.2871L65.5594 38.8112C65.4341 38.9375 65.3089 39.0006 65.121 39.0006H62.3022C62.1143 39.0006 61.989 38.685 62.1769 38.4957L67.0628 34.2677C67.3133 34.0784 67.3133 33.6998 67.188 33.3842L64.1814 27.831C63.9935 27.6417 64.1187 27.3262 64.3693 27.3262Z" fill="#20ABB1"/>
    <path fill-rule="evenodd" clip-rule="evenodd" d="M91.868 27.3262C89.6756 27.3262 81.7205 27.3262 80.0919 27.3262C79.7787 27.3262 79.8414 27.5786 79.8414 27.5786L80.0293 28.2727C80.0919 28.4621 80.0919 28.6514 80.0293 28.8407L77.649 38.7481C77.5864 38.9375 77.7743 39.1268 77.9622 39.1268H82.848C82.9733 39.1268 83.0986 39.0637 83.1612 38.9375L83.5997 37.4229C83.725 37.0443 84.0381 36.7919 84.414 36.7919H89.6756C89.6756 36.7919 92.1812 36.9181 92.7449 34.3939L93.8724 29.9766C93.8098 29.9135 94.5614 27.5786 91.868 27.3262ZM86.2305 35.5298H85.0404C84.5393 35.5298 84.1634 35.025 84.2887 34.5201L85.6041 29.03C85.6668 28.6514 85.9799 28.399 86.3558 28.399H87.5459C88.047 28.399 88.4229 28.9038 88.2976 29.4086L86.9822 34.8987C86.9195 35.2774 86.6063 35.5298 86.2305 35.5298Z" fill="#20ABB1"/>
    <path fill-rule="evenodd" clip-rule="evenodd" d="M95.1878 27.7042C95.4383 28.0828 95.7515 28.777 95.5636 29.5973L93.8724 38.3058C93.8097 38.6844 93.9976 39.0631 94.3108 39.0631H98.9461C99.1966 39.0631 99.3846 38.8737 99.3846 38.6213L101.201 29.4711C101.264 29.0925 101.514 28.8401 101.827 28.8401H103.393C103.832 28.8401 104.082 29.3449 104.02 29.8498L103.268 33.8254C103.143 34.3302 103.456 34.7719 103.895 34.7719H107.402C108.78 34.7719 108.592 34.4564 108.78 32.8788C108.78 32.5633 109.407 30.4808 109.469 30.1022C109.595 28.9663 109.469 27.3887 107.277 27.3887C105.085 27.3887 95.7515 27.3887 95.3757 27.3887C94.9999 27.3887 95.1878 27.7042 95.1878 27.7042Z" fill="#20ABB1"/>
    <path fill-rule="evenodd" clip-rule="evenodd" d="M122.561 27.5781C120.431 27.5781 113.165 27.5781 113.165 27.5781C113.165 27.5781 111.098 27.5781 110.597 29.9761C110.346 31.2382 109.281 36.3497 109.281 36.3497C109.281 36.3497 108.655 39.0001 110.972 39.0001H121.057C121.183 39.0001 121.308 38.937 121.37 38.8739C121.684 38.6215 122.373 38.0535 122.435 37.9904C122.561 37.9273 122.561 37.738 122.373 37.738C120.869 37.738 115.42 37.738 114.856 37.738C114.23 37.738 113.916 36.2235 115.295 36.2235C116.61 36.2235 119.805 36.2235 120.995 36.2235C122.498 36.2235 123.312 35.6555 123.751 33.7624C124.127 32.311 124.252 31.3013 124.565 30.0392C124.878 28.9033 124.628 27.5781 122.561 27.5781ZM117.55 34.709H116.109C115.67 34.709 115.42 34.2041 115.482 33.7624L116.297 29.6606C116.359 29.282 116.61 29.0926 116.923 29.0926H118.426C118.865 29.0926 119.115 29.5975 119.053 30.0392L118.176 34.141C118.051 34.4565 117.8 34.709 117.55 34.709Z" fill="#20ABB1"/>
    <path fill-rule="evenodd" clip-rule="evenodd" d="M140.037 27.3262C140.037 27.3262 129.764 27.3262 128.699 27.3262C127.634 27.3262 126.632 27.5786 126.131 29.5348C125.88 30.4183 125.755 31.1756 125.442 32.8163C125.317 33.5735 125.63 34.6463 126.82 34.6463H132.771C133.084 34.6463 133.334 35.025 133.272 35.4036C133.084 36.3502 132.645 37.8016 131.142 37.8016H126.068C125.943 37.8016 125.818 37.8647 125.692 37.9278C125.692 37.9278 124.628 38.685 124.502 38.7481C124.377 38.8112 124.377 39.0006 124.565 39.0006C126.382 39.0006 134.086 39.0006 135.527 39.0006C137.155 39.0006 137.97 38.4326 138.283 37.1074C138.408 36.6657 138.596 35.1512 138.659 34.6463C138.659 34.6463 139.16 31.8066 136.341 31.8066H130.829C130.516 31.8066 130.265 31.428 130.328 31.0494C130.453 30.229 130.641 28.9038 132.082 28.9038C132.708 28.9038 136.967 28.9038 138.22 28.9038C139.536 28.9038 140.037 28.0203 140.037 27.3262Z" fill="#20ABB1"/>
    <path fill-rule="evenodd" clip-rule="evenodd" d="M155.633 27.3262C155.633 27.3262 145.361 27.3262 144.296 27.3262C143.231 27.3262 142.229 27.5786 141.728 29.5348C141.477 30.4183 141.352 31.1756 141.039 32.8163C140.913 33.5735 141.227 34.6463 142.417 34.6463H148.367C148.681 34.6463 148.931 35.025 148.868 35.4036C148.681 36.3502 148.242 37.8016 146.739 37.8016H141.665C141.54 37.8016 141.414 37.8647 141.289 37.9278C141.289 37.9278 140.224 38.685 140.099 38.7481C139.974 38.8112 139.974 39.0006 140.162 39.0006C141.978 39.0006 149.683 39.0006 151.123 39.0006C152.752 39.0006 153.566 38.4326 153.88 37.1074C154.005 36.6657 154.193 35.1512 154.255 34.6463C154.255 34.6463 154.756 31.8066 151.938 31.8066H146.426C146.112 31.8066 145.862 31.428 145.924 31.0494C146.05 30.229 146.238 28.9038 147.678 28.9038C148.305 28.9038 152.564 28.9038 153.817 28.9038C155.132 28.9038 155.633 28.0203 155.633 27.3262Z" fill="#20ABB1"/>
    <path fill-rule="evenodd" clip-rule="evenodd" d="M60.1726 15.2101C58.7945 6.3123 51.3405 -0.124386 41.4436 0.00182399C39.9403 0.00182399 37.9358 0.380453 36.4325 0.822186C34.0522 1.57944 32.1104 2.21049 29.6675 2.90464C28.2895 3.28327 25.7839 4.16674 24.0301 4.67158C23.7795 4.73468 23.8421 5.05021 24.0927 5.11331L28.7906 5.49194C29.2917 5.55504 29.5423 6.05988 28.8532 6.2492C22.7146 8.14234 18.7684 9.46754 10.5001 11.55C9.81109 11.7393 9.87373 12.2441 10.5628 12.3073C12.5672 12.3704 15.5112 12.4335 18.3299 12.4335C18.9563 12.4335 19.0816 13.38 18.3926 13.5062C13.3815 14.4528 5.55166 15.778 0.41529 16.5984C-0.148458 16.6615 -0.148458 17.5449 0.477929 17.6081C1.79334 17.6712 3.04611 17.7343 4.36153 17.7974C9.1847 18.0498 12.4419 18.176 17.2024 18.4284C19.1442 18.4915 20.7102 18.6808 20.8355 19.7536C20.9608 20.7633 19.5827 21.2681 18.7058 21.3312C17.3277 21.4574 13.82 21.9623 11.2518 22.2147C10.8759 22.2778 10.8133 22.8457 11.2518 22.9089C13.9452 23.3506 17.1398 23.7923 19.1442 24.0447C24.4059 24.7389 23.8421 26.2534 23.8421 26.5058C23.7795 27.831 21.8377 28.0203 21.1487 28.1465C18.5805 28.6514 12.0661 28.399 7.80665 28.2097C7.36818 28.2097 7.2429 28.9038 7.68137 28.9669C14.9475 30.2921 22.9652 31.7435 32.1731 35.2143C35.8061 36.6026 40.3788 37.2336 44.1997 36.6657C55.7252 34.8357 61.6759 25.5593 60.1726 15.2101ZM41.4436 32.4377C33.7391 32.4377 27.5378 26.1272 27.5378 18.4284C27.5378 10.6665 33.8017 4.41916 41.4436 4.41916C49.1482 4.41916 55.3494 10.7296 55.3494 18.4284C55.3494 26.1272 49.0855 32.4377 41.4436 32.4377Z" fill="#2A3478"/>
    <path d="M41.4435 27.326C46.3559 27.326 50.3382 23.3141 50.3382 18.3652C50.3382 13.4162 46.3559 9.4043 41.4435 9.4043C36.5311 9.4043 32.5488 13.4162 32.5488 18.3652C32.5488 23.3141 36.5311 27.326 41.4435 27.326Z" fill="#2A3478"/>
    <path fill-rule="evenodd" clip-rule="evenodd" d="M42.6336 22.5306C42.0698 22.8461 41.1929 22.7199 40.6918 22.152C40.2533 21.584 38.1862 18.4919 37.4972 17.4191C37.184 16.9143 37.3093 16.2832 37.7478 15.9677C38.8126 15.2105 40.0654 14.327 40.0654 14.327C40.8797 13.8222 41.694 14.3901 41.694 15.0211C40.8797 15.5891 39.439 16.5357 39.1885 16.725C38.1862 17.4822 39.3137 18.7443 40.0654 18.2395C40.5665 17.924 41.5687 17.2298 41.8819 16.9774C42.8215 16.3463 43.5105 17.1036 43.5732 17.6715C42.8841 18.1764 42.1951 18.6812 41.2555 19.3123C40.316 20.0064 41.3808 21.3947 42.2578 20.8268C42.4457 20.7006 43.7611 19.8171 43.8864 19.6909C44.7007 19.0598 45.4523 19.754 45.515 20.385C45.1391 20.6375 43.3226 22.0258 42.6336 22.5306Z" fill="#20ABB1"/>
    <path d="M76.2713 9.84721H76.1461L71.2602 23.0992H66.6876L65.3096 4.79883H69.0679L69.6316 18.4926H69.7569L74.768 4.79883H79.1527L79.5285 18.4926H79.6538L84.9155 4.79883H88.987L81.4077 23.0992H76.7098L76.2713 9.84721Z" fill="#2A3478"/>
    <path d="M100.324 20.4496L99.8857 23.1631C99.5725 23.2893 99.0714 23.2893 98.2571 23.2893C97.5681 23.2893 96.9417 23.1631 96.4406 22.9107C95.9395 22.6583 95.6889 22.2165 95.5636 21.7117H95.4384C94.8746 22.2796 94.3109 22.7214 93.6218 23.0369C92.9328 23.2893 92.1185 23.4786 91.2416 23.4786C90.4899 23.4786 89.8009 23.3524 89.1745 23.0369C88.5481 22.7214 88.047 22.2796 87.6712 21.7748C87.2953 21.2068 87.1074 20.5758 87.1074 19.8816C87.1074 18.1778 87.6085 17.0419 88.6734 16.2847C89.7382 15.5274 91.2416 15.1488 93.1834 15.0226C94.3735 14.9595 95.2504 14.7702 95.8768 14.4546C96.5032 14.2022 96.8164 13.6974 96.8164 13.0663C96.8164 12.246 96.19 11.8673 94.9373 11.8673C94.3109 11.8673 93.6845 12.0567 93.1834 12.4353C92.6196 12.8139 92.2438 13.3187 91.9306 14.0129L88.6734 13.3819C89.1745 12.0567 89.9888 11.1101 91.1163 10.4159C92.2438 9.72177 93.6218 9.40625 95.2504 9.40625C96.8791 9.40625 98.1318 9.72177 99.0088 10.4159C99.8857 11.1101 100.324 11.9935 100.324 13.0663C100.324 13.3187 100.324 13.5712 100.262 13.8867L99.1967 20.0079V20.2603C99.1967 20.4496 99.2593 20.5758 99.322 20.6389C99.3846 20.702 99.5099 20.7651 99.6352 20.7651C99.9483 20.5758 100.199 20.5127 100.324 20.4496ZM93.4966 17.1681C92.6823 17.2943 91.9932 17.5468 91.4921 17.9254C90.991 18.304 90.7405 18.872 90.7405 19.503C90.7405 19.9447 90.9284 20.3234 91.2416 20.5758C91.5548 20.8282 91.9932 20.9544 92.4943 20.9544C93.3086 20.9544 93.9977 20.702 94.6867 20.1341C95.3757 19.5661 95.8142 18.8089 96.0021 17.7361L96.2527 16.5371C95.9395 16.7895 94.9999 17.0419 93.4966 17.1681Z" fill="#2A3478"/>
    <path d="M109.908 20.3838L109.407 23.1605C108.906 23.3498 108.092 23.4129 107.089 23.4129C105.962 23.4129 105.085 23.2236 104.459 22.8449C103.895 22.4663 103.582 21.7721 103.582 20.8256C103.582 20.5732 103.582 20.2576 103.644 19.879L105.022 11.9909H102.893L103.268 9.59293H105.398L106.087 5.80664H109.658L108.969 9.59293H111.787L111.474 11.9909H108.655L107.403 19.3742C107.34 19.6266 107.34 19.7528 107.34 19.8159C107.34 20.1314 107.403 20.3207 107.59 20.3838C107.778 20.4469 108.029 20.5101 108.405 20.5101C108.969 20.5732 109.47 20.5101 109.908 20.3838Z" fill="#2A3478"/>
    <path d="M121.309 12.1815C120.871 11.8029 120.307 11.6767 119.618 11.6767C118.929 11.6767 118.365 11.866 117.864 12.1815C117.363 12.497 117.113 12.8757 117.113 13.3805C117.113 13.7591 117.3 14.0747 117.614 14.2009C117.927 14.3902 118.491 14.5795 119.305 14.7688L120.62 15.0843C121.497 15.3367 122.249 15.5261 122.813 15.7785C123.376 16.0309 123.877 16.4095 124.253 16.8513C124.629 17.3561 124.817 17.9872 124.817 18.8075C124.817 20.322 124.191 21.4579 122.938 22.2783C121.685 23.0986 120.119 23.4773 118.177 23.4773C116.423 23.4773 114.983 23.0986 113.918 22.3414C112.853 21.5841 112.227 20.5113 112.164 19.1861L115.484 18.7444C115.547 19.5648 115.86 20.1958 116.361 20.5744C116.862 20.9531 117.551 21.1424 118.428 21.1424C119.18 21.1424 119.806 20.9531 120.37 20.6376C120.933 20.322 121.184 19.8172 121.184 19.2492C121.184 18.8706 120.996 18.6182 120.62 18.3658C120.244 18.1765 119.681 17.924 118.866 17.7347L117.488 17.4192C116.737 17.2299 116.048 17.0406 115.484 16.7882C114.92 16.5357 114.482 16.1571 114.106 15.7154C113.73 15.2105 113.542 14.5795 113.542 13.8222C113.542 12.8757 113.855 12.1184 114.419 11.4243C114.983 10.7301 115.797 10.2253 116.737 9.84664C117.676 9.46801 118.678 9.3418 119.806 9.3418C120.871 9.3418 121.748 9.53111 122.625 9.84664C123.439 10.1622 124.128 10.667 124.629 11.298C125.13 11.9291 125.381 12.6232 125.443 13.3805L122.186 13.8222C121.998 13.0019 121.748 12.497 121.309 12.1815Z" fill="#2A3478"/>
    <path d="M133.209 23.4759C131.393 23.4759 129.952 22.9711 128.887 21.9614C127.823 20.9517 127.259 19.6265 127.259 17.9227C127.259 16.3451 127.572 14.9568 128.198 13.6316C128.825 12.3064 129.764 11.2336 131.017 10.4763C132.27 9.71908 133.711 9.27734 135.464 9.27734C137.281 9.27734 138.722 9.78218 139.787 10.7919C140.851 11.8015 141.415 13.1267 141.415 14.8306C141.415 16.4082 141.102 17.8596 140.476 19.1848C139.849 20.51 138.91 21.5197 137.657 22.34C136.404 23.0342 134.963 23.4759 133.209 23.4759ZM135.339 11.9277C134.337 11.9277 133.46 12.3064 132.834 13.0005C132.145 13.6947 131.706 14.515 131.393 15.4616C131.08 16.4082 130.954 17.2285 130.954 17.9858C130.954 18.8693 131.142 19.5634 131.581 20.0052C132.019 20.51 132.646 20.6993 133.397 20.6993C134.462 20.6993 135.277 20.3207 135.966 19.6265C136.655 18.9324 137.093 18.112 137.406 17.1654C137.719 16.2189 137.845 15.3985 137.845 14.6413C137.845 13.7578 137.594 13.1267 137.156 12.6219C136.717 12.1802 136.091 11.9277 135.339 11.9277Z" fill="#2A3478"/>
    <path d="M149.308 23.4759C147.492 23.4759 146.051 22.9711 144.986 21.9614C143.921 20.9517 143.357 19.6265 143.357 17.9227C143.357 16.3451 143.671 14.9568 144.297 13.6316C144.923 12.3064 145.863 11.2336 147.116 10.4763C148.369 9.71908 149.809 9.27734 151.563 9.27734C153.38 9.27734 154.82 9.78218 155.885 10.7919C156.95 11.8015 157.514 13.1267 157.514 14.8306C157.514 16.4082 157.201 17.8596 156.574 19.1848C155.948 20.51 155.008 21.5197 153.755 22.34C152.503 23.0342 151.062 23.4759 149.308 23.4759ZM151.438 11.9277C150.436 11.9277 149.559 12.3064 148.932 13.0005C148.243 13.6947 147.805 14.515 147.492 15.4616C147.178 16.4082 147.053 17.2285 147.053 17.9858C147.053 18.8693 147.241 19.5634 147.679 20.0052C148.118 20.51 148.744 20.6993 149.496 20.6993C150.561 20.6993 151.375 20.3207 152.064 19.6265C152.753 18.9324 153.192 18.112 153.505 17.1654C153.818 16.2189 153.943 15.3985 153.943 14.6413C153.943 13.7578 153.693 13.1267 153.254 12.6219C152.816 12.1802 152.189 11.9277 151.438 11.9277Z" fill="#2A3478"/>
    <path d="M159.267 6.12324H160.331V9.15226H160.958V6.12324H162.023V5.49219H159.267V6.12324Z" fill="#2A3478"/>
    <path d="M165.155 5.49219L164.341 7.95327C164.341 8.01638 164.278 8.14259 164.278 8.20569C164.278 8.14259 164.216 8.07948 164.216 8.01638L163.401 5.49219H162.587V9.15226H163.213V6.75428L163.965 9.15226H164.529L165.28 6.81739V9.15226H165.907V5.49219H165.155Z" fill="#2A3478"/>
    <path d="M162.9 12.119C160.206 12.119 157.951 9.91032 157.951 7.13371C157.951 4.42021 160.144 2.14844 162.9 2.14844C165.593 2.14844 167.848 4.3571 167.848 7.13371C167.848 9.91032 165.593 12.119 162.9 12.119ZM162.9 2.84259C160.519 2.84259 158.578 4.79884 158.578 7.19682C158.578 9.5948 160.519 11.551 162.9 11.551C165.28 11.551 167.222 9.5948 167.222 7.19682C167.222 4.73573 165.28 2.84259 162.9 2.84259Z" fill="#2A3478"/>
    <path fill-rule="evenodd" clip-rule="evenodd" d="M153.88 46.6363C153.629 46.6363 153.378 46.7625 153.191 46.9518C153.003 47.1411 152.815 47.4566 152.752 47.7721H154.506V47.709C154.569 47.3935 154.569 47.1411 154.443 46.9518C154.381 46.6994 154.193 46.6363 153.88 46.6363ZM153.316 50.4226C152.689 50.4226 152.251 50.2332 151.938 49.8546C151.625 49.476 151.562 48.9711 151.625 48.3401L151.687 48.1508C151.812 47.5197 152.063 47.0149 152.501 46.5732C152.94 46.1945 153.441 46.0052 154.005 46.0052C154.569 46.0052 154.944 46.1945 155.195 46.5101C155.446 46.8256 155.508 47.3304 155.446 47.8984L155.383 48.3401H152.627C152.564 48.7818 152.564 49.1605 152.689 49.4129C152.815 49.6653 153.065 49.7915 153.504 49.7915C153.754 49.7915 154.005 49.7284 154.193 49.6653C154.381 49.6022 154.631 49.476 154.819 49.3498L155.07 49.8546C154.882 49.9808 154.631 50.107 154.318 50.2332C154.005 50.3594 153.629 50.4226 153.316 50.4226ZM148.994 49.7915C149.244 49.7915 149.432 49.7284 149.62 49.5391C149.808 49.4129 149.933 49.1605 149.996 48.908H150.873C150.81 49.3498 150.56 49.6653 150.184 49.9177C149.808 50.1701 149.37 50.2963 148.868 50.2963C148.242 50.2963 147.804 50.107 147.553 49.6653C147.24 49.2867 147.177 48.7818 147.302 48.1508V48.0246C147.428 47.3935 147.678 46.8887 148.117 46.5101C148.555 46.1314 149.056 45.9421 149.683 45.9421C150.184 45.9421 150.56 46.0683 150.81 46.3838C151.061 46.6994 151.186 47.078 151.123 47.5197H150.246C150.309 47.2042 150.247 47.0149 150.121 46.8256C149.996 46.6363 149.808 46.5732 149.557 46.5732C149.244 46.5732 148.931 46.6994 148.743 47.0149C148.493 47.3304 148.367 47.6459 148.305 48.0877V48.2139C148.242 48.6556 148.242 49.0342 148.367 49.3498C148.367 49.6653 148.618 49.7915 148.994 49.7915ZM143.92 46.6994C144.108 46.5101 144.296 46.3207 144.546 46.1945C144.797 46.0683 145.047 46.0052 145.298 46.0052C145.737 46.0052 146.05 46.1314 146.238 46.4469C146.426 46.6994 146.488 47.1411 146.426 47.709L145.924 50.2963H144.985L145.486 47.709C145.549 47.2673 145.549 47.0149 145.423 46.8256C145.298 46.6994 145.11 46.5732 144.86 46.5732C144.672 46.5732 144.484 46.6363 144.296 46.6994C144.108 46.8256 143.983 46.9518 143.857 47.078L143.294 50.2332H142.354L143.106 46.0052H143.983L143.92 46.6994ZM140.412 46.6363C140.162 46.6363 139.911 46.7625 139.723 46.9518C139.535 47.1411 139.347 47.4566 139.285 47.7721H141.039V47.709C141.101 47.3935 141.101 47.1411 140.976 46.9518C140.851 46.6994 140.663 46.6363 140.412 46.6363ZM139.786 50.4226C139.159 50.4226 138.721 50.2332 138.408 49.8546C138.095 49.476 138.032 48.9711 138.095 48.3401L138.157 48.1508C138.283 47.5197 138.533 47.0149 138.972 46.5732C139.41 46.1945 139.911 46.0052 140.475 46.0052C141.039 46.0052 141.414 46.1945 141.665 46.5101C141.916 46.8256 141.978 47.3304 141.916 47.8984L141.853 48.3401H139.097C139.034 48.7818 139.034 49.1605 139.159 49.4129C139.285 49.6653 139.535 49.7915 139.974 49.7915C140.224 49.7915 140.475 49.7284 140.663 49.6653C140.851 49.6022 141.101 49.476 141.289 49.3498L141.54 49.8546C141.352 49.9808 141.101 50.107 140.788 50.2332C140.475 50.3594 140.162 50.4226 139.786 50.4226ZM137.781 44.9955H136.842L136.967 44.2383H137.907L137.781 44.9955ZM136.779 50.2963H135.84L136.591 46.0683H137.531L136.779 50.2963ZM135.652 46.7625H135.213C135.025 46.7625 134.837 46.8256 134.712 46.9518C134.524 47.078 134.399 47.2042 134.336 47.3935L133.773 50.3594H132.833L133.585 46.1314H134.462L134.399 46.6994C134.524 46.5101 134.712 46.3207 134.9 46.1945C135.088 46.0683 135.338 46.0052 135.526 46.0052C135.589 46.0052 135.652 46.0052 135.714 46.0052C135.777 46.0052 135.84 46.0052 135.84 46.0683L135.652 46.7625ZM130.829 46.6363C130.578 46.6363 130.327 46.7625 130.14 46.9518C129.952 47.1411 129.764 47.4566 129.701 47.7721H131.455V47.709C131.518 47.3935 131.518 47.1411 131.392 46.9518C131.33 46.6994 131.142 46.6363 130.829 46.6363ZM130.265 50.4226C129.638 50.4226 129.2 50.2332 128.887 49.8546C128.574 49.476 128.511 48.9711 128.574 48.3401L128.636 48.1508C128.761 47.5197 129.012 47.0149 129.45 46.5732C129.889 46.1945 130.39 46.0052 130.954 46.0052C131.518 46.0052 131.893 46.1945 132.144 46.5101C132.394 46.8256 132.457 47.3304 132.394 47.8984L132.332 48.3401H129.576C129.513 48.7818 129.513 49.1605 129.638 49.4129C129.764 49.6653 130.014 49.7915 130.453 49.7915C130.703 49.7915 130.954 49.7284 131.142 49.6653C131.33 49.6022 131.58 49.476 131.768 49.3498L132.019 49.8546C131.831 49.9808 131.58 50.107 131.267 50.2332C130.954 50.3594 130.578 50.4226 130.265 50.4226ZM126.945 48.277C127.008 47.7721 127.008 47.3935 126.882 47.078C126.757 46.7625 126.569 46.6363 126.193 46.6363C126.005 46.6363 125.817 46.6994 125.63 46.7625C125.442 46.8887 125.316 47.0149 125.191 47.1411L124.815 49.2867C124.878 49.476 124.94 49.5391 125.128 49.6653C125.254 49.7284 125.442 49.7915 125.63 49.7915C125.943 49.7915 126.193 49.6653 126.444 49.4129C126.694 49.1605 126.82 48.7818 126.882 48.3401L126.945 48.277ZM127.885 48.3401C127.759 48.9711 127.509 49.476 127.195 49.8546C126.82 50.2332 126.381 50.4226 125.817 50.4226C125.567 50.4226 125.379 50.3594 125.191 50.2963C125.003 50.2332 124.878 50.107 124.753 49.9177L124.377 52.0002H123.375L124.439 46.1314H125.254V46.6363C125.442 46.4469 125.63 46.3207 125.817 46.1945C126.005 46.0683 126.256 46.0683 126.569 46.0683C127.07 46.0683 127.446 46.2576 127.697 46.6994C127.947 47.1411 128.01 47.6459 127.885 48.3401V48.3401ZM121.495 47.6459L122.623 46.0683H123.75L121.996 48.1508L123.061 50.2963H121.996L121.433 48.7187L120.305 50.2963H119.24L121.057 48.1508L120.055 46.0683H121.12L121.495 47.6459ZM118.614 47.709H116.296L115.921 49.7284H118.677L118.551 50.3594H114.856L115.858 44.68H119.554L119.428 45.3111H116.735L116.422 47.1411H118.739L118.614 47.709ZM112.538 46.7625H112.1C111.912 46.7625 111.724 46.8256 111.598 46.9518C111.411 47.078 111.285 47.2042 111.223 47.3935L110.659 50.3594H109.719L110.471 46.1314H111.348L111.285 46.6994C111.411 46.5101 111.598 46.3207 111.786 46.1945C111.974 46.0683 112.225 46.0052 112.413 46.0052C112.475 46.0052 112.538 46.0052 112.601 46.0052C112.663 46.0052 112.726 46.0052 112.726 46.0683L112.538 46.7625ZM107.715 46.6363C107.464 46.6363 107.214 46.7625 107.026 46.9518C106.838 47.1411 106.65 47.4566 106.587 47.7721H108.341V47.709C108.404 47.3935 108.404 47.1411 108.279 46.9518C108.216 46.6994 108.028 46.6363 107.715 46.6363ZM107.151 50.4226C106.525 50.4226 106.086 50.2332 105.773 49.8546C105.46 49.476 105.397 48.9711 105.46 48.3401L105.523 48.1508C105.648 47.5197 105.898 47.0149 106.337 46.5732C106.775 46.1945 107.276 46.0052 107.84 46.0052C108.404 46.0052 108.78 46.1945 109.03 46.5101C109.281 46.8256 109.343 47.3304 109.281 47.8984L109.218 48.3401H106.462C106.399 48.7818 106.399 49.1605 106.525 49.4129C106.65 49.6653 106.901 49.7915 107.339 49.7915C107.59 49.7915 107.84 49.7284 108.028 49.6653C108.216 49.6022 108.467 49.476 108.654 49.3498L108.905 49.8546C108.717 49.9808 108.467 50.107 108.153 50.2332C107.84 50.3594 107.464 50.4226 107.151 50.4226ZM99.6345 46.6363C99.8224 46.4469 100.01 46.2576 100.261 46.1945C100.511 46.0683 100.762 46.0052 101.075 46.0052C101.326 46.0052 101.576 46.0683 101.764 46.1945C101.952 46.3207 102.077 46.5101 102.14 46.7625C102.328 46.5101 102.516 46.3207 102.766 46.1945C103.017 46.0683 103.268 46.0052 103.581 46.0052C104.019 46.0052 104.332 46.1314 104.52 46.4469C104.708 46.7625 104.771 47.2042 104.646 47.8353L104.207 50.3594H103.268L103.706 47.8353C103.769 47.3935 103.769 47.078 103.706 46.8887C103.581 46.6994 103.455 46.6363 103.142 46.6363C102.954 46.6363 102.704 46.6994 102.579 46.8256C102.391 46.9518 102.265 47.1411 102.14 47.3935C102.14 47.4566 102.14 47.5197 102.14 47.5828C102.14 47.6459 102.14 47.6459 102.14 47.709L101.639 50.3594H100.699L101.138 47.8353C101.2 47.3935 101.2 47.078 101.075 46.8887C100.95 46.6994 100.825 46.6363 100.511 46.6363C100.324 46.6363 100.136 46.6994 99.9477 46.7625C99.7598 46.8887 99.6345 47.0149 99.5092 47.1411L98.9455 50.2963H98.0059L98.7575 46.0683H99.6345V46.6363ZM94.4355 48.277C94.3728 48.7187 94.3728 49.0974 94.4981 49.4129C94.6234 49.6653 94.8739 49.8546 95.2498 49.8546C95.563 49.8546 95.8762 49.7284 96.1267 49.4129C96.3773 49.0974 96.5026 48.7818 96.6278 48.3401V48.2139C96.6905 47.7722 96.6905 47.3935 96.5652 47.078C96.4399 46.7625 96.1894 46.6363 95.8762 46.6363C95.563 46.6363 95.2498 46.7625 94.9992 47.078C94.7487 47.3935 94.6234 47.709 94.5608 48.1508L94.4355 48.277ZM93.4959 48.1508C93.6212 47.5197 93.8717 46.9518 94.3102 46.5732C94.7487 46.1945 95.2498 46.0052 95.8762 46.0052C96.5026 46.0052 96.941 46.1945 97.1916 46.6363C97.5048 47.0149 97.5674 47.5828 97.4421 48.1508V48.277C97.3169 48.908 97.0663 49.476 96.6278 49.8546C96.1894 50.2332 95.6882 50.4226 95.0619 50.4226C94.4355 50.4226 93.997 50.2332 93.6838 49.7915C93.3706 49.4129 93.308 48.908 93.4333 48.277L93.4959 48.1508ZM92.5563 45.0586L92.3684 46.1314H93.1827L93.0574 46.6994H92.2431L91.8047 49.2236C91.742 49.476 91.742 49.6022 91.8047 49.7284C91.8673 49.7915 91.9926 49.8546 92.1178 49.8546C92.1805 49.8546 92.2431 49.8546 92.2431 49.8546C92.3058 49.8546 92.3684 49.8546 92.431 49.7915V50.3594C92.3058 50.4226 92.2431 50.4226 92.1178 50.4226C91.9926 50.4226 91.8673 50.4857 91.742 50.4857C91.3662 50.4857 91.1156 50.3594 90.9277 50.1701C90.7398 49.9808 90.6772 49.6653 90.8024 49.2236L91.2409 46.6994H90.5519L90.6772 46.1314H91.3662L91.5541 45.0586H92.5563ZM88.7354 49.2867C88.7354 49.0973 88.7354 48.9711 88.6101 48.8449C88.4848 48.7187 88.2342 48.5925 87.9211 48.4663C87.4199 48.277 87.0441 48.1508 86.8562 47.9615C86.6056 47.7721 86.543 47.5197 86.6056 47.2042C86.6683 46.8887 86.8562 46.5732 87.232 46.3838C87.6079 46.1314 87.9837 46.0683 88.5474 46.0683C89.0485 46.0683 89.4244 46.1945 89.7376 46.4469C90.0508 46.6994 90.1134 47.0149 90.0508 47.3304H89.1112C89.1738 47.1411 89.1112 46.9518 88.9859 46.8256C88.8606 46.6994 88.6727 46.6363 88.4222 46.6363C88.1716 46.6363 87.9837 46.6994 87.7958 46.8256C87.6079 46.9518 87.5452 47.078 87.5452 47.2042C87.5452 47.3935 87.5452 47.5197 87.6705 47.5828C87.7958 47.6459 87.9837 47.7721 88.3595 47.9615C88.8606 48.0877 89.2365 48.277 89.487 48.5294C89.7376 48.7187 89.8002 48.9711 89.7376 49.2867C89.6749 49.6653 89.487 49.9177 89.1112 50.1701C88.7354 50.3594 88.2969 50.4857 87.7958 50.4857C87.232 50.4857 86.8562 50.3594 86.543 50.107C86.2298 49.8546 86.1672 49.5391 86.2298 49.1605H87.1068C87.0441 49.4129 87.1068 49.6022 87.2947 49.7284C87.4199 49.8546 87.6705 49.9177 87.9211 49.9177C88.1716 49.9177 88.3595 49.8546 88.5474 49.7284C88.6101 49.5391 88.7354 49.4129 88.7354 49.2867ZM84.2254 50.2963V49.7284C84.0375 49.9808 83.8495 50.107 83.599 50.2332C83.3484 50.3594 83.0979 50.4226 82.8473 50.4226C82.4089 50.4226 82.033 50.2963 81.8451 49.9808C81.6572 49.6653 81.5946 49.2236 81.7198 48.5925L82.1583 46.1314H83.0979L82.6594 48.5925C82.5968 49.0342 82.5968 49.4129 82.6594 49.5391C82.722 49.7284 82.91 49.7915 83.1605 49.7915C83.4111 49.7915 83.599 49.7284 83.7869 49.6653C83.9748 49.5391 84.1001 49.4129 84.2254 49.2236L84.7891 46.0683H85.7287L84.977 50.2963H84.2254ZM80.7803 48.5925C80.7176 49.2236 80.4044 49.6653 79.9659 49.9177C79.5275 50.2332 78.9637 50.3594 78.2747 50.3594C77.5857 50.3594 77.0846 50.1701 76.7087 49.7915C76.3329 49.4129 76.2076 48.908 76.3329 48.2139L76.6461 46.6363C76.7714 45.9421 77.0846 45.3742 77.523 45.0586C78.0242 44.68 78.5879 44.4907 79.2769 44.4907C79.9659 44.4907 80.4671 44.6169 80.8429 44.9324C81.2187 45.248 81.2814 45.6897 81.2187 46.2576H80.2791C80.3418 45.8159 80.2791 45.5004 80.1539 45.3742C79.9659 45.1849 79.6528 45.1217 79.2143 45.1217C78.8385 45.1217 78.4626 45.248 78.1494 45.5004C77.8362 45.7528 77.6483 46.1314 77.5857 46.6363L77.2725 48.2139C77.1472 48.7187 77.2098 49.0973 77.3978 49.3498C77.5857 49.6022 77.8989 49.7284 78.3373 49.7284C78.7132 49.7284 79.089 49.6022 79.2769 49.4129C79.5275 49.2236 79.7154 48.908 79.778 48.5294H80.7803V48.5925ZM71.3845 48.8449V49.0974L72.9504 46.0052H74.0153L71.3218 50.9274C71.1339 51.2429 70.946 51.4953 70.6954 51.6846C70.4449 51.874 70.1317 52.0002 69.7559 52.0002C69.6932 52.0002 69.5679 52.0002 69.5053 52.0002C69.4427 52.0002 69.3174 52.0002 69.2547 51.9371L69.4427 51.3691C69.4427 51.3691 69.5053 51.3691 69.5679 51.3691C69.6306 51.3691 69.6932 51.3691 69.6932 51.3691C69.8811 51.3691 70.0064 51.306 70.1943 51.1798C70.3196 51.0536 70.4449 50.8643 70.5702 50.7381L70.8207 50.2963L69.9438 46.0683H71.0086L71.3845 48.8449ZM68.2525 48.277C68.3152 47.7721 68.3152 47.3935 68.2525 47.078C68.1272 46.7625 67.9393 46.6363 67.5635 46.6363C67.3756 46.6363 67.1877 46.6994 66.9998 46.8256C66.8118 46.9518 66.6866 47.078 66.5613 47.2673L66.1854 49.2867C66.2481 49.476 66.3107 49.6022 66.436 49.7284C66.5613 49.8546 66.7492 49.8546 66.9998 49.8546C67.3129 49.8546 67.6261 49.7284 67.8141 49.476C68.002 49.2236 68.1899 48.8449 68.2525 48.4032V48.277ZM69.1921 48.3401C69.0668 48.9711 68.8163 49.476 68.5031 49.8546C68.1272 50.2332 67.6888 50.4226 67.125 50.4226C66.8745 50.4226 66.6239 50.3594 66.436 50.2332C66.2481 50.107 66.1228 49.9808 65.9975 49.7915L65.8096 50.3594H64.9953L66.1228 44.2383H67.0624L66.6239 46.5732C66.8118 46.3838 66.9998 46.2576 67.1877 46.1945C67.3756 46.1314 67.6261 46.0683 67.8767 46.0683C68.3778 46.0683 68.7536 46.2576 69.0042 46.6994C69.2547 47.1411 69.3174 47.6459 69.1921 48.3401V48.3401ZM59.7337 46.6994C59.9216 46.5101 60.1095 46.3207 60.3601 46.1945C60.6106 46.0683 60.8612 46.0052 61.1117 46.0052C61.5502 46.0052 61.8634 46.1314 62.0513 46.4469C62.2392 46.6994 62.3019 47.1411 62.2392 47.709L61.7381 50.2963H60.7985L61.2996 47.709C61.3623 47.2673 61.3623 47.0149 61.237 46.8256C61.1117 46.6994 60.9238 46.5732 60.6732 46.5732C60.4853 46.5732 60.2974 46.6363 60.1095 46.6994C59.9216 46.8256 59.7963 46.9518 59.671 47.078L59.1073 50.2332H58.1677L58.9194 46.0052H59.7963L59.7337 46.6994ZM56.1633 46.6363C55.9127 46.6363 55.6622 46.7625 55.4742 46.9518C55.2863 47.1411 55.0984 47.4566 55.0358 47.7721H56.7897V47.709C56.8523 47.3935 56.8523 47.1411 56.727 46.9518C56.6644 46.6994 56.4765 46.6363 56.1633 46.6363ZM55.5995 50.4226C54.9731 50.4226 54.5347 50.2332 54.2215 49.8546C53.9083 49.476 53.8456 48.9711 53.9083 48.3401L53.9709 48.1508C54.0962 47.5197 54.3467 47.0149 54.7852 46.5732C55.2237 46.1945 55.7248 46.0052 56.2885 46.0052C56.8523 46.0052 57.2281 46.1945 57.4787 46.5101C57.7292 46.8256 57.7919 47.3304 57.7292 47.8984L57.6666 48.3401H54.9105C54.8479 48.7818 54.8479 49.1605 54.9731 49.4129C55.0984 49.6653 55.349 49.7915 55.7874 49.7915C56.038 49.7915 56.2885 49.7284 56.4765 49.6653C56.6644 49.6022 56.9149 49.476 57.1028 49.3498L57.3534 49.8546C57.1655 49.9808 56.9149 50.107 56.6017 50.2332C56.2259 50.3594 55.9127 50.4226 55.5995 50.4226ZM51.2775 49.0342V49.3498L51.4027 49.0342L52.8434 46.0683H53.8456L51.528 50.2963H50.7137L49.8994 46.0683H50.9016L51.2775 49.0342ZM49.3357 44.9955H48.3961L48.5214 44.2383H49.4609L49.3357 44.9955ZM48.3961 50.2963H47.4565L48.2082 46.0683H49.1477L48.3961 50.2963ZM47.2059 46.7625H46.7675C46.5796 46.7625 46.3916 46.8256 46.2664 46.9518C46.0784 47.078 45.9532 47.2042 45.8905 47.3935L45.3268 50.3594H44.3872L45.1389 46.1314H46.0158V46.6994C46.1411 46.5101 46.329 46.3207 46.5169 46.1945C46.7048 46.0683 46.9554 46.0052 47.1433 46.0052C47.2059 46.0052 47.2686 46.0052 47.3312 46.0052C47.3939 46.0052 47.4565 46.0052 47.4565 46.0683L47.2059 46.7625ZM40.7542 45.248L39.9399 49.7284H40.9421C41.3805 49.7284 41.819 49.5391 42.1322 49.2236C42.508 48.8449 42.696 48.4663 42.8212 47.8984L42.9465 47.078C43.0718 46.5101 43.0092 46.0683 42.7586 45.7528C42.5707 45.4373 42.1948 45.248 41.6937 45.248H40.7542V45.248ZM38.875 50.2963L39.8772 44.6169H41.819C42.508 44.6169 43.0718 44.8693 43.5103 45.3111C43.8861 45.7528 44.074 46.3838 43.9487 47.078L43.8235 47.8984C43.6982 48.6556 43.3223 49.2236 42.8212 49.6653C42.2575 50.107 41.6311 50.2963 40.8794 50.2963H38.875Z" fill="#2A3478"/>
</svg>

